# Created by Open3D 
# object name: 28d39c9673775f601a3b47d6d0918049
# number of vertices: 768
# number of triangles: 568
v 0.0213923 -0.23215 -0.0694864
vn -0.0237002 0 -0.0091357
v -0.0788839 -0.0791411 -0.516607
vn -0.0205281 0 -0.0149585
v -0.137429 -0.0979129 -0.500894
vn -0.0237002 0 -0.0091357
v 0.0799373 -0.213378 -0.0851985
vn -0.0205281 0 -0.0149585
v -0.00688582 0.323732 -0.417754
vn 0 -0.0254 0
v -0.137429 -0.0979129 -0.500894
vn 0 -0.0254 0
v -0.0788839 -0.0791411 -0.516607
vn 0 -0.0254 0
v -0.137429 -0.0979129 -0.500894
vn -0.0237002 0 -0.0091357
v -0.0383936 -0.235282 -0.048451
vn -0.0252571 0 -0.00269034
v 0.0213923 -0.23215 -0.0694864
vn -0.0237002 0 -0.0091357
v 0.0799373 -0.213378 -0.0851985
vn -0.0205281 0 -0.0149585
v 0.0213923 -0.23215 -0.0694864
vn -0.0237002 0 -0.0091357
v 0.106931 -0.236194 -0.0118744
vn -0.0205281 0 -0.0149585
v 0.0799373 -0.213378 -0.0851985
vn -0.0205281 0 -0.0149585
v -0.0255702 -0.0460127 -0.525926
vn -0.0159571 0 -0.0197618
v -0.0788839 -0.0791411 -0.516607
vn -0.0205281 0 -0.0149585
v -0.0571258 0.351436 -0.390638
vn 0 -0.0254 0
v 0.0332162 0.282933 -0.445213
vn 0 -0.0254 0
v -0.197215 -0.101045 -0.479859
vn -0.0252571 0 -0.00269034
v 0.0213923 -0.23215 -0.0694864
vn -0.0237002 0 -0.0091357
v -0.0383936 -0.235282 -0.048451
vn -0.0252571 0 -0.00269034
v 0.0483863 -0.254965 0.00383763
vn -0.0237002 0 -0.0091357
v 0.0483863 -0.254965 0.00383763
vn -0.0237002 0 -0.0091357
v 0.106931 -0.236194 -0.0118744
vn -0.0205281 0 -0.0149585
v 0.160245 -0.203065 -0.0211935
vn -0.0159571 0 -0.0197618
v 0.0799373 -0.213378 -0.0851985
vn -0.0205281 0 -0.0149585
v 0.133251 -0.18025 -0.0945175
vn -0.0159571 0 -0.0197618
v -0.0255702 -0.0460127 -0.525926
vn 0 -0.0254 0
v -0.197215 -0.101045 -0.479859
vn 0 -0.0254 0
v 0.151935 0.189495 0.0136538
vn 0.0232185 0 -0.0102987
v -0.0571258 0.351436 -0.390638
vn 0.0250928 0 -0.00393837
v -0.00688582 0.323732 -0.417754
vn 0.0232185 0 -0.0102987
v 0.192037 0.148696 -0.0138047
vn 0.0197618 0 -0.0159571
v -0.00688582 0.323732 -0.417754
vn 0.0232185 0 -0.0102987
v 0.0332162 0.282933 -0.445213
vn 0.0197618 0 -0.0159571
v -0.197215 -0.101045 -0.479859
vn -0.0252571 0 -0.00269034
v -0.0953474 -0.222564 -0.0235264
vn -0.0250928 0 0.00393837
v -0.0383936 -0.235282 -0.048451
vn -0.0252571 0 -0.00269034
v -0.0113996 -0.258098 0.024873
vn -0.0252571 0 -0.00269034
v 0.101695 0.217199 0.0407696
vn 0.0250928 0 -0.00393837
v 0.101695 0.217199 0.0407696
vn 0.0250928 0 -0.00393837
v 0.151935 0.189495 0.0136538
vn 0.0232185 0 -0.0102987
v 0.128689 0.194383 0.114094
vn 0.0250928 0 -0.00393837
v 0.151935 0.189495 0.0136538
vn 0.0232185 0 -0.0102987
v 0.151935 0.189495 0.0136538
vn 0.0232185 0 -0.0102987
v 0.192037 0.148696 -0.0138047
vn 0.0197618 0 -0.0159571
v 0.178929 0.16668 0.0869778
vn 0.0232185 0 -0.0102987
v 0.0483863 -0.254965 0.00383763
vn 0 -0.0254 0
v 0.0513199 -0.291911 -0.00873834
vn 0 -0.0254 0
v 0.106931 -0.236194 -0.0118744
vn 0 -0.0254 0
v 0.106931 -0.236194 -0.0118744
vn 0 0.0254 0
v 0.0513199 -0.291911 -0.00873834
vn 0 0.0254 0
v 0.0483863 -0.254965 0.00383763
vn 0 0.0254 0
v 0.133251 -0.18025 -0.0945175
vn -0.0159571 0 -0.0197618
v 0.119291 -0.270118 -0.0269805
vn 0 -0.0254 0
v 0.160245 -0.203065 -0.0211935
vn 0 -0.0254 0
v 0.160245 -0.203065 -0.0211935
vn 0 0.0254 0
v 0.119291 -0.270118 -0.0269805
vn 0 0.0254 0
v 0.177701 -0.13502 -0.0968077
vn -0.0102987 0 -0.0232185
v -0.0255702 -0.0460127 -0.525926
vn -0.0159571 0 -0.0197618
v 0.133251 -0.18025 -0.0945175
vn -0.0159571 0 -0.0197618
v 0.0604475 0.231818 -0.471143
vn 0 -0.0254 0
v -0.114079 0.364153 -0.365714
vn 0 -0.0254 0
v 0.0604475 0.231818 -0.471143
vn 0.0149585 0 -0.0205281
v 0.192037 0.148696 -0.0138047
vn 0.0197618 0 -0.0159571
v 0.0332162 0.282933 -0.445213
vn 0.0197618 0 -0.0159571
v -0.254169 -0.088327 -0.454934
vn -0.0250928 0 0.00393837
v -0.0383936 -0.235282 -0.048451
vn -0.0252571 0 -0.00269034
v -0.0953474 -0.222564 -0.0235264
vn -0.0250928 0 0.00393837
v -0.0113996 -0.258098 0.024873
vn -0.0252571 0 -0.00269034
v -0.114079 0.364153 -0.365714
vn 0.0252571 -0 0.00269034
v 0.101695 0.217199 0.0407696
vn 0.0250928 0 -0.00393837
v 0.0447425 0.229916 0.0656939
vn 0.0252571 -0 0.00269034
v 0.0447425 0.229916 0.0656939
vn 0.0252571 -0 0.00269034
v 0.101695 0.217199 0.0407696
vn 0.0250928 0 -0.00393837
v 0.0717365 0.207101 0.139018
vn 0.0252571 -0 0.00269034
v -0.0113996 -0.258098 0.024873
vn 0 -0.0254 0
v -0.0180929 -0.295548 0.0156839
vn 0 -0.0254 0
v -0.0180929 -0.295548 0.0156839
vn 0 0.0254 0
v -0.0113996 -0.258098 0.024873
vn 0 0.0254 0
v -0.0571258 0.351436 -0.390638
vn 0.0250928 0 -0.00393837
v 0.178929 0.16668 0.0869778
vn 0.0232185 0 -0.0102987
v 0.128689 0.194383 0.114094
vn 0.0250928 0 -0.00393837
v 0.219031 0.12588 0.0595193
vn 0.0197618 0 -0.0159571
v 0.133251 -0.18025 -0.0945175
vn -0.0159571 0 -0.0197618
v 0.160245 -0.203065 -0.0211935
vn -0.0159571 0 -0.0197618
v 0.177701 -0.13502 -0.0968077
vn -0.0102987 0 -0.0232185
v 0.181188 -0.231655 -0.0377997
vn 0 -0.0254 0
v 0.181188 -0.231655 -0.0377997
vn 0 0.0254 0
v 0.0188796 -0.00078265 -0.528216
vn -0.0102987 0 -0.0232185
v 0.0188796 -0.00078265 -0.528216
vn 0 -0.0254 0
v -0.254169 -0.088327 -0.454934
vn 0 -0.0254 0
v 0.219269 0.0975806 -0.0397349
vn 0.0149585 0 -0.0205281
v -0.254169 -0.088327 -0.454934
vn -0.0250928 0 0.00393837
v -0.145587 -0.194861 0.0035895
vn -0.0232185 0 0.0102987
v -0.0953474 -0.222564 -0.0235264
vn -0.0250928 0 0.00393837
v -0.0683534 -0.24538 0.0497977
vn -0.0250928 0 0.00393837
v 0.0447425 0.229916 0.0656939
vn 0.0252571 -0 0.00269034
v -0.173866 0.361021 -0.344678
vn 0.0237002 0 0.0091357
v -0.114079 0.364153 -0.365714
vn 0.0252571 -0 0.00269034
v 0.0717365 0.207101 0.139018
vn 0.0252571 -0 0.00269034
v 0.0119497 0.203969 0.160054
vn 0.0237002 0 0.0091357
v 0.0447425 0.229916 0.0656939
vn 0.0252571 -0 0.00269034
v -0.0683534 -0.24538 0.0497977
vn 0 -0.0254 0
v -0.0683534 -0.24538 0.0497977
vn 0 0.0254 0
v 0.144553 0.229785 0.119269
vn 0 -0.0254 0
v 0.128689 0.194383 0.114094
vn 0 -0.0254 0
v 0.178929 0.16668 0.0869778
vn 0 -0.0254 0
v 0.178929 0.16668 0.0869778
vn 0 0.0254 0
v 0.128689 0.194383 0.114094
vn 0 0.0254 0
v 0.144553 0.229785 0.119269
vn 0 0.0254 0
v 0.0717365 0.207101 0.139018
vn 0 -0.0254 0
v 0.0717365 0.207101 0.139018
vn 0 0.0254 0
v 0.202881 0.197621 0.0877879
vn 0 -0.0254 0
v 0.219031 0.12588 0.0595193
vn 0 -0.0254 0
v 0.219031 0.12588 0.0595193
vn 0 0.0254 0
v 0.202881 0.197621 0.0877879
vn 0 0.0254 0
v 0.219031 0.12588 0.0595193
vn 0.0197618 0 -0.0159571
v 0.192037 0.148696 -0.0138047
vn 0.0197618 0 -0.0159571
v 0.246263 0.0747651 0.0335891
vn 0.0149585 0 -0.0205281
v 0.219269 0.0975806 -0.0397349
vn 0.0149585 0 -0.0205281
v -0.00219226 -0.308988 0.058875
vn -0.0252571 0 -0.00269034
v 0.0513199 -0.291911 -0.00873834
vn -0.0237002 0 -0.0091357
v -0.0180929 -0.295548 0.0156839
vn -0.0252571 0 -0.00269034
v -0.0180929 -0.295548 0.0156839
vn 0.0252571 -0 0.00269034
v 0.0513199 -0.291911 -0.00873834
vn 0.0237002 0 0.0091357
v -0.00219226 -0.308988 0.058875
vn 0.0252571 -0 0.00269034
v 0.0672206 -0.30535 0.0344527
vn -0.0237002 0 -0.0091357
v 0.119291 -0.270118 -0.0269805
vn -0.0205281 0 -0.0149585
v 0.0513199 -0.291911 -0.00873834
vn -0.0237002 0 -0.0091357
v 0.0513199 -0.291911 -0.00873834
vn 0.0237002 0 0.0091357
v 0.119291 -0.270118 -0.0269805
vn 0.0205281 -0 0.0149585
v 0.0672206 -0.30535 0.0344527
vn 0.0237002 0 0.0091357
v 0.204695 -0.157835 -0.0234837
vn -0.0102987 0 -0.0232185
v 0.135191 -0.283558 0.0162105
vn -0.0205281 0 -0.0149585
v 0.181188 -0.231655 -0.0377997
vn -0.0159571 0 -0.0197618
v 0.119291 -0.270118 -0.0269805
vn -0.0205281 0 -0.0149585
v 0.119291 -0.270118 -0.0269805
vn 0.0205281 -0 0.0149585
v 0.181188 -0.231655 -0.0377997
vn 0.0159571 -0 0.0197618
v 0.135191 -0.283558 0.0162105
vn 0.0205281 -0 0.0149585
v 0.204695 -0.157835 -0.0234837
vn 0 -0.0254 0
v 0.204695 -0.157835 -0.0234837
vn 0 0.0254 0
v 0.210256 -0.0807714 -0.0919128
vn -0.00393837 0 -0.0250928
v 0.0188796 -0.00078265 -0.528216
vn -0.0102987 0 -0.0232185
v 0.177701 -0.13502 -0.0968077
vn -0.0102987 0 -0.0232185
v 0.0729513 0.173869 -0.493778
vn 0 -0.0254 0
v -0.173866 0.361021 -0.344678
vn 0 -0.0254 0
v 0.0729513 0.173869 -0.493778
vn 0.0091357 0 -0.0237002
v 0.219269 0.0975806 -0.0397349
vn 0.0149585 0 -0.0205281
v 0.0604475 0.231818 -0.471143
vn 0.0149585 0 -0.0205281
v -0.304409 -0.0606236 -0.427819
vn -0.0232185 0 0.0102987
v -0.0953474 -0.222564 -0.0235264
vn -0.0250928 0 0.00393837
v -0.145587 -0.194861 0.0035895
vn -0.0232185 0 0.0102987
v -0.0683534 -0.24538 0.0497977
vn -0.0250928 0 0.00393837
v -0.0150443 0.226784 0.0867297
vn 0.0237002 0 0.0091357
v -0.0150443 0.226784 0.0867297
vn 0.0237002 0 0.0091357
v 0.0784286 0.244551 0.148207
vn 0 -0.0254 0
v 0.0119497 0.203969 0.160054
vn 0 -0.0254 0
v 0.0119497 0.203969 0.160054
vn 0 0.0254 0
v 0.0784286 0.244551 0.148207
vn 0 0.0254 0
v -0.0842166 -0.280782 0.0446219
vn 0 -0.0254 0
v -0.0842166 -0.280782 0.0446219
vn 0 0.0254 0
v 0.249439 0.150253 0.0559087
vn 0 -0.0254 0
v 0.249439 0.150253 0.0559087
vn 0 0.0254 0
v 0.246263 0.0747651 0.0335891
vn 0 -0.0254 0
v 0.246263 0.0747651 0.0335891
vn 0 0.0254 0
v 0.246263 0.0747651 0.0335891
vn 0.0149585 0 -0.0205281
v 0.219269 0.0975806 -0.0397349
vn 0.0149585 0 -0.0205281
v 0.258766 0.016816 0.0109545
vn 0.0091357 0 -0.0237002
v 0.0672206 -0.30535 0.0344527
vn -0.0237002 0 -0.0091357
v 0.0672206 -0.30535 0.0344527
vn 0.0237002 0 0.0091357
v -0.0180929 -0.295548 0.0156839
vn -0.0252571 0 -0.00269034
v -0.068316 -0.294221 0.087813
vn -0.0250928 0 0.00393837
v -0.00219226 -0.308988 0.058875
vn -0.0252571 0 -0.00269034
v -0.00219226 -0.308988 0.058875
vn 0.0252571 -0 0.00269034
v -0.068316 -0.294221 0.087813
vn 0.0250928 0 -0.00393837
v -0.0180929 -0.295548 0.0156839
vn 0.0252571 -0 0.00269034
v 0.135191 -0.283558 0.0162105
vn -0.0205281 0 -0.0149585
v 0.135191 -0.283558 0.0162105
vn 0.0205281 -0 0.0149585
v 0.177701 -0.13502 -0.0968077
vn -0.0102987 0 -0.0232185
v 0.204695 -0.157835 -0.0234837
vn -0.0102987 0 -0.0232185
v 0.210256 -0.0807714 -0.0919128
vn -0.00393837 0 -0.0250928
v 0.197089 -0.245095 0.00539136
vn -0.0159571 0 -0.0197618
v 0.197089 -0.245095 0.00539136
vn 0.0159571 -0 0.0197618
v 0.232794 -0.179142 -0.0404582
vn 0 -0.0254 0
v 0.232794 -0.179142 -0.0404582
vn 0 0.0254 0
v 0.0514345 0.0534656 -0.523321
vn -0.00393837 0 -0.0250928
v 0.231773 0.0396316 -0.0623695
vn 0.0091357 0 -0.0237002
v 0.231773 0.0396316 -0.0623695
vn 0.0091357 0 -0.0237002
v 0.0514345 0.0534656 -0.523321
vn 0 -0.0254 0
v -0.304409 -0.0606236 -0.427819
vn 0 -0.0254 0
v -0.304409 -0.0606236 -0.427819
vn -0.0232185 0 0.0102987
v -0.185688 -0.154061 0.0310476
vn -0.0197618 0 0.0159571
v -0.145587 -0.194861 0.0035895
vn -0.0232185 0 0.0102987
v -0.118593 -0.217676 0.0769135
vn -0.0232185 0 0.0102987
v -0.0150443 0.226784 0.0867297
vn 0.0237002 0 0.0091357
v -0.232411 0.342251 -0.328966
vn 0.0205281 -0 0.0149585
v -0.173866 0.361021 -0.344678
vn 0.0237002 0 0.0091357
v 0.0119497 0.203969 0.160054
vn 0.0237002 0 0.0091357
v -0.046596 0.185198 0.175766
vn 0.0205281 -0 0.0149585
v -0.0150443 0.226784 0.0867297
vn 0.0237002 0 0.0091357
v 0.00901602 0.240914 0.17263
vn 0 -0.0254 0
v 0.00901602 0.240914 0.17263
vn 0 0.0254 0
v -0.118593 -0.217676 0.0769135
vn 0 -0.0254 0
v -0.118593 -0.217676 0.0769135
vn 0 0.0254 0
v -0.0842166 -0.280782 0.0446219
vn -0.0250928 0 0.00393837
v -0.0842166 -0.280782 0.0446219
vn 0.0250928 0 -0.00393837
v 0.218782 0.184182 0.130979
vn 0.0232185 0 -0.0102987
v 0.144553 0.229785 0.119269
vn 0.0250928 0 -0.00393837
v 0.202881 0.197621 0.0877879
vn 0.0232185 0 -0.0102987
v 0.202881 0.197621 0.0877879
vn -0.0232185 0 0.0102987
v 0.144553 0.229785 0.119269
vn -0.0250928 0 0.00393837
v 0.218782 0.184182 0.130979
vn -0.0232185 0 0.0102987
v 0.160453 0.216346 0.162461
vn 0.0250928 0 -0.00393837
v 0.0784286 0.244551 0.148207
vn 0.0252571 -0 0.00269034
v 0.144553 0.229785 0.119269
vn 0.0250928 0 -0.00393837
v 0.144553 0.229785 0.119269
vn -0.0250928 0 0.00393837
v 0.0784286 0.244551 0.148207
vn -0.0252571 0 -0.00269034
v 0.160453 0.216346 0.162461
vn -0.0250928 0 0.00393837
v 0.26534 0.136814 0.0990998
vn 0.0197618 0 -0.0159571
v 0.202881 0.197621 0.0877879
vn 0.0232185 0 -0.0102987
v 0.249439 0.150253 0.0559087
vn 0.0197618 0 -0.0159571
v 0.249439 0.150253 0.0559087
vn -0.0197618 0 0.0159571
v 0.202881 0.197621 0.0877879
vn -0.0232185 0 0.0102987
v 0.26534 0.136814 0.0990998
vn -0.0197618 0 0.0159571
v 0.281055 0.0909076 0.0258036
vn 0 -0.0254 0
v 0.281055 0.0909076 0.0258036
vn 0 0.0254 0
v 0.258766 0.016816 0.0109545
vn 0 -0.0254 0
v 0.258766 0.016816 0.0109545
vn 0 0.0254 0
v -0.00219226 -0.308988 0.058875
vn 0 0.0254 0
v 0.0642869 -0.268405 0.0470287
vn 0 0.0254 0
v 0.0672206 -0.30535 0.0344527
vn 0 0.0254 0
v 0.0672206 -0.30535 0.0344527
vn 0 -0.0254 0
v 0.0642869 -0.268405 0.0470287
vn 0 -0.0254 0
v -0.00219226 -0.308988 0.058875
vn 0 -0.0254 0
v -0.068316 -0.294221 0.087813
vn 0 0.0254 0
v -0.0524528 -0.258819 0.0929887
vn 0 0.0254 0
v -0.0524528 -0.258819 0.0929887
vn 0 -0.0254 0
v -0.068316 -0.294221 0.087813
vn 0 -0.0254 0
v 0.122832 -0.249633 0.0313166
vn 0 0.0254 0
v 0.135191 -0.283558 0.0162105
vn 0 0.0254 0
v 0.135191 -0.283558 0.0162105
vn 0 -0.0254 0
v 0.122832 -0.249633 0.0313166
vn 0 -0.0254 0
v 0.23725 -0.103587 -0.0185888
vn -0.00393837 0 -0.0250928
v 0.176146 -0.216505 0.0219976
vn 0 0.0254 0
v 0.197089 -0.245095 0.00539136
vn 0 0.0254 0
v 0.197089 -0.245095 0.00539136
vn 0 -0.0254 0
v 0.176146 -0.216505 0.0219976
vn 0 -0.0254 0
v 0.248694 -0.192582 0.00273291
vn -0.0102987 0 -0.0232185
v 0.181188 -0.231655 -0.0377997
vn -0.0159571 0 -0.0197618
v 0.197089 -0.245095 0.00539136
vn -0.0159571 0 -0.0197618
v 0.197089 -0.245095 0.00539136
vn 0.0159571 -0 0.0197618
v 0.181188 -0.231655 -0.0377997
vn 0.0159571 -0 0.0197618
v 0.248694 -0.192582 0.00273291
vn 0.0102987 -0 0.0232185
v 0.232794 -0.179142 -0.0404582
vn -0.0102987 0 -0.0232185
v 0.232794 -0.179142 -0.0404582
vn 0.0102987 -0 0.0232185
v 0.23725 -0.103587 -0.0185888
vn 0 -0.0254 0
v 0.23725 -0.103587 -0.0185888
vn 0 0.0254 0
v 0.2287 -0.0212004 -0.0801667
vn 0.00269034 0 -0.0252571
v 0.0514345 0.0534656 -0.523321
vn -0.00393837 0 -0.0250928
v 0.210256 -0.0807714 -0.0919128
vn -0.00393837 0 -0.0250928
v 0.0698784 0.113037 -0.511575
vn 0.00269034 0 -0.0252571
v 0.231773 0.0396316 -0.0623695
vn 0.0091357 0 -0.0237002
v 0.0729513 0.173869 -0.493778
vn 0.0091357 0 -0.0237002
v 0.258766 0.016816 0.0109545
vn 0.0091357 0 -0.0237002
v 0.231773 0.0396316 -0.0623695
vn 0.0091357 0 -0.0237002
v 0.255694 -0.0440159 -0.0068427
vn 0.00269034 0 -0.0252571
v 0.0698784 0.113037 -0.511575
vn 0 -0.0254 0
v -0.232411 0.342251 -0.328966
vn 0 -0.0254 0
v -0.34451 -0.0198244 -0.40036
vn -0.0197618 0 0.0159571
v -0.145587 -0.194861 0.0035895
vn -0.0232185 0 0.0102987
v -0.185688 -0.154061 0.0310476
vn -0.0197618 0 0.0159571
v -0.118593 -0.217676 0.0769135
vn -0.0232185 0 0.0102987
v -0.0735899 0.208014 0.102442
vn 0.0205281 -0 0.0149585
v -0.0735899 0.208014 0.102442
vn 0.0205281 -0 0.0149585
v -0.046596 0.185198 0.175766
vn 0 -0.0254 0
v -0.046596 0.185198 0.175766
vn 0 0.0254 0
v 0.0943292 0.231111 0.191398
vn 0.0252571 -0 0.00269034
v 0.00901602 0.240914 0.17263
vn 0.0237002 0 0.0091357
v 0.0784286 0.244551 0.148207
vn 0.0252571 -0 0.00269034
v 0.0784286 0.244551 0.148207
vn -0.0252571 0 -0.00269034
v 0.00901602 0.240914 0.17263
vn -0.0237002 0 -0.0091357
v 0.0943292 0.231111 0.191398
vn -0.0252571 0 -0.00269034
v -0.142546 -0.248619 0.0761033
vn 0 -0.0254 0
v -0.142546 -0.248619 0.0761033
vn 0 0.0254 0
v -0.0842166 -0.280782 0.0446219
vn -0.0250928 0 0.00393837
v -0.126645 -0.262058 0.119294
vn -0.0232185 0 0.0102987
v -0.068316 -0.294221 0.087813
vn -0.0250928 0 0.00393837
v -0.068316 -0.294221 0.087813
vn 0.0250928 0 -0.00393837
v -0.126645 -0.262058 0.119294
vn 0.0232185 0 -0.0102987
v -0.0842166 -0.280782 0.0446219
vn 0.0250928 0 -0.00393837
v 0.160453 0.216346 0.162461
vn 0.0250928 0 -0.00393837
v 0.160453 0.216346 0.162461
vn -0.0250928 0 0.00393837
v 0.218782 0.184182 0.130979
vn 0.0232185 0 -0.0102987
v 0.218782 0.184182 0.130979
vn -0.0232185 0 0.0102987
v 0.0943292 0.231111 0.191398
vn 0.0252571 -0 0.00269034
v 0.0943292 0.231111 0.191398
vn -0.0252571 0 -0.00269034
v 0.281055 0.0909076 0.0258036
vn 0.0149585 0 -0.0205281
v 0.26534 0.136814 0.0990998
vn 0.0197618 0 -0.0159571
v 0.249439 0.150253 0.0559087
vn 0.0197618 0 -0.0159571
v 0.249439 0.150253 0.0559087
vn -0.0197618 0 0.0159571
v 0.26534 0.136814 0.0990998
vn -0.0197618 0 0.0159571
v 0.281055 0.0909076 0.0258036
vn -0.0149585 0 0.0205281
v 0.255694 -0.0440159 -0.0068427
vn 0 -0.0254 0
v 0.255694 -0.0440159 -0.0068427
vn 0 0.0254 0
v 0.004501 -0.271537 0.0680641
vn 0 0.0254 0
v 0.004501 -0.271537 0.0680641
vn 0 -0.0254 0
v -0.102693 -0.231115 0.120105
vn 0 0.0254 0
v -0.102693 -0.231115 0.120105
vn 0 -0.0254 0
v 0.210256 -0.0807714 -0.0919128
vn -0.00393837 0 -0.0250928
v 0.23725 -0.103587 -0.0185888
vn -0.00393837 0 -0.0250928
v 0.2287 -0.0212004 -0.0801667
vn 0.00269034 0 -0.0252571
v 0.220595 -0.171275 0.0197074
vn 0 0.0254 0
v 0.220595 -0.171275 0.0197074
vn 0 -0.0254 0
v 0.248694 -0.192582 0.00273291
vn 0 0.0254 0
v 0.248694 -0.192582 0.00273291
vn 0 -0.0254 0
v 0.286492 -0.129598 0.00841596
vn -0.00393837 0 -0.0250928
v 0.232794 -0.179142 -0.0404582
vn -0.0102987 0 -0.0232185
v 0.248694 -0.192582 0.00273291
vn -0.0102987 0 -0.0232185
v 0.248694 -0.192582 0.00273291
vn 0.0102987 -0 0.0232185
v 0.232794 -0.179142 -0.0404582
vn 0.0102987 -0 0.0232185
v 0.286492 -0.129598 0.00841596
vn 0.00393837 -0 0.0250928
v 0.0698784 0.113037 -0.511575
vn 0.00269034 0 -0.0252571
v 0.2287 -0.0212004 -0.0801667
vn 0.00269034 0 -0.0252571
v 0.2287 -0.0212004 -0.0801667
vn 0.00269034 0 -0.0252571
v -0.34451 -0.0198244 -0.40036
vn 0 -0.0254 0
v -0.371741 0.0312908 -0.37443
vn -0.0149585 0 0.0205281
v -0.185688 -0.154061 0.0310476
vn -0.0197618 0 0.0159571
v -0.34451 -0.0198244 -0.40036
vn -0.0197618 0 0.0159571
v -0.158695 -0.176877 0.104372
vn -0.0197618 0 0.0159571
v -0.0735899 0.208014 0.102442
vn 0.0205281 -0 0.0149585
v -0.285724 0.309121 -0.319647
vn 0.0159571 -0 0.0197618
v -0.232411 0.342251 -0.328966
vn 0.0205281 -0 0.0149585
v -0.046596 0.185198 0.175766
vn 0.0205281 -0 0.0149585
v -0.0999091 0.152069 0.185085
vn 0.0159571 -0 0.0197618
v -0.0735899 0.208014 0.102442
vn 0.0205281 -0 0.0149585
v -0.058955 0.219121 0.190872
vn 0 -0.0254 0
v -0.058955 0.219121 0.190872
vn 0 0.0254 0
v 0.0249166 0.227475 0.215821
vn 0.0237002 0 0.0091357
v 0.0249166 0.227475 0.215821
vn -0.0237002 0 -0.0091357
v -0.158695 -0.176877 0.104372
vn 0 -0.0254 0
v -0.158695 -0.176877 0.104372
vn 0 0.0254 0
v -0.142546 -0.248619 0.0761033
vn -0.0232185 0 0.0102987
v -0.142546 -0.248619 0.0761033
vn 0.0232185 0 -0.0102987
v -0.126645 -0.262058 0.119294
vn 0 0.0254 0
v -0.126645 -0.262058 0.119294
vn 0 -0.0254 0
v 0.19483 0.15324 0.130169
vn 0 0.0254 0
v 0.160453 0.216346 0.162461
vn 0 0.0254 0
v 0.218782 0.184182 0.130979
vn 0 0.0254 0
v 0.218782 0.184182 0.130979
vn 0 -0.0254 0
v 0.160453 0.216346 0.162461
vn 0 -0.0254 0
v 0.19483 0.15324 0.130169
vn 0 -0.0254 0
v 0.234932 0.112441 0.10271
vn 0 0.0254 0
v 0.26534 0.136814 0.0990998
vn 0 0.0254 0
v 0.26534 0.136814 0.0990998
vn 0 -0.0254 0
v 0.234932 0.112441 0.10271
vn 0 -0.0254 0
v 0.0876371 0.193662 0.182209
vn 0 0.0254 0
v 0.0943292 0.231111 0.191398
vn 0 0.0254 0
v 0.0943292 0.231111 0.191398
vn 0 -0.0254 0
v 0.0876371 0.193662 0.182209
vn 0 -0.0254 0
v 0.296955 0.0774682 0.0689946
vn 0.0149585 0 -0.0205281
v 0.296955 0.0774682 0.0689946
vn -0.0149585 0 0.0205281
v 0.295573 0.0236291 -0.000475761
vn 0 -0.0254 0
v 0.295573 0.0236291 -0.000475761
vn 0 0.0254 0
v 0.255694 -0.0440159 -0.0068427
vn 0.00269034 0 -0.0252571
v 0.25315 -0.117026 0.0246023
vn 0 0.0254 0
v 0.25315 -0.117026 0.0246023
vn 0 -0.0254 0
v 0.270591 -0.116158 -0.0347751
vn -0.00393837 0 -0.0250928
v 0.270591 -0.116158 -0.0347751
vn 0.00393837 -0 0.0250928
v 0.311474 0.0101898 0.0427153
vn 0 0.0254 0
v 0.286492 -0.129598 0.00841596
vn 0 0.0254 0
v 0.286492 -0.129598 0.00841596
vn 0 -0.0254 0
v 0.311474 0.0101898 0.0427153
vn 0 -0.0254 0
v -0.285724 0.309121 -0.319647
vn 0 -0.0254 0
v -0.21292 -0.102946 0.0569778
vn -0.0149585 0 0.0205281
v -0.371741 0.0312908 -0.37443
vn 0 -0.0254 0
v -0.126903 0.174884 0.111761
vn 0.0159571 -0 0.0197618
v -0.126903 0.174884 0.111761
vn 0.0159571 -0 0.0197618
v -0.158695 -0.176877 0.104372
vn -0.0197618 0 0.0159571
v -0.185688 -0.154061 0.0310476
vn -0.0197618 0 0.0159571
v -0.185926 -0.125762 0.130302
vn -0.0149585 0 0.0205281
v -0.0999091 0.152069 0.185085
vn 0 -0.0254 0
v -0.0999091 0.152069 0.185085
vn 0 0.0254 0
v 0.0249166 0.227475 0.215821
vn 0.0237002 0 0.0091357
v -0.058955 0.219121 0.190872
vn 0.0205281 -0 0.0149585
v 0.00901602 0.240914 0.17263
vn 0.0237002 0 0.0091357
v 0.00901602 0.240914 0.17263
vn -0.0237002 0 -0.0091357
v -0.058955 0.219121 0.190872
vn -0.0205281 0 -0.0149585
v 0.0249166 0.227475 0.215821
vn -0.0237002 0 -0.0091357
v 0.0278503 0.19053 0.203245
vn 0 0.0254 0
v 0.0249166 0.227475 0.215821
vn 0 0.0254 0
v 0.0249166 0.227475 0.215821
vn 0 -0.0254 0
v 0.0278503 0.19053 0.203245
vn 0 -0.0254 0
v -0.189103 -0.20125 0.107983
vn 0 -0.0254 0
v -0.189103 -0.20125 0.107983
vn 0 0.0254 0
v -0.142546 -0.248619 0.0761033
vn -0.0232185 0 0.0102987
v -0.173203 -0.214689 0.151174
vn -0.0197618 0 0.0159571
v -0.126645 -0.262058 0.119294
vn -0.0232185 0 0.0102987
v -0.126645 -0.262058 0.119294
vn 0.0232185 0 -0.0102987
v -0.173203 -0.214689 0.151174
vn 0.0197618 0 -0.0159571
v -0.142546 -0.248619 0.0761033
vn 0.0232185 0 -0.0102987
v -0.142794 -0.190316 0.147563
vn 0 0.0254 0
v -0.142794 -0.190316 0.147563
vn 0 -0.0254 0
v 0.14459 0.180944 0.157285
vn 0 0.0254 0
v 0.14459 0.180944 0.157285
vn 0 -0.0254 0
v 0.262163 0.0613257 0.0767802
vn 0 0.0254 0
v 0.262163 0.0613257 0.0767802
vn 0 -0.0254 0
v 0.295573 0.0236291 -0.000475761
vn 0.0091357 0 -0.0237002
v 0.296955 0.0774682 0.0689946
vn 0.0149585 0 -0.0205281
v 0.281055 0.0909076 0.0258036
vn 0.0149585 0 -0.0205281
v 0.281055 0.0909076 0.0258036
vn -0.0149585 0 0.0205281
v 0.296955 0.0774682 0.0689946
vn -0.0149585 0 0.0205281
v 0.295573 0.0236291 -0.000475761
vn -0.0091357 0 0.0237002
v 0.296955 0.0774682 0.0689946
vn 0 0.0254 0
v 0.296955 0.0774682 0.0689946
vn 0 -0.0254 0
v 0.271594 -0.0574552 0.0363484
vn 0 0.0254 0
v 0.271594 -0.0574552 0.0363484
vn 0 -0.0254 0
v 0.307904 -0.0604369 0.0220533
vn 0.00269034 0 -0.0252571
v 0.270591 -0.116158 -0.0347751
vn -0.00393837 0 -0.0250928
v 0.286492 -0.129598 0.00841596
vn -0.00393837 0 -0.0250928
v 0.286492 -0.129598 0.00841596
vn 0.00393837 -0 0.0250928
v 0.270591 -0.116158 -0.0347751
vn 0.00393837 -0 0.0250928
v 0.307904 -0.0604369 0.0220533
vn -0.00269034 0 0.0252571
v 0.270591 -0.116158 -0.0347751
vn 0 -0.0254 0
v 0.270591 -0.116158 -0.0347751
vn 0 0.0254 0
v 0.307904 -0.0604369 0.0220533
vn 0 0.0254 0
v 0.307904 -0.0604369 0.0220533
vn 0 -0.0254 0
v -0.384247 0.0892393 -0.351795
vn -0.0091357 0 0.0237002
v -0.21292 -0.102946 0.0569778
vn -0.0149585 0 0.0205281
v -0.371741 0.0312908 -0.37443
vn -0.0149585 0 0.0205281
v -0.21292 -0.102946 0.0569778
vn -0.0149585 0 0.0205281
v -0.330173 0.263891 -0.317357
vn 0 -0.0254 0
v -0.171352 0.129654 0.114051
vn 0.0102987 -0 0.0232185
v -0.285724 0.309121 -0.319647
vn 0.0159571 -0 0.0197618
v -0.126903 0.174884 0.111761
vn 0.0159571 -0 0.0197618
v -0.126903 0.174884 0.111761
vn 0.0159571 -0 0.0197618
v -0.0999091 0.152069 0.185085
vn 0.0159571 -0 0.0197618
v -0.171352 0.129654 0.114051
vn 0.0102987 -0 0.0232185
v -0.185926 -0.125762 0.130302
vn 0 -0.0254 0
v -0.185926 -0.125762 0.130302
vn 0 0.0254 0
v -0.120853 0.180658 0.201691
vn 0 -0.0254 0
v -0.120853 0.180658 0.201691
vn 0 0.0254 0
v -0.0430543 0.205682 0.234063
vn 0.0205281 -0 0.0149585
v -0.0430543 0.205682 0.234063
vn -0.0205281 0 -0.0149585
v -0.0306953 0.171759 0.218957
vn 0 0.0254 0
v -0.0306953 0.171759 0.218957
vn 0 -0.0254 0
v -0.189103 -0.20125 0.107983
vn -0.0197618 0 0.0159571
v -0.189103 -0.20125 0.107983
vn 0.0197618 0 -0.0159571
v -0.173203 -0.214689 0.151174
vn 0 0.0254 0
v -0.173203 -0.214689 0.151174
vn 0 -0.0254 0
v 0.311474 0.0101898 0.0427153
vn 0.0091357 0 -0.0237002
v 0.311474 0.0101898 0.0427153
vn -0.0091357 0 0.0237002
v 0.274667 0.00337671 0.0541456
vn 0 0.0254 0
v 0.274667 0.00337671 0.0541456
vn 0 -0.0254 0
v 0.292003 -0.0469975 -0.0211378
vn 0.00269034 0 -0.0252571
v 0.292003 -0.0469975 -0.0211378
vn -0.00269034 0 0.0252571
v 0.292003 -0.0469975 -0.0211378
vn 0 -0.0254 0
v 0.292003 -0.0469975 -0.0211378
vn 0 0.0254 0
v 0.311474 0.0101898 0.0427153
vn 0.0091357 0 -0.0237002
v 0.292003 -0.0469975 -0.0211378
vn 0.00269034 0 -0.0252571
v 0.307904 -0.0604369 0.0220533
vn 0.00269034 0 -0.0252571
v 0.307904 -0.0604369 0.0220533
vn -0.00269034 0 0.0252571
v 0.292003 -0.0469975 -0.0211378
vn -0.00269034 0 0.0252571
v 0.311474 0.0101898 0.0427153
vn -0.0091357 0 0.0237002
v -0.225426 -0.0449977 0.079613
vn -0.0091357 0 0.0237002
v -0.384247 0.0892393 -0.351795
vn 0 -0.0254 0
v -0.185926 -0.125762 0.130302
vn -0.0149585 0 0.0205281
v -0.21292 -0.102946 0.0569778
vn -0.0149585 0 0.0205281
v -0.198432 -0.0678133 0.152937
vn -0.0091357 0 0.0237002
v -0.330173 0.263891 -0.317357
vn 0.0102987 -0 0.0232185
v -0.144358 0.106839 0.187375
vn 0.0102987 -0 0.0232185
v -0.198432 -0.0678133 0.152937
vn 0 -0.0254 0
v -0.198432 -0.0678133 0.152937
vn 0 0.0254 0
v -0.144358 0.106839 0.187375
vn 0 -0.0254 0
v -0.144358 0.106839 0.187375
vn 0 0.0254 0
v -0.0430543 0.205682 0.234063
vn 0.0205281 -0 0.0149585
v -0.120853 0.180658 0.201691
vn 0.0159571 -0 0.0197618
v -0.058955 0.219121 0.190872
vn 0.0205281 -0 0.0149585
v -0.058955 0.219121 0.190872
vn -0.0205281 0 -0.0149585
v -0.120853 0.180658 0.201691
vn -0.0159571 0 -0.0197618
v -0.0430543 0.205682 0.234063
vn -0.0205281 0 -0.0149585
v -0.0430543 0.205682 0.234063
vn 0 0.0254 0
v -0.0430543 0.205682 0.234063
vn 0 -0.0254 0
v -0.22072 -0.141904 0.138088
vn -0.0149585 0 0.0205281
v -0.173203 -0.214689 0.151174
vn -0.0197618 0 0.0159571
v -0.189103 -0.20125 0.107983
vn -0.0197618 0 0.0159571
v -0.189103 -0.20125 0.107983
vn 0.0197618 0 -0.0159571
v -0.173203 -0.214689 0.151174
vn 0.0197618 0 -0.0159571
v -0.22072 -0.141904 0.138088
vn 0.0149585 0 -0.0205281
v -0.170025 -0.139201 0.173493
vn 0 0.0254 0
v -0.170025 -0.139201 0.173493
vn 0 -0.0254 0
v 0.295573 0.0236291 -0.000475761
vn 0.0091357 0 -0.0237002
v 0.295573 0.0236291 -0.000475761
vn -0.0091357 0 0.0237002
v -0.381172 0.150073 -0.333998
vn -0.00269034 0 0.0252571
v -0.225426 -0.0449977 0.079613
vn -0.0091357 0 0.0237002
v -0.384247 0.0892393 -0.351795
vn -0.0091357 0 0.0237002
v -0.225426 -0.0449977 0.079613
vn -0.0091357 0 0.0237002
v -0.362729 0.209643 -0.322252
vn 0 -0.0254 0
v -0.203908 0.075406 0.109156
vn 0.00393837 -0 0.0250928
v -0.330173 0.263891 -0.317357
vn 0.0102987 -0 0.0232185
v -0.171352 0.129654 0.114051
vn 0.0102987 -0 0.0232185
v -0.171352 0.129654 0.114051
vn 0.0102987 -0 0.0232185
v -0.144358 0.106839 0.187375
vn 0.0102987 -0 0.0232185
v -0.203908 0.075406 0.109156
vn 0.00393837 -0 0.0250928
v -0.22072 -0.141904 0.138088
vn 0 -0.0254 0
v -0.22072 -0.141904 0.138088
vn 0 0.0254 0
v -0.176914 0.0525905 0.18248
vn 0 -0.0254 0
v -0.176914 0.0525905 0.18248
vn 0 0.0254 0
v -0.104952 0.167218 0.244882
vn 0.0159571 -0 0.0197618
v -0.104952 0.167218 0.244882
vn -0.0159571 0 -0.0197618
v -0.0840085 0.138629 0.228276
vn 0 0.0254 0
v -0.0840085 0.138629 0.228276
vn 0 -0.0254 0
v -0.204819 -0.155343 0.181279
vn -0.0149585 0 0.0205281
v -0.204819 -0.155343 0.181279
vn 0.0149585 0 -0.0205281
v -0.182531 -0.0812526 0.196128
vn 0 0.0254 0
v -0.182531 -0.0812526 0.196128
vn 0 -0.0254 0
v -0.22235 0.0158357 0.0974098
vn -0.00269034 0 0.0252571
v -0.381172 0.150073 -0.333998
vn 0 -0.0254 0
v -0.198432 -0.0678133 0.152937
vn -0.0091357 0 0.0237002
v -0.225426 -0.0449977 0.079613
vn -0.0091357 0 0.0237002
v -0.195356 -0.00697978 0.170734
vn -0.00269034 0 0.0252571
v -0.362729 0.209643 -0.322252
vn 0.00393837 -0 0.0250928
v -0.176914 0.0525905 0.18248
vn 0.00393837 -0 0.0250928
v -0.195356 -0.00697978 0.170734
vn 0 -0.0254 0
v -0.195356 -0.00697978 0.170734
vn 0 0.0254 0
v -0.172458 0.128146 0.204349
vn 0 -0.0254 0
v -0.172458 0.128146 0.204349
vn 0 0.0254 0
v -0.104952 0.167218 0.244882
vn 0 0.0254 0
v -0.104952 0.167218 0.244882
vn 0 -0.0254 0
v -0.156557 0.114707 0.247541
vn 0.0102987 -0 0.0232185
v -0.120853 0.180658 0.201691
vn 0.0159571 -0 0.0197618
v -0.104952 0.167218 0.244882
vn 0.0159571 -0 0.0197618
v -0.104952 0.167218 0.244882
vn -0.0159571 0 -0.0197618
v -0.120853 0.180658 0.201691
vn -0.0159571 0 -0.0197618
v -0.156557 0.114707 0.247541
vn -0.0102987 0 -0.0232185
v -0.235237 -0.0746246 0.164367
vn -0.0091357 0 0.0237002
v -0.204819 -0.155343 0.181279
vn -0.0149585 0 0.0205281
v -0.22072 -0.141904 0.138088
vn -0.0149585 0 0.0205281
v -0.22072 -0.141904 0.138088
vn 0.0149585 0 -0.0205281
v -0.204819 -0.155343 0.181279
vn 0.0149585 0 -0.0205281
v -0.235237 -0.0746246 0.164367
vn 0.0091357 0 -0.0237002
v -0.204819 -0.155343 0.181279
vn 0 0.0254 0
v -0.204819 -0.155343 0.181279
vn 0 -0.0254 0
v -0.362729 0.209643 -0.322252
vn 0.00393837 -0 0.0250928
v -0.22235 0.0158357 0.0974098
vn -0.00269034 0 0.0252571
v -0.381172 0.150073 -0.333998
vn -0.00269034 0 0.0252571
v -0.22235 0.0158357 0.0974098
vn -0.00269034 0 0.0252571
v -0.203908 0.075406 0.109156
vn 0.00393837 -0 0.0250928
v -0.203908 0.075406 0.109156
vn 0.00393837 -0 0.0250928
v -0.176914 0.0525905 0.18248
vn 0.00393837 -0 0.0250928
v -0.22235 0.0158357 0.0974098
vn -0.00269034 0 0.0252571
v -0.172458 0.128146 0.204349
vn 0.0102987 -0 0.0232185
v -0.172458 0.128146 0.204349
vn -0.0102987 0 -0.0232185
v -0.128457 0.0933992 0.230566
vn 0 0.0254 0
v -0.128457 0.0933992 0.230566
vn 0 -0.0254 0
v -0.161013 0.0391511 0.225671
vn 0 0.0254 0
v -0.156557 0.114707 0.247541
vn 0 0.0254 0
v -0.156557 0.114707 0.247541
vn 0 -0.0254 0
v -0.161013 0.0391511 0.225671
vn 0 -0.0254 0
v -0.219336 -0.088064 0.207558
vn -0.0091357 0 0.0237002
v -0.219336 -0.088064 0.207558
vn 0.0091357 0 -0.0237002
v -0.235237 -0.0746246 0.164367
vn 0 -0.0254 0
v -0.235237 -0.0746246 0.164367
vn 0 0.0254 0
v -0.179456 -0.0204191 0.213925
vn 0 0.0254 0
v -0.179456 -0.0204191 0.213925
vn 0 -0.0254 0
v -0.195356 -0.00697978 0.170734
vn -0.00269034 0 0.0252571
v -0.194355 0.0517234 0.241858
vn 0.00393837 -0 0.0250928
v -0.172458 0.128146 0.204349
vn 0.0102987 -0 0.0232185
v -0.156557 0.114707 0.247541
vn 0.0102987 -0 0.0232185
v -0.156557 0.114707 0.247541
vn -0.0102987 0 -0.0232185
v -0.172458 0.128146 0.204349
vn -0.0102987 0 -0.0232185
v -0.194355 0.0517234 0.241858
vn -0.00393837 0 -0.0250928
v -0.231668 -0.00399874 0.185029
vn -0.00269034 0 0.0252571
v -0.219336 -0.088064 0.207558
vn -0.0091357 0 0.0237002
v -0.235237 -0.0746246 0.164367
vn -0.0091357 0 0.0237002
v -0.235237 -0.0746246 0.164367
vn 0.0091357 0 -0.0237002
v -0.219336 -0.088064 0.207558
vn 0.0091357 0 -0.0237002
v -0.231668 -0.00399874 0.185029
vn 0.00269034 0 -0.0252571
v -0.219336 -0.088064 0.207558
vn 0 0.0254 0
v -0.219336 -0.088064 0.207558
vn 0 -0.0254 0
v -0.210255 0.0651628 0.198667
vn 0 -0.0254 0
v -0.210255 0.0651628 0.198667
vn 0 0.0254 0
v -0.210255 0.0651628 0.198667
vn 0.00393837 -0 0.0250928
v -0.210255 0.0651628 0.198667
vn -0.00393837 0 -0.0250928
v -0.194355 0.0517234 0.241858
vn 0 0.0254 0
v -0.194355 0.0517234 0.241858
vn 0 -0.0254 0
v -0.215768 -0.0174381 0.228221
vn -0.00269034 0 0.0252571
v -0.215768 -0.0174381 0.228221
vn 0.00269034 0 -0.0252571
v -0.231668 -0.00399874 0.185029
vn 0 -0.0254 0
v -0.231668 -0.00399874 0.185029
vn 0 0.0254 0
v -0.215768 -0.0174381 0.228221
vn -0.00269034 0 0.0252571
v -0.210255 0.0651628 0.198667
vn 0.00393837 -0 0.0250928
v -0.194355 0.0517234 0.241858
vn 0.00393837 -0 0.0250928
v -0.194355 0.0517234 0.241858
vn -0.00393837 0 -0.0250928
v -0.210255 0.0651628 0.198667
vn -0.00393837 0 -0.0250928
v -0.215768 -0.0174381 0.228221
vn 0.00269034 0 -0.0252571
v -0.215768 -0.0174381 0.228221
vn 0 0.0254 0
v -0.215768 -0.0174381 0.228221
vn 0 -0.0254 0
v -0.231668 -0.00399874 0.185029
vn -0.00269034 0 0.0252571
v -0.231668 -0.00399874 0.185029
vn 0.00269034 0 -0.0252571
v -0.137429 -0.0979129 -0.500894
vn 0.0237002 0 0.0091357
v -0.0788839 -0.0791411 -0.516607
vn 0.0205281 -0 0.0149585
v 0.0213923 -0.23215 -0.0694864
vn 0.0237002 0 0.0091357
v 0.0799373 -0.213378 -0.0851985
vn 0.0205281 -0 0.0149585
v -0.0788839 -0.0791411 -0.516607
vn 0 0.0254 0
v -0.137429 -0.0979129 -0.500894
vn 0 0.0254 0
v -0.00688582 0.323732 -0.417754
vn 0 0.0254 0
v -0.0383936 -0.235282 -0.048451
vn 0.0252571 -0 0.00269034
v 0.0799373 -0.213378 -0.0851985
vn 0 -0.0254 0
v 0.151935 0.189495 0.0136538
vn 0 -0.0254 0
v 0.0213923 -0.23215 -0.0694864
vn 0 -0.0254 0
v -0.0255702 -0.0460127 -0.525926
vn 0.0159571 -0 0.0197618
v -0.0571258 0.351436 -0.390638
vn 0 0.0254 0
v 0.0332162 0.282933 -0.445213
vn 0 0.0254 0
v -0.197215 -0.101045 -0.479859
vn 0.0252571 -0 0.00269034
v 0.101695 0.217199 0.0407696
vn 0 -0.0254 0
v -0.0383936 -0.235282 -0.048451
vn 0 -0.0254 0
v 0.192037 0.148696 -0.0138047
vn 0 -0.0254 0
v 0.133251 -0.18025 -0.0945175
vn 0.0159571 -0 0.0197618
v -0.0255702 -0.0460127 -0.525926
vn 0 0.0254 0
v -0.197215 -0.101045 -0.479859
vn 0 0.0254 0
v -0.00688582 0.323732 -0.417754
vn -0.0232185 0 0.0102987
v -0.0571258 0.351436 -0.390638
vn -0.0250928 0 0.00393837
v 0.151935 0.189495 0.0136538
vn -0.0232185 0 0.0102987
v 0.0332162 0.282933 -0.445213
vn -0.0197618 0 0.0159571
v 0.192037 0.148696 -0.0138047
vn -0.0197618 0 0.0159571
v -0.0953474 -0.222564 -0.0235264
vn 0.0250928 0 -0.00393837
v 0.0447425 0.229916 0.0656939
vn 0 -0.0254 0
v 0.101695 0.217199 0.0407696
vn -0.0250928 0 0.00393837
v 0.133251 -0.18025 -0.0945175
vn 0 -0.0254 0
v 0.177701 -0.13502 -0.0968077
vn 0.0102987 -0 0.0232185
v 0.0604475 0.231818 -0.471143
vn 0 0.0254 0
v -0.114079 0.364153 -0.365714
vn 0 0.0254 0
v 0.0604475 0.231818 -0.471143
vn -0.0149585 0 0.0205281
v -0.254169 -0.088327 -0.454934
vn 0.0250928 0 -0.00393837
v -0.0953474 -0.222564 -0.0235264
vn 0 -0.0254 0
v 0.0447425 0.229916 0.0656939
vn -0.0252571 0 -0.00269034
v -0.114079 0.364153 -0.365714
vn -0.0252571 0 -0.00269034
v 0.219269 0.0975806 -0.0397349
vn 0 -0.0254 0
v 0.0188796 -0.00078265 -0.528216
vn 0.0102987 -0 0.0232185
v 0.177701 -0.13502 -0.0968077
vn 0 -0.0254 0
v 0.0188796 -0.00078265 -0.528216
vn 0 0.0254 0
v -0.254169 -0.088327 -0.454934
vn 0 0.0254 0
v 0.219269 0.0975806 -0.0397349
vn -0.0149585 0 0.0205281
v -0.145587 -0.194861 0.0035895
vn 0.0232185 0 -0.0102987
v -0.0150443 0.226784 0.0867297
vn 0 -0.0254 0
v -0.173866 0.361021 -0.344678
vn -0.0237002 0 -0.0091357
v 0.210256 -0.0807714 -0.0919128
vn 0.00393837 -0 0.0250928
v 0.231773 0.0396316 -0.0623695
vn 0 -0.0254 0
v 0.0729513 0.173869 -0.493778
vn 0 0.0254 0
v -0.173866 0.361021 -0.344678
vn 0 0.0254 0
v 0.0729513 0.173869 -0.493778
vn -0.0091357 0 0.0237002
v -0.304409 -0.0606236 -0.427819
vn 0.0232185 0 -0.0102987
v -0.145587 -0.194861 0.0035895
vn 0 -0.0254 0
v -0.0150443 0.226784 0.0867297
vn -0.0237002 0 -0.0091357
v 0.0514345 0.0534656 -0.523321
vn 0.00393837 -0 0.0250928
v 0.210256 -0.0807714 -0.0919128
vn 0 -0.0254 0
v 0.231773 0.0396316 -0.0623695
vn -0.0091357 0 0.0237002
v 0.0514345 0.0534656 -0.523321
vn 0 0.0254 0
v -0.304409 -0.0606236 -0.427819
vn 0 0.0254 0
v -0.185688 -0.154061 0.0310476
vn 0.0197618 0 -0.0159571
v -0.0735899 0.208014 0.102442
vn 0 -0.0254 0
v -0.232411 0.342251 -0.328966
vn -0.0205281 0 -0.0149585
v 0.2287 -0.0212004 -0.0801667
vn -0.00269034 0 0.0252571
v 0.2287 -0.0212004 -0.0801667
vn 0 -0.0254 0
v 0.0698784 0.113037 -0.511575
vn -0.00269034 0 0.0252571
v 0.0698784 0.113037 -0.511575
vn 0 0.0254 0
v -0.232411 0.342251 -0.328966
vn 0 0.0254 0
v -0.34451 -0.0198244 -0.40036
vn 0.0197618 0 -0.0159571
v -0.185688 -0.154061 0.0310476
vn 0 -0.0254 0
v -0.0735899 0.208014 0.102442
vn -0.0205281 0 -0.0149585
v -0.34451 -0.0198244 -0.40036
vn 0 0.0254 0
v -0.371741 0.0312908 -0.37443
vn 0.0149585 0 -0.0205281
v -0.126903 0.174884 0.111761
vn 0 -0.0254 0
v -0.285724 0.309121 -0.319647
vn -0.0159571 0 -0.0197618
v -0.285724 0.309121 -0.319647
vn 0 0.0254 0
v -0.21292 -0.102946 0.0569778
vn 0.0149585 0 -0.0205281
v -0.371741 0.0312908 -0.37443
vn 0 0.0254 0
v -0.21292 -0.102946 0.0569778
vn 0 -0.0254 0
v -0.126903 0.174884 0.111761
vn -0.0159571 0 -0.0197618
v -0.384247 0.0892393 -0.351795
vn 0.0091357 0 -0.0237002
v -0.330173 0.263891 -0.317357
vn 0 0.0254 0
v -0.171352 0.129654 0.114051
vn 0 -0.0254 0
v -0.171352 0.129654 0.114051
vn -0.0102987 0 -0.0232185
v -0.225426 -0.0449977 0.079613
vn 0.0091357 0 -0.0237002
v -0.384247 0.0892393 -0.351795
vn 0 0.0254 0
v -0.330173 0.263891 -0.317357
vn -0.0102987 0 -0.0232185
v -0.225426 -0.0449977 0.079613
vn 0 -0.0254 0
v -0.381172 0.150073 -0.333998
vn 0.00269034 0 -0.0252571
v -0.362729 0.209643 -0.322252
vn 0 0.0254 0
v -0.203908 0.075406 0.109156
vn -0.00393837 0 -0.0250928
v -0.203908 0.075406 0.109156
vn 0 -0.0254 0
v -0.22235 0.0158357 0.0974098
vn 0.00269034 0 -0.0252571
v -0.381172 0.150073 -0.333998
vn 0 0.0254 0
v -0.362729 0.209643 -0.322252
vn -0.00393837 0 -0.0250928
v -0.22235 0.0158357 0.0974098
vn 0 -0.0254 0
v 0.0213923 -0.23215 -0.0694864
vn 0 0.0254 0
v 0.151935 0.189495 0.0136538
vn 0 0.0254 0
v 0.0799373 -0.213378 -0.0851985
vn 0 0.0254 0
v -0.0383936 -0.235282 -0.048451
vn 0 0.0254 0
v 0.101695 0.217199 0.0407696
vn 0 0.0254 0
v 0.192037 0.148696 -0.0138047
vn 0 0.0254 0
v 0.0447425 0.229916 0.0656939
vn 0 0.0254 0
v 0.133251 -0.18025 -0.0945175
vn 0 0.0254 0
v -0.0953474 -0.222564 -0.0235264
vn 0 0.0254 0
v 0.219269 0.0975806 -0.0397349
vn 0 0.0254 0
v 0.177701 -0.13502 -0.0968077
vn 0 0.0254 0
v -0.0150443 0.226784 0.0867297
vn 0 0.0254 0
v 0.231773 0.0396316 -0.0623695
vn 0 0.0254 0
v -0.145587 -0.194861 0.0035895
vn 0 0.0254 0
v 0.210256 -0.0807714 -0.0919128
vn 0 0.0254 0
v -0.0735899 0.208014 0.102442
vn 0 0.0254 0
v 0.2287 -0.0212004 -0.0801667
vn 0 0.0254 0
v -0.185688 -0.154061 0.0310476
vn 0 0.0254 0
v -0.126903 0.174884 0.111761
vn 0 0.0254 0
v -0.21292 -0.102946 0.0569778
vn 0 0.0254 0
v -0.171352 0.129654 0.114051
vn 0 0.0254 0
v -0.225426 -0.0449977 0.079613
vn 0 0.0254 0
v -0.203908 0.075406 0.109156
vn 0 0.0254 0
v -0.22235 0.0158357 0.0974098
vn 0 0.0254 0
v 0.106931 -0.236194 -0.0118744
vn 0.0205281 -0 0.0149585
v 0.0213923 -0.23215 -0.0694864
vn 0.0237002 0 0.0091357
v 0.0799373 -0.213378 -0.0851985
vn 0.0205281 -0 0.0149585
v 0.0483863 -0.254965 0.00383763
vn 0.0237002 0 0.0091357
v -0.0383936 -0.235282 -0.048451
vn 0.0252571 -0 0.00269034
v 0.160245 -0.203065 -0.0211935
vn 0.0159571 -0 0.0197618
v -0.0113996 -0.258098 0.024873
vn 0.0252571 -0 0.00269034
v 0.128689 0.194383 0.114094
vn -0.0250928 0 0.00393837
v 0.151935 0.189495 0.0136538
vn -0.0232185 0 0.0102987
v 0.101695 0.217199 0.0407696
vn -0.0250928 0 0.00393837
v 0.178929 0.16668 0.0869778
vn -0.0232185 0 0.0102987
v 0.192037 0.148696 -0.0138047
vn -0.0197618 0 0.0159571
v 0.133251 -0.18025 -0.0945175
vn 0.0159571 -0 0.0197618
v -0.0953474 -0.222564 -0.0235264
vn 0.0250928 0 -0.00393837
v 0.0717365 0.207101 0.139018
vn -0.0252571 0 -0.00269034
v 0.0447425 0.229916 0.0656939
vn -0.0252571 0 -0.00269034
v 0.219031 0.12588 0.0595193
vn -0.0197618 0 0.0159571
v 0.177701 -0.13502 -0.0968077
vn 0.0102987 -0 0.0232185
v -0.0683534 -0.24538 0.0497977
vn 0.0250928 0 -0.00393837
v 0.0119497 0.203969 0.160054
vn -0.0237002 0 -0.0091357
v 0.246263 0.0747651 0.0335891
vn -0.0149585 0 0.0205281
v 0.219269 0.0975806 -0.0397349
vn -0.0149585 0 0.0205281
v 0.204695 -0.157835 -0.0234837
vn 0.0102987 -0 0.0232185
v -0.145587 -0.194861 0.0035895
vn 0.0232185 0 -0.0102987
v -0.0150443 0.226784 0.0867297
vn -0.0237002 0 -0.0091357
v 0.258766 0.016816 0.0109545
vn -0.0091357 0 0.0237002
v 0.210256 -0.0807714 -0.0919128
vn 0.00393837 -0 0.0250928
v 0.231773 0.0396316 -0.0623695
vn -0.0091357 0 0.0237002
v -0.118593 -0.217676 0.0769135
vn 0.0232185 0 -0.0102987
v -0.046596 0.185198 0.175766
vn -0.0205281 0 -0.0149585
v 0.23725 -0.103587 -0.0185888
vn 0.00393837 -0 0.0250928
v 0.255694 -0.0440159 -0.0068427
vn -0.00269034 0 0.0252571
v -0.185688 -0.154061 0.0310476
vn 0.0197618 0 -0.0159571
v -0.0735899 0.208014 0.102442
vn -0.0205281 0 -0.0149585
v 0.2287 -0.0212004 -0.0801667
vn -0.00269034 0 0.0252571
v -0.158695 -0.176877 0.104372
vn 0.0197618 0 -0.0159571
v -0.0999091 0.152069 0.185085
vn -0.0159571 0 -0.0197618
v -0.126903 0.174884 0.111761
vn -0.0159571 0 -0.0197618
v -0.185926 -0.125762 0.130302
vn 0.0149585 0 -0.0205281
v -0.21292 -0.102946 0.0569778
vn 0.0149585 0 -0.0205281
v -0.171352 0.129654 0.114051
vn -0.0102987 0 -0.0232185
v -0.198432 -0.0678133 0.152937
vn 0.0091357 0 -0.0237002
v -0.144358 0.106839 0.187375
vn -0.0102987 0 -0.0232185
v -0.225426 -0.0449977 0.079613
vn 0.0091357 0 -0.0237002
v -0.203908 0.075406 0.109156
vn -0.00393837 0 -0.0250928
v -0.195356 -0.00697978 0.170734
vn 0.00269034 0 -0.0252571
v -0.176914 0.0525905 0.18248
vn -0.00393837 0 -0.0250928
v -0.22235 0.0158357 0.0974098
vn 0.00269034 0 -0.0252571
f 1//1 2//2 3//3
f 2//2 1//1 4//4
f 5//5 6//6 7//7
f 8//8 9//9 10//10
f 11//11 12//12 13//13
f 14//14 15//15 16//16
f 17//17 6//6 5//5
f 5//5 7//7 18//18
f 9//9 8//8 19//19
f 20//20 21//21 22//22
f 23//23 13//13 12//12
f 24//24 25//25 26//26
f 15//15 14//14 27//27
f 18//18 7//7 28//28
f 17//17 29//29 6//6
f 30//30 31//31 32//32
f 33//33 34//34 35//35
f 36//36 37//37 38//38
f 39//39 22//22 21//21
f 31//31 30//30 40//40
f 41//41 42//42 43//43
f 34//34 33//33 44//44
f 45//45 46//46 47//47
f 48//48 49//49 50//50
f 51//51 52//52 53//53
f 54//54 26//26 25//25
f 50//50 55//55 56//56
f 57//57 58//58 51//51
f 59//59 60//60 61//61
f 18//18 28//28 62//62
f 63//63 29//29 17//17
f 64//64 65//65 66//66
f 37//37 36//36 67//67
f 68//68 69//69 70//70
f 71//71 72//72 73//73
f 74//74 75//75 76//76
f 77//77 78//78 48//48
f 53//53 79//79 80//80
f 72//72 71//71 81//81
f 82//82 43//43 42//42
f 83//83 76//76 75//75
f 84//84 47//47 46//46
f 48//48 78//78 49//49
f 52//52 79//79 53//53
f 50//50 49//49 55//55
f 58//58 52//52 51//51
f 85//85 86//86 87//87
f 56//56 55//55 88//88
f 89//89 58//58 57//57
f 60//60 59//59 90//90
f 62//62 28//28 91//91
f 63//63 92//92 29//29
f 65//65 64//64 93//93
f 94//94 95//95 96//96
f 97//97 70//70 69//69
f 98//98 99//99 100//100
f 101//101 102//102 103//103
f 104//104 78//78 77//77
f 80//80 79//79 105//105
f 106//106 107//107 108//108
f 109//109 110//110 111//111
f 106//106 112//112 107//107
f 110//110 113//113 111//111
f 114//114 108//108 115//115
f 116//116 109//109 117//117
f 118//118 119//119 120//120
f 121//121 120//120 119//119
f 122//122 123//123 124//124
f 125//125 126//126 127//127
f 128//128 129//129 130//130
f 131//131 132//132 133//133
f 134//134 87//87 86//86
f 135//135 136//136 137//137
f 138//138 139//139 140//140
f 56//56 88//88 141//141
f 142//142 89//89 57//57
f 143//143 144//144 145//145
f 62//62 91//91 146//146
f 147//147 92//92 63//63
f 148//148 149//149 150//150
f 95//95 94//94 151//151
f 152//152 153//153 154//154
f 99//99 98//98 155//155
f 156//156 103//103 102//102
f 157//157 158//158 112//112
f 113//113 159//159 160//160
f 104//104 161//161 78//78
f 79//79 162//162 105//105
f 106//106 108//108 114//114
f 117//117 109//109 111//111
f 157//157 112//112 106//106
f 111//111 113//113 160//160
f 114//114 115//115 163//163
f 164//164 116//116 117//117
f 163//163 115//115 165//165
f 166//166 116//116 164//164
f 167//167 168//168 169//169
f 123//123 122//122 170//170
f 171//171 127//127 126//126
f 172//172 173//173 174//174
f 175//175 176//176 177//177
f 129//129 128//128 178//178
f 179//179 133//133 132//132
f 180//180 181//181 182//182
f 136//136 135//135 183//183
f 184//184 140//140 139//139
f 141//141 88//88 185//185
f 186//186 89//89 142//142
f 144//144 143//143 187//187
f 149//149 148//148 188//188
f 189//189 169//169 168//168
f 146//146 91//91 190//190
f 147//147 191//191 92//92
f 192//192 193//193 194//194
f 195//195 154//154 153//153
f 196//196 197//197 198//198
f 199//199 200//200 201//201
f 202//202 158//158 157//157
f 160//160 159//159 203//203
f 204//204 161//161 104//104
f 105//105 162//162 205//205
f 173//173 172//172 206//206
f 207//207 177//177 176//176
f 208//208 209//209 210//210
f 211//211 212//212 213//213
f 214//214 215//215 216//216
f 217//217 218//218 219//219
f 220//220 221//221 222//222
f 223//223 224//224 225//225
f 163//163 165//165 226//226
f 227//227 166//166 164//164
f 226//226 165//165 228//228
f 229//229 166//166 227//227
f 230//230 231//231 232//232
f 233//233 234//234 235//235
f 236//236 237//237 230//230
f 235//235 238//238 239//239
f 232//232 240//240 241//241
f 242//242 243//243 233//233
f 244//244 182//182 181//181
f 241//241 245//245 246//246
f 247//247 248//248 242//242
f 249//249 250//250 251//251
f 252//252 253//253 254//254
f 250//250 249//249 255//255
f 256//256 254//254 253//253
f 141//141 185//185 257//257
f 258//258 186//186 142//142
f 259//259 260//260 261//261
f 262//262 263//263 264//264
f 265//265 266//266 267//267
f 146//146 190//190 268//268
f 269//269 191//191 147//147
f 193//193 192//192 270//270
f 271//271 272//272 273//273
f 197//197 196//196 274//274
f 275//275 201//201 200//200
f 202//202 276//276 158//158
f 159//159 277//277 203//203
f 278//278 279//279 280//280
f 281//281 282//282 283//283
f 204//204 284//284 161//161
f 162//162 285//285 205//205
f 286//286 287//287 288//288
f 289//289 290//290 291//291
f 209//209 208//208 292//292
f 293//293 213//213 212//212
f 221//221 220//220 294//294
f 295//295 225//225 224//224
f 215//215 214//214 296//296
f 297//297 219//219 218//218
f 298//298 299//299 300//300
f 301//301 302//302 303//303
f 226//226 228//228 304//304
f 305//305 229//229 227//227
f 230//230 306//306 231//231
f 234//234 307//307 235//235
f 232//232 231//231 240//240
f 243//243 234//234 233//233
f 236//236 308//308 237//237
f 238//238 309//309 239//239
f 230//230 237//237 306//306
f 307//307 238//238 235//235
f 241//241 240//240 245//245
f 248//248 243//243 242//242
f 310//310 311//311 312//312
f 246//246 245//245 313//313
f 314//314 248//248 247//247
f 246//246 313//313 315//315
f 316//316 314//314 247//247
f 317//317 318//318 319//319
f 320//320 321//321 322//322
f 257//257 185//185 304//304
f 305//305 186//186 258//258
f 260//260 259//259 323//323
f 263//263 262//262 324//324
f 325//325 267//267 266//266
f 269//269 326//326 191//191
f 327//327 328//328 329//329
f 330//330 273//273 272//272
f 331//331 332//332 333//333
f 334//334 335//335 336//336
f 337//337 276//276 202//202
f 203//203 277//277 338//338
f 279//279 278//278 339//339
f 340//340 283//283 282//282
f 341//341 284//284 204//204
f 205//205 285//285 342//342
f 287//287 286//286 343//343
f 344//344 291//291 290//290
f 345//345 308//308 236//236
f 239//239 309//309 346//346
f 347//347 348//348 349//349
f 350//350 351//351 352//352
f 353//353 349//349 354//354
f 355//355 350//350 356//356
f 357//357 358//358 348//348
f 351//351 359//359 360//360
f 299//299 298//298 361//361
f 362//362 303//303 302//302
f 226//226 304//304 363//363
f 364//364 305//305 227//227
f 365//365 312//312 311//311
f 315//315 313//313 366//366
f 367//367 314//314 316//316
f 318//318 317//317 368//368
f 369//369 322//322 321//321
f 315//315 370//370 371//371
f 372//372 373//373 316//316
f 363//363 304//304 185//185
f 186//186 305//305 364//364
f 374//374 326//326 269//269
f 328//328 327//327 375//375
f 374//374 376//376 326//326
f 332//332 331//331 377//377
f 378//378 336//336 335//335
f 379//379 380//380 381//381
f 337//337 382//382 276//276
f 277//277 383//383 338//338
f 384//384 385//385 386//386
f 387//387 388//388 389//389
f 390//390 391//391 358//358
f 359//359 392//392 393//393
f 341//341 394//394 284//284
f 285//285 395//395 342//342
f 396//396 397//397 398//398
f 399//399 400//400 401//401
f 345//345 402//402 308//308
f 309//309 403//403 346//346
f 404//404 348//348 347//347
f 352//352 351//351 405//405
f 347//347 349//349 353//353
f 356//356 350//350 352//352
f 353//353 354//354 406//406
f 407//407 355//355 356//356
f 390//390 358//358 357//357
f 360//360 359//359 393//393
f 357//357 348//348 404//404
f 405//405 351//351 360//360
f 408//408 409//409 410//410
f 411//411 412//412 413//413
f 406//406 354//354 414//414
f 415//415 355//355 407//407
f 315//315 366//366 416//416
f 417//417 367//367 316//316
f 418//418 419//419 420//420
f 421//421 422//422 423//423
f 363//363 185//185 424//424
f 425//425 186//186 364//364
f 416//416 370//370 315//315
f 316//316 373//373 417//417
f 371//371 370//370 426//426
f 427//427 373//373 372//372
f 428//428 429//429 430//430
f 431//431 381//381 380//380
f 432//432 376//376 374//374
f 433//433 434//434 435//435
f 436//436 437//437 438//438
f 439//439 394//394 341//341
f 342//342 395//395 440//440
f 441//441 382//382 337//337
f 338//338 383//383 442//442
f 385//385 384//384 443//443
f 444//444 389//389 388//388
f 445//445 391//391 390//390
f 393//393 392//392 446//446
f 397//397 396//396 447//447
f 448//448 401//401 400//400
f 449//449 402//402 345//345
f 346//346 403//403 450//450
f 409//409 408//408 451//451
f 452//452 413//413 412//412
f 406//406 414//414 453//453
f 454//454 415//415 407//407
f 419//419 418//418 455//455
f 456//456 423//423 422//422
f 363//363 424//424 457//457
f 458//458 425//425 364//364
f 416//416 414//414 370//370
f 373//373 415//415 417//417
f 459//459 460//460 461//461
f 462//462 463//463 464//464
f 429//429 428//428 465//465
f 432//432 466//466 376//376
f 467//467 468//468 469//469
f 434//434 433//433 470//470
f 471//471 438//438 437//437
f 472//472 394//394 439//439
f 440//440 395//395 473//473
f 441//441 474//474 382//382
f 383//383 475//475 442//442
f 476//476 477//477 478//478
f 479//479 480//480 481//481
f 445//445 482//482 391//391
f 392//392 483//483 446//446
f 484//484 485//485 486//486
f 487//487 488//488 489//489
f 449//449 490//490 402//402
f 403//403 491//491 450//450
f 460//460 459//459 492//492
f 493//493 464//464 463//463
f 453//453 414//414 416//416
f 417//417 415//415 454//454
f 494//494 495//495 496//496
f 497//497 469//469 468//468
f 498//498 466//466 432//432
f 499//499 500//500 501//501
f 502//502 503//503 504//504
f 472//472 505//505 394//394
f 395//395 506//506 473//473
f 441//441 507//507 474//474
f 475//475 508//508 442//442
f 477//477 476//476 509//509
f 510//510 481//481 480//480
f 511//511 482//482 445//445
f 446//446 483//483 512//512
f 485//485 484//484 513//513
f 514//514 489//489 488//488
f 449//449 515//515 490//490
f 491//491 516//516 450//450
f 495//495 494//494 517//517
f 466//466 498//498 518//518
f 519//519 520//520 521//521
f 500//500 499//499 522//522
f 523//523 504//504 503//503
f 524//524 505//505 472//472
f 473//473 506//506 525//525
f 526//526 507//507 441//441
f 442//442 508//508 527//527
f 511//511 528//528 482//482
f 483//483 529//529 512//512
f 530//530 531//531 532//532
f 533//533 534//534 535//535
f 536//536 537//537 538//538
f 539//539 540//540 541//541
f 542//542 515//515 449//449
f 450//450 516//516 543//543
f 544//544 545//545 546//546
f 547//547 521//521 520//520
f 545//545 544//544 548//548
f 549//549 550//550 551//551
f 526//526 505//505 524//524
f 525//525 506//506 527//527
f 507//507 526//526 524//524
f 525//525 527//527 508//508
f 531//531 530//530 552//552
f 553//553 535//535 534//534
f 554//554 528//528 511//511
f 512//512 529//529 555//555
f 556//556 557//557 528//528
f 529//529 558//558 559//559
f 537//537 536//536 560//560
f 561//561 541//541 540//540
f 526//526 562//562 505//505
f 506//506 563//563 527//527
f 542//542 564//564 515//515
f 516//516 565//565 543//543
f 566//566 551//551 550//550
f 567//567 568//568 569//569
f 570//570 571//571 572//572
f 556//556 528//528 554//554
f 555//555 529//529 559//559
f 557//557 556//556 564//564
f 565//565 559//559 558//558
f 573//573 574//574 575//575
f 576//576 577//577 578//578
f 579//579 557//557 542//542
f 543//543 558//558 580//580
f 581//581 562//562 526//526
f 527//527 563//563 582//582
f 542//542 557//557 564//564
f 565//565 558//558 543//543
f 568//568 567//567 583//583
f 584//584 572//572 571//571
f 579//579 585//585 557//557
f 558//558 586//586 580//580
f 574//574 573//573 587//587
f 588//588 578//578 577//577
f 562//562 581//581 589//589
f 590//590 582//582 563//563
f 591//591 592//592 593//593
f 594//594 595//595 596//596
f 585//585 579//579 597//597
f 598//598 580//580 586//586
f 592//592 591//591 599//599
f 600//600 596//596 595//595
f 601//601 602//602 603//603
f 604//604 603//603 602//602
f 605//605 606//606 607//607
f 603//603 608//608 601//601
f 609//609 610//610 611//611
f 602//602 612//612 604//604
f 607//607 606//606 613//613
f 614//614 605//605 607//607
f 615//615 601//601 608//608
f 611//611 616//616 617//617
f 610//610 616//616 611//611
f 618//618 610//610 609//609
f 619//619 604//604 612//612
f 620//620 605//605 614//614
f 606//606 621//621 613//613
f 622//622 623//623 624//624
f 625//625 622//622 626//626
f 608//608 627//627 615//615
f 616//616 628//628 617//617
f 629//629 624//624 623//623
f 624//624 626//626 622//622
f 630//630 618//618 609//609
f 619//619 612//612 631//631
f 632//632 620//620 614//614
f 613//613 621//621 633//633
f 625//625 626//626 634//634
f 635//635 615//615 627//627
f 617//617 628//628 636//636
f 637//637 629//629 638//638
f 623//623 638//638 629//629
f 639//639 618//618 630//630
f 640//640 631//631 612//612
f 641//641 639//639 630//630
f 642//642 620//620 632//632
f 621//621 643//643 633//633
f 644//644 634//634 626//626
f 627//627 645//645 635//635
f 628//628 646//646 636//636
f 638//638 647//647 637//637
f 631//631 640//640 648//648
f 649//649 639//639 641//641
f 650//650 642//642 632//632
f 633//633 643//643 651//651
f 634//634 644//644 652//652
f 653//653 635//635 645//645
f 636//636 646//646 654//654
f 655//655 637//637 647//647
f 656//656 648//648 640//640
f 657//657 649//649 641//641
f 658//658 652//652 644//644
f 659//659 642//642 650//650
f 643//643 660//660 651//651
f 645//645 661//661 653//653
f 646//646 662//662 654//654
f 647//647 663//663 655//655
f 648//648 656//656 664//664
f 665//665 649//649 657//657
f 652//652 658//658 666//666
f 667//667 659//659 650//650
f 651//651 660//660 668//668
f 669//669 653//653 661//661
f 654//654 662//662 670//670
f 671//671 655//655 663//663
f 666//666 664//664 656//656
f 664//664 666//666 658//658
f 660//660 672//672 668//668
f 669//669 661//661 673//673
f 662//662 674//674 670//670
f 663//663 675//675 671//671
f 668//668 672//672 676//676
f 677//677 673//673 661//661
f 672//672 678//678 676//676
f 670//670 674//674 679//679
f 680//680 671//671 675//675
f 673//673 677//677 681//681
f 676//676 678//678 682//682
f 674//674 683//683 679//679
f 680//680 675//675 684//684
f 685//685 681//681 677//677
f 678//678 686//686 682//682
f 687//687 684//684 675//675
f 679//679 683//683 688//688
f 681//681 685//685 689//689
f 682//682 686//686 690//690
f 684//684 687//687 691//691
f 683//683 692//692 688//688
f 693//693 689//689 685//685
f 694//694 690//690 686//686
f 695//695 691//691 687//687
f 696//696 688//688 692//692
f 689//689 693//693 695//695
f 691//691 695//695 693//693
f 697//697 698//698 699//699
f 700//700 701//701 697//697
f 697//697 701//701 698//698
f 699//699 698//698 702//702
f 700//700 703//703 701//701
f 699//699 702//702 704//704
f 705//705 703//703 700//700
f 704//704 702//702 706//706
f 704//704 706//706 707//707
f 705//705 708//708 703//703
f 707//707 706//706 709//709
f 710//710 708//708 705//705
f 707//707 709//709 711//711
f 710//710 712//712 708//708
f 711//711 709//709 713//713
f 714//714 712//712 710//710
f 714//714 715//715 712//712
f 716//716 715//715 714//714
f 716//716 717//717 715//715
f 718//718 717//717 716//716
f 718//718 719//719 717//717
f 719//719 718//718 720//720
f 721//721 722//722 723//723
f 724//724 725//725 722//722
f 722//722 721//721 724//724
f 723//723 726//726 721//721
f 725//725 724//724 727//727
f 728//728 729//729 730//730
f 731//731 732//732 729//729
f 726//726 723//723 733//733
f 727//727 734//734 725//725
f 735//735 730//730 736//736
f 729//729 728//728 731//731
f 730//730 735//735 728//728
f 732//732 731//731 737//737
f 738//738 726//726 733//733
f 734//734 727//727 739//739
f 736//736 740//740 735//735
f 741//741 732//732 737//737
f 732//732 741//741 742//742
f 726//726 738//738 743//743
f 739//739 744//744 734//734
f 740//740 736//736 745//745
f 746//746 742//742 741//741
f 747//747 743//743 738//738
f 742//742 746//746 748//748
f 744//744 739//739 749//749
f 745//745 750//750 740//740
f 743//743 747//747 751//751
f 752//752 748//748 746//746
f 749//749 753//753 744//744
f 750//750 745//745 754//754
f 755//755 751//751 747//747
f 748//748 752//752 755//755
f 753//753 749//749 756//756
f 754//754 757//757 750//750
f 751//751 755//755 752//752
f 757//757 754//754 758//758
f 759//759 753//753 756//756
f 753//753 759//759 760//760
f 761//761 757//757 758//758
f 762//762 760//760 759//759
f 757//757 761//761 763//763
f 760//760 762//762 764//764
f 765//765 763//763 761//761
f 766//766 764//764 762//762
f 763//763 765//765 767//767
f 764//764 766//766 768//768
f 768//768 767//767 765//765
f 767//767 768//768 766//766
