# Created by Open3D 
# object name: 297d929269bb62da43fdcbcacbbed64c
# number of vertices: 724
# number of triangles: 594
v -0.0403565 -0.227869 0.081258
vn 0.00972015 0 -0.0234666
v -0.0148037 -0.249016 0.00995835
vn 0.00972015 0 -0.0234666
v -0.0255191 -0.255773 0.0103755
vn 0.00972015 0 -0.0234666
v -0.0296411 -0.221111 0.0808409
vn 0.00972015 0 -0.0234666
v -0.0255191 -0.255773 0.0103755
vn -0.00972015 0 0.0234666
v -0.0148037 -0.249016 0.00995835
vn -0.00972015 0 0.0234666
v -0.0403565 -0.227869 0.081258
vn -0.00972015 0 0.0234666
v -0.0296411 -0.221111 0.0808409
vn -0.00972015 0 0.0234666
v -0.0551939 -0.199965 0.152141
vn 0.00972015 0 -0.0234666
v -0.0551939 -0.199965 0.152141
vn -0.00972015 0 0.0234666
v -0.0444785 -0.193207 0.151723
vn 0.00972015 0 -0.0234666
v -0.0444785 -0.193207 0.151723
vn -0.00972015 0 0.0234666
v -0.00452229 -0.164835 0.0361886
vn 0.00713956 0.0172364 -0.0172364
v -0.0142155 -0.146605 0.0824946
vn 0.00713956 0.0172364 -0.0172364
v -0.00220785 -0.13262 0.0517476
vn 0.00713956 0.0172364 -0.0172364
v -0.0165312 -0.178822 0.0669364
vn 0.00713956 0.0172364 -0.0172364
v -0.00220785 -0.13262 0.0517476
vn -0.00713956 -0.0172364 0.0172364
v -0.0142155 -0.146605 0.0824946
vn -0.00713956 -0.0172364 0.0172364
v -0.00452229 -0.164835 0.0361886
vn -0.00713956 -0.0172364 0.0172364
v -0.0165312 -0.178822 0.0669364
vn -0.00713956 -0.0172364 0.0172364
v -0.0142155 -0.146605 0.0824946
vn 0.00713956 0.0172364 -0.0172364
v 0.0288592 -0.0324052 0.0187981
vn 0.00713956 0.0172364 -0.0172364
v -0.00220785 -0.13262 0.0517476
vn 0.00713956 0.0172364 -0.0172364
v -0.0203503 -0.135068 0.111802
vn 0.00713956 0.0172364 -0.0172364
v -0.00220785 -0.13262 0.0517476
vn -0.00713956 -0.0172364 0.0172364
v 0.0288592 -0.0324052 0.0187981
vn -0.00713956 -0.0172364 0.0172364
v -0.0142155 -0.146605 0.0824946
vn -0.00713956 -0.0172364 0.0172364
v -0.0203503 -0.135068 0.111802
vn -0.00713956 -0.0172364 0.0172364
v 0.0325692 -0.0393823 0.00107771
vn 0.00713956 0.0172364 -0.0172364
v 0.0325692 -0.0393823 0.00107771
vn -0.00713956 -0.0172364 0.0172364
v -0.0165312 -0.178822 0.0669364
vn 0.00713956 0.0172364 -0.0172364
v -0.0165312 -0.178822 0.0669364
vn -0.00713956 -0.0172364 0.0172364
v 0.0251499 -0.0254294 0.0365186
vn 0.00713956 0.0172364 -0.0172364
v 0.0251499 -0.0254294 0.0365186
vn -0.00713956 -0.0172364 0.0172364
v -0.00452229 -0.164835 0.0361886
vn 0.00713956 0.0172364 -0.0172364
v -0.00452229 -0.164835 0.0361886
vn -0.00713956 -0.0172364 0.0172364
v 0.0649932 -0.0298611 0.0253609
vn 0.00836696 -0.0129278 -0.0201997
v 0.0325692 -0.0393823 0.00107771
vn 0.00836696 -0.0129278 -0.0201997
v 0.0288592 -0.0324052 0.0187981
vn 0.00836696 -0.0129278 -0.0201997
v 0.0288592 -0.0324052 0.0187981
vn -0.00836696 0.0129278 0.0201997
v 0.0325692 -0.0393823 0.00107771
vn -0.00836696 0.0129278 0.0201997
v 0.0649932 -0.0298611 0.0253609
vn -0.00836696 0.0129278 0.0201997
v -0.0296411 -0.221111 0.0808409
vn 0.00713956 0.0172364 -0.0172364
v -0.0296411 -0.221111 0.0808409
vn -0.00713956 -0.0172364 0.0172364
v 0.0591484 -0.0251431 0.0373367
vn 0.00836696 -0.0129278 -0.0201997
v 0.0251499 -0.0254294 0.0365186
vn 0.00836696 -0.0129278 -0.0201997
v 0.0251499 -0.0254294 0.0365186
vn -0.00836696 0.0129278 0.0201997
v 0.0591484 -0.0251431 0.0373367
vn -0.00836696 0.0129278 0.0201997
v 0.00161323 -0.176374 0.00688102
vn 0.00713956 0.0172364 -0.0172364
v 0.00161323 -0.176374 0.00688102
vn -0.00713956 -0.0172364 0.0172364
v 0.0644064 -0.0350316 0.0122163
vn 0.00836696 -0.0129278 -0.0201997
v 0.0644064 -0.0350316 0.0122163
vn -0.00836696 0.0129278 0.0201997
v -0.0148037 -0.249016 0.00995835
vn 0.00713956 0.0172364 -0.0172364
v -0.0148037 -0.249016 0.00995835
vn -0.00713956 -0.0172364 0.0172364
v -0.0444785 -0.193207 0.151723
vn 0.00713956 0.0172364 -0.0172364
v -0.0444785 -0.193207 0.151723
vn -0.00713956 -0.0172364 0.0172364
v 0.0481261 -0.0218921 0.0455703
vn 0.00836696 -0.0129278 -0.0201997
v 0.0481261 -0.0218921 0.0455703
vn -0.00836696 0.0129278 0.0201997
v 0.0575123 -0.0395443 0.000728788
vn 0.00836696 -0.0129278 -0.0201997
v 0.0575123 -0.0395443 0.000728788
vn -0.00836696 0.0129278 0.0201997
v -0.0689866 -0.264802 0.0467545
vn 0.00972015 0 -0.0234666
v -0.0255191 -0.255773 0.0103755
vn 0.00972015 0 -0.0234666
v -0.0536472 -0.273511 0.0114704
vn 0.00972015 0 -0.0234666
v -0.0403565 -0.227869 0.081258
vn 0.00972015 0 -0.0234666
v -0.0536472 -0.273511 0.0114704
vn -0.00972015 0 0.0234666
v -0.0255191 -0.255773 0.0103755
vn -0.00972015 0 0.0234666
v -0.0689866 -0.264802 0.0467545
vn -0.00972015 0 0.0234666
v -0.0403565 -0.227869 0.081258
vn -0.00972015 0 0.0234666
v -0.0792009 -0.252365 0.0827702
vn 0.00972015 0 -0.0234666
v -0.0792009 -0.252365 0.0827702
vn -0.00972015 0 0.0234666
v -0.0840212 -0.236527 0.118575
vn 0.00972015 0 -0.0234666
v -0.0840212 -0.236527 0.118575
vn -0.00972015 0 0.0234666
v -0.0551939 -0.199965 0.152141
vn 0.00972015 0 -0.0234666
v -0.0551939 -0.199965 0.152141
vn -0.00972015 0 0.0234666
v -0.083322 -0.217703 0.153236
vn 0.00972015 0 -0.0234666
v -0.083322 -0.217703 0.153236
vn -0.00972015 0 0.0234666
v -0.0423972 -0.233477 -0.0620204
vn 0.0234665 0 -0.00972018
v -0.0485599 -0.204424 -0.134833
vn 0.0234665 0 -0.00972018
v -0.0592753 -0.211182 -0.134416
vn 0.0234665 0 -0.00972018
v -0.0316817 -0.22672 -0.0624375
vn 0.0234665 0 -0.00972018
v -0.0592753 -0.211182 -0.134416
vn -0.0234665 0 0.00972018
v -0.0485599 -0.204424 -0.134833
vn -0.0234665 0 0.00972018
v -0.0423972 -0.233477 -0.0620204
vn -0.0234665 0 0.00972018
v -0.0316817 -0.22672 -0.0624375
vn -0.0234665 0 0.00972018
v -0.0255191 -0.255773 0.0103755
vn 0.0234665 0 -0.00972018
v -0.0255191 -0.255773 0.0103755
vn -0.0234665 0 0.00972018
v -0.0148037 -0.249016 0.00995835
vn 0.0234665 0 -0.00972018
v -0.0148037 -0.249016 0.00995835
vn -0.0234665 0 0.00972018
v -0.0163924 -0.152588 -0.0703469
vn 0.0172364 0.0172364 -0.00713954
v -0.00536605 -0.167154 -0.0230523
vn 0.0172364 0.0172364 -0.00713954
v -0.00353046 -0.136257 -0.0411402
vn 0.0172364 0.0172364 -0.00713954
v -0.0182289 -0.183488 -0.052259
vn 0.0172364 0.0172364 -0.00713954
v -0.00353046 -0.136257 -0.0411402
vn -0.0172364 -0.0172364 0.00713954
v -0.00536605 -0.167154 -0.0230523
vn -0.0172364 -0.0172364 0.00713954
v -0.0163924 -0.152588 -0.0703469
vn -0.0172364 -0.0172364 0.00713954
v -0.0182289 -0.183488 -0.052259
vn -0.0172364 -0.0172364 0.00713954
v -0.00536605 -0.167154 -0.0230523
vn 0.0172364 0.0172364 -0.00713954
v 0.028349 -0.0338073 -0.0170211
vn 0.0172364 0.0172364 -0.00713954
v -0.00353046 -0.136257 -0.0411402
vn 0.0172364 0.0172364 -0.00713954
v 0.00161323 -0.176374 0.00688102
vn 0.0172364 0.0172364 -0.00713954
v -0.00353046 -0.136257 -0.0411402
vn -0.0172364 -0.0172364 0.00713954
v 0.028349 -0.0338073 -0.0170211
vn -0.0172364 -0.0172364 0.00713954
v -0.00536605 -0.167154 -0.0230523
vn -0.0172364 -0.0172364 0.00713954
v 0.00161323 -0.176374 0.00688102
vn -0.0172364 -0.0172364 0.00713954
v 0.0241296 -0.0282336 -0.0351199
vn 0.0172364 0.0172364 -0.00713954
v 0.0241296 -0.0282336 -0.0351199
vn -0.0172364 -0.0172364 0.00713954
v -0.0182289 -0.183488 -0.052259
vn 0.0172364 0.0172364 -0.00713954
v -0.0182289 -0.183488 -0.052259
vn -0.0172364 -0.0172364 0.00713954
v 0.0325692 -0.0393823 0.00107771
vn 0.0172364 0.0172364 -0.00713954
v 0.0325692 -0.0393823 0.00107771
vn -0.0172364 -0.0172364 0.00713954
v -0.0163924 -0.152588 -0.0703469
vn 0.0172364 0.0172364 -0.00713954
v -0.0163924 -0.152588 -0.0703469
vn -0.0172364 -0.0172364 0.00713954
v 0.0642793 -0.0318247 -0.0247868
vn 0.0201997 -0.0129278 -0.00836698
v 0.0241296 -0.0282336 -0.0351199
vn 0.0201997 -0.0129278 -0.00836698
v 0.028349 -0.0338073 -0.0170211
vn 0.0201997 -0.0129278 -0.00836698
v 0.028349 -0.0338073 -0.0170211
vn -0.0201997 0.0129278 0.00836698
v 0.0241296 -0.0282336 -0.0351199
vn -0.0201997 0.0129278 0.00836698
v 0.0642793 -0.0318247 -0.0247868
vn -0.0201997 0.0129278 0.00836698
v -0.0316817 -0.22672 -0.0624375
vn 0.0172364 0.0172364 -0.00713954
v -0.0316817 -0.22672 -0.0624375
vn -0.0172364 -0.0172364 0.00713954
v 0.0640719 -0.0359508 -0.0112676
vn 0.0201997 -0.0129278 -0.00836698
v 0.0325692 -0.0393823 0.00107771
vn 0.0201997 -0.0129278 -0.00836698
v 0.0325692 -0.0393823 0.00107771
vn -0.0201997 0.0129278 0.00836698
v 0.0640719 -0.0359508 -0.0112676
vn -0.0201997 0.0129278 0.00836698
v -0.0233709 -0.14337 -0.10028
vn 0.0172364 0.0172364 -0.00713954
v -0.0233709 -0.14337 -0.10028
vn -0.0172364 -0.0172364 0.00713954
v 0.0580904 -0.0280493 -0.0369236
vn 0.0201997 -0.0129278 -0.00836698
v 0.0580904 -0.0280493 -0.0369236
vn -0.0201997 0.0129278 0.00836698
v -0.0485599 -0.204424 -0.134833
vn 0.0172364 0.0172364 -0.00713954
v -0.0485599 -0.204424 -0.134833
vn -0.0172364 -0.0172364 0.00713954
v -0.0148037 -0.249016 0.00995835
vn 0.0172364 0.0172364 -0.00713954
v -0.0148037 -0.249016 0.00995835
vn -0.0172364 -0.0172364 0.00713954
v 0.0575123 -0.0395443 0.000728788
vn 0.0201997 -0.0129278 -0.00836698
v 0.0575123 -0.0395443 0.000728788
vn -0.0201997 0.0129278 0.00836698
v 0.0468352 -0.0254401 -0.0450701
vn 0.0201997 -0.0129278 -0.00836698
v 0.0468352 -0.0254401 -0.0450701
vn -0.0201997 0.0129278 0.00836698
v -0.0870957 -0.244977 -0.0972899
vn 0.0234665 0 -0.00972018
v -0.0592753 -0.211182 -0.134416
vn 0.0234665 0 -0.00972018
v -0.0874034 -0.22892 -0.133321
vn 0.0234665 0 -0.00972018
v -0.0423972 -0.233477 -0.0620204
vn 0.0234665 0 -0.00972018
v -0.0874034 -0.22892 -0.133321
vn -0.0234665 0 0.00972018
v -0.0592753 -0.211182 -0.134416
vn -0.0234665 0 0.00972018
v -0.0870957 -0.244977 -0.0972899
vn -0.0234665 0 0.00972018
v -0.0423972 -0.233477 -0.0620204
vn -0.0234665 0 0.00972018
v -0.0812416 -0.257973 -0.0605083
vn 0.0234665 0 -0.00972018
v -0.0812416 -0.257973 -0.0605083
vn -0.0234665 0 0.00972018
v -0.0699934 -0.267569 -0.0239359
vn 0.0234665 0 -0.00972018
v -0.0699934 -0.267569 -0.0239359
vn -0.0234665 0 0.00972018
v -0.0255191 -0.255773 0.0103755
vn 0.0234665 0 -0.00972018
v -0.0255191 -0.255773 0.0103755
vn -0.0234665 0 0.00972018
v -0.0536472 -0.273511 0.0114704
vn 0.0234665 0 -0.00972018
v -0.0536472 -0.273511 0.0114704
vn -0.0234665 0 0.00972018
v -0.0979825 -0.151746 -0.165916
vn 0.0234666 0 0.00972015
v -0.125974 -0.0855529 -0.197834
vn 0.0234666 0 0.00972015
v -0.13669 -0.0923102 -0.197417
vn 0.0234666 0 0.00972015
v -0.0872671 -0.144989 -0.166334
vn 0.0234666 0 0.00972015
v -0.13669 -0.0923102 -0.197417
vn -0.0234666 0 -0.00972015
v -0.125974 -0.0855529 -0.197834
vn -0.0234666 0 -0.00972015
v -0.0979825 -0.151746 -0.165916
vn -0.0234666 0 -0.00972015
v -0.0872671 -0.144989 -0.166334
vn -0.0234666 0 -0.00972015
v -0.0592753 -0.211182 -0.134416
vn 0.0234666 0 0.00972015
v -0.0592753 -0.211182 -0.134416
vn -0.0234666 0 -0.00972015
v -0.0485599 -0.204424 -0.134833
vn 0.0234666 0 0.00972015
v -0.0485599 -0.204424 -0.134833
vn -0.0234666 0 -0.00972015
v -0.0646617 -0.0799671 -0.133883
vn 0.0172364 0.0172364 0.00713956
v -0.0393751 -0.118795 -0.113305
vn 0.0172364 0.0172364 0.00713956
v -0.0395662 -0.0832706 -0.108496
vn 0.0172364 0.0172364 0.00713956
v -0.0644719 -0.115493 -0.138693
vn 0.0172364 0.0172364 0.00713956
v -0.0395662 -0.0832706 -0.108496
vn -0.0172364 -0.0172364 -0.00713956
v -0.0393751 -0.118795 -0.113305
vn -0.0172364 -0.0172364 -0.00713956
v -0.0646617 -0.0799671 -0.133883
vn -0.0172364 -0.0172364 -0.00713956
v -0.0644719 -0.115493 -0.138693
vn -0.0172364 -0.0172364 -0.00713956
v -0.0393751 -0.118795 -0.113305
vn 0.0172364 0.0172364 0.00713956
v 0.0144529 -0.0133748 -0.0429948
vn 0.0172364 0.0172364 0.00713956
v -0.0395662 -0.0832706 -0.108496
vn 0.0172364 0.0172364 0.00713956
v -0.0233709 -0.14337 -0.10028
vn 0.0172364 0.0172364 0.00713956
v -0.0395662 -0.0832706 -0.108496
vn -0.0172364 -0.0172364 -0.00713956
v 0.0144529 -0.0133748 -0.0429948
vn -0.0172364 -0.0172364 -0.00713956
v -0.0393751 -0.118795 -0.113305
vn -0.0172364 -0.0172364 -0.00713956
v -0.0233709 -0.14337 -0.10028
vn -0.0172364 -0.0172364 -0.00713956
v 0.00477613 0.00148396 -0.0508711
vn 0.0172364 0.0172364 0.00713956
v 0.00477613 0.00148396 -0.0508711
vn -0.0172364 -0.0172364 -0.00713956
v -0.0644719 -0.115493 -0.138693
vn 0.0172364 0.0172364 0.00713956
v -0.0644719 -0.115493 -0.138693
vn -0.0172364 -0.0172364 -0.00713956
v 0.0241296 -0.0282336 -0.0351199
vn 0.0172364 0.0172364 0.00713956
v 0.0241296 -0.0282336 -0.0351199
vn -0.0172364 -0.0172364 -0.00713956
v -0.0646617 -0.0799671 -0.133883
vn 0.0172364 0.0172364 0.00713956
v -0.0646617 -0.0799671 -0.133883
vn -0.0172364 -0.0172364 -0.00713956
v 0.0448243 -0.00321855 -0.0611506
vn 0.0201997 -0.0129278 0.00836696
v 0.00477613 0.00148396 -0.0508711
vn 0.0201997 -0.0129278 0.00836696
v 0.0144529 -0.0133748 -0.0429948
vn 0.0201997 -0.0129278 0.00836696
v 0.0144529 -0.0133748 -0.0429948
vn -0.0201997 0.0129278 -0.00836696
v 0.00477613 0.00148396 -0.0508711
vn -0.0201997 0.0129278 -0.00836696
v 0.0448243 -0.00321855 -0.0611506
vn -0.0201997 0.0129278 -0.00836696
v -0.0872671 -0.144989 -0.166334
vn 0.0172364 0.0172364 0.00713956
v -0.0872671 -0.144989 -0.166334
vn -0.0172364 -0.0172364 -0.00713956
v 0.0489801 -0.0146539 -0.0539532
vn 0.0201997 -0.0129278 0.00836696
v 0.0241296 -0.0282336 -0.0351199
vn 0.0201997 -0.0129278 0.00836696
v 0.0241296 -0.0282336 -0.0351199
vn -0.0201997 0.0129278 -0.00836696
v 0.0489801 -0.0146539 -0.0539532
vn -0.0201997 0.0129278 -0.00836696
v -0.0806659 -0.0553924 -0.146909
vn 0.0172364 0.0172364 0.00713956
v -0.0806659 -0.0553924 -0.146909
vn -0.0172364 -0.0172364 -0.00713956
v 0.0352625 0.00640982 -0.065116
vn 0.0201997 -0.0129278 0.00836696
v 0.0352625 0.00640982 -0.065116
vn -0.0201997 0.0129278 -0.00836696
v -0.125974 -0.0855529 -0.197834
vn 0.0172364 0.0172364 0.00713956
v -0.125974 -0.0855529 -0.197834
vn -0.0172364 -0.0172364 -0.00713956
v -0.0485599 -0.204424 -0.134833
vn 0.0172364 0.0172364 0.00713956
v -0.0485599 -0.204424 -0.134833
vn -0.0172364 -0.0172364 -0.00713956
v 0.0468352 -0.0254401 -0.0450701
vn 0.0201997 -0.0129278 0.00836696
v 0.0468352 -0.0254401 -0.0450701
vn -0.0201997 0.0129278 -0.00836696
v 0.0223483 0.01216 -0.0649972
vn 0.0201997 -0.0129278 0.00836696
v 0.0223483 0.01216 -0.0649972
vn -0.0201997 0.0129278 -0.00836696
v -0.15374 -0.14443 -0.180469
vn 0.0234666 0 0.00972015
v -0.13669 -0.0923102 -0.197417
vn 0.0234666 0 0.00972015
v -0.164818 -0.110048 -0.196322
vn 0.0234666 0 0.00972015
v -0.0979825 -0.151746 -0.165916
vn 0.0234666 0 0.00972015
v -0.164818 -0.110048 -0.196322
vn -0.0234666 0 -0.00972015
v -0.13669 -0.0923102 -0.197417
vn -0.0234666 0 -0.00972015
v -0.15374 -0.14443 -0.180469
vn -0.0234666 0 -0.00972015
v -0.0979825 -0.151746 -0.165916
vn -0.0234666 0 -0.00972015
v -0.136827 -0.176242 -0.164404
vn 0.0234666 0 0.00972015
v -0.136827 -0.176242 -0.164404
vn -0.0234666 0 -0.00972015
v -0.114521 -0.204652 -0.14855
vn 0.0234666 0 0.00972015
v -0.114521 -0.204652 -0.14855
vn -0.0234666 0 -0.00972015
v -0.0592753 -0.211182 -0.134416
vn 0.0234666 0 0.00972015
v -0.0592753 -0.211182 -0.134416
vn -0.0234666 0 -0.00972015
v -0.0874034 -0.22892 -0.133321
vn 0.0234666 0 0.00972015
v -0.0874034 -0.22892 -0.133321
vn -0.0234666 0 -0.00972015
v -0.174552 -0.0305513 -0.16957
vn 0.00972018 0 0.0234665
v -0.201698 0.0379648 -0.14214
vn 0.00972018 0 0.0234665
v -0.212414 0.0312075 -0.141723
vn 0.00972018 0 0.0234665
v -0.163836 -0.023794 -0.169987
vn 0.00972018 0 0.0234665
v -0.212414 0.0312075 -0.141723
vn -0.00972018 0 -0.0234665
v -0.201698 0.0379648 -0.14214
vn -0.00972018 0 -0.0234665
v -0.174552 -0.0305513 -0.16957
vn -0.00972018 0 -0.0234665
v -0.163836 -0.023794 -0.169987
vn -0.00972018 0 -0.0234665
v -0.13669 -0.0923102 -0.197417
vn 0.00972018 0 0.0234665
v -0.13669 -0.0923102 -0.197417
vn -0.00972018 0 -0.0234665
v -0.125974 -0.0855529 -0.197834
vn 0.00972018 0 0.0234665
v -0.125974 -0.0855529 -0.197834
vn -0.00972018 0 -0.0234665
v -0.121055 0.0104886 -0.117202
vn 0.00713954 0.0172364 0.0172364
v -0.0963206 -0.0298571 -0.135394
vn 0.00713954 0.0172364 0.0172364
v -0.0892063 -0.00469989 -0.110865
vn 0.00713954 0.0172364 0.0172364
v -0.128171 -0.0146697 -0.141732
vn 0.00713954 0.0172364 0.0172364
v -0.0892063 -0.00469989 -0.110865
vn -0.00713954 -0.0172364 -0.0172364
v -0.0963206 -0.0298571 -0.135394
vn -0.00713954 -0.0172364 -0.0172364
v -0.121055 0.0104886 -0.117202
vn -0.00713954 -0.0172364 -0.0172364
v -0.128171 -0.0146697 -0.141732
vn -0.00713954 -0.0172364 -0.0172364
v -0.0963206 -0.0298571 -0.135394
vn 0.00713954 0.0172364 0.0172364
v -0.00468926 0.0169236 -0.0439081
vn 0.00713954 0.0172364 0.0172364
v -0.0892063 -0.00469989 -0.110865
vn 0.00713954 0.0172364 0.0172364
v -0.0806659 -0.0553924 -0.146909
vn 0.00713954 0.0172364 0.0172364
v -0.0892063 -0.00469989 -0.110865
vn -0.00713954 -0.0172364 -0.0172364
v -0.00468926 0.0169236 -0.0439081
vn -0.00713954 -0.0172364 -0.0172364
v -0.0963206 -0.0298571 -0.135394
vn -0.00713954 -0.0172364 -0.0172364
v -0.0806659 -0.0553924 -0.146909
vn -0.00713954 -0.0172364 -0.0172364
v -0.0141547 0.0323631 -0.0369466
vn 0.00713954 0.0172364 0.0172364
v -0.0141547 0.0323631 -0.0369466
vn -0.00713954 -0.0172364 -0.0172364
v -0.128171 -0.0146697 -0.141732
vn 0.00713954 0.0172364 0.0172364
v -0.128171 -0.0146697 -0.141732
vn -0.00713954 -0.0172364 -0.0172364
v 0.00477613 0.00148396 -0.0508711
vn 0.00713954 0.0172364 0.0172364
v 0.00477613 0.00148396 -0.0508711
vn -0.00713954 -0.0172364 -0.0172364
v -0.121055 0.0104886 -0.117202
vn 0.00713954 0.0172364 0.0172364
v -0.121055 0.0104886 -0.117202
vn -0.00713954 -0.0172364 -0.0172364
v 0.018025 0.0391997 -0.06243
vn 0.00836698 -0.0129278 0.0201997
v -0.0141547 0.0323631 -0.0369466
vn 0.00836698 -0.0129278 0.0201997
v -0.00468926 0.0169236 -0.0439081
vn 0.00836698 -0.0129278 0.0201997
v -0.00468926 0.0169236 -0.0439081
vn -0.00836698 0.0129278 -0.0201997
v -0.0141547 0.0323631 -0.0369466
vn -0.00836698 0.0129278 -0.0201997
v 0.018025 0.0391997 -0.06243
vn -0.00836698 0.0129278 -0.0201997
v -0.163836 -0.023794 -0.169987
vn 0.00713954 0.0172364 0.0172364
v -0.163836 -0.023794 -0.169987
vn -0.00713954 -0.0172364 -0.0172364
v 0.0227125 0.0262741 -0.0657149
vn 0.00836698 -0.0129278 0.0201997
v 0.00477613 0.00148396 -0.0508711
vn 0.00836698 -0.0129278 0.0201997
v 0.00477613 0.00148396 -0.0508711
vn -0.00836698 0.0129278 -0.0201997
v 0.0227125 0.0262741 -0.0657149
vn -0.00836698 0.0129278 -0.0201997
v -0.13671 0.0360239 -0.105688
vn 0.00713954 0.0172364 0.0172364
v -0.13671 0.0360239 -0.105688
vn -0.00713954 -0.0172364 -0.0172364
v 0.00929478 0.0481605 -0.0558461
vn 0.00836698 -0.0129278 0.0201997
v 0.00929478 0.0481605 -0.0558461
vn -0.00836698 0.0129278 -0.0201997
v -0.201698 0.0379648 -0.14214
vn 0.00713954 0.0172364 0.0172364
v -0.201698 0.0379648 -0.14214
vn -0.00713954 -0.0172364 -0.0172364
v -0.125974 -0.0855529 -0.197834
vn 0.00713954 0.0172364 0.0172364
v -0.125974 -0.0855529 -0.197834
vn -0.00713954 -0.0172364 -0.0172364
v 0.0223483 0.01216 -0.0649972
vn 0.00836698 -0.0129278 0.0201997
v 0.0223483 0.01216 -0.0649972
vn -0.00836698 0.0129278 -0.0201997
v -0.00160384 0.0512297 -0.0473813
vn 0.00836698 -0.0129278 0.0201997
v -0.00160384 0.0512297 -0.0473813
vn -0.00836698 0.0129278 -0.0201997
v -0.229881 -0.0220587 -0.154055
vn 0.00972018 0 0.0234665
v -0.212414 0.0312075 -0.141723
vn 0.00972018 0 0.0234665
v -0.240542 0.0134695 -0.140628
vn 0.00972018 0 0.0234665
v -0.174552 -0.0305513 -0.16957
vn 0.00972018 0 0.0234665
v -0.240542 0.0134695 -0.140628
vn -0.00972018 0 -0.0234665
v -0.212414 0.0312075 -0.141723
vn -0.00972018 0 -0.0234665
v -0.229881 -0.0220587 -0.154055
vn -0.00972018 0 -0.0234665
v -0.174552 -0.0305513 -0.16957
vn -0.00972018 0 -0.0234665
v -0.213396 -0.0550472 -0.168058
vn 0.00972018 0 0.0234665
v -0.213396 -0.0550472 -0.168058
vn -0.00972018 0 -0.0234665
v -0.191518 -0.0846349 -0.182272
vn 0.00972018 0 0.0234665
v -0.191518 -0.0846349 -0.182272
vn -0.00972018 0 -0.0234665
v -0.13669 -0.0923102 -0.197417
vn 0.00972018 0 0.0234665
v -0.13669 -0.0923102 -0.197417
vn -0.00972018 0 -0.0234665
v -0.164818 -0.110048 -0.196322
vn 0.00972018 0 0.0234665
v -0.164818 -0.110048 -0.196322
vn -0.00972018 0 -0.0234665
v -0.227251 0.0591116 -0.0708407
vn -0.00972015 0 0.0234666
v -0.231373 0.093773 -0.000375243
vn -0.00972015 0 0.0234666
v -0.242089 0.0870156 4.18841e-05
vn -0.00972015 0 0.0234666
v -0.216536 0.0658689 -0.0712578
vn -0.00972015 0 0.0234666
v -0.242089 0.0870156 4.18841e-05
vn 0.00972015 0 -0.0234666
v -0.231373 0.093773 -0.000375243
vn 0.00972015 0 -0.0234666
v -0.227251 0.0591116 -0.0708407
vn 0.00972015 0 -0.0234666
v -0.216536 0.0658689 -0.0712578
vn 0.00972015 0 -0.0234666
v -0.212414 0.0312075 -0.141723
vn -0.00972015 0 0.0234666
v -0.212414 0.0312075 -0.141723
vn 0.00972015 0 -0.0234666
v -0.201698 0.0379648 -0.14214
vn -0.00972015 0 0.0234666
v -0.201698 0.0379648 -0.14214
vn 0.00972015 0 -0.0234666
v -0.152538 0.0657908 -0.0300746
vn -0.00713956 0.0172364 0.0172364
v -0.142844 0.0475613 -0.0763806
vn -0.00713956 0.0172364 0.0172364
v -0.123371 0.0534283 -0.046859
vn -0.00713956 0.0172364 0.0172364
v -0.172013 0.0599233 -0.0595968
vn -0.00713956 0.0172364 0.0172364
v -0.123371 0.0534283 -0.046859
vn 0.00713956 -0.0172364 -0.0172364
v -0.142844 0.0475613 -0.0763806
vn 0.00713956 -0.0172364 -0.0172364
v -0.152538 0.0657908 -0.0300746
vn 0.00713956 -0.0172364 -0.0172364
v -0.172013 0.0599233 -0.0595968
vn 0.00713956 -0.0172364 -0.0172364
v -0.142844 0.0475613 -0.0763806
vn -0.00713956 0.0172364 0.0172364
v -0.0178639 0.039339 -0.0192262
vn -0.00713956 0.0172364 0.0172364
v -0.123371 0.0534283 -0.046859
vn -0.00713956 0.0172364 0.0172364
v -0.13671 0.0360239 -0.105688
vn -0.00713956 0.0172364 0.0172364
v -0.123371 0.0534283 -0.046859
vn 0.00713956 -0.0172364 -0.0172364
v -0.0178639 0.039339 -0.0192262
vn 0.00713956 -0.0172364 -0.0172364
v -0.142844 0.0475613 -0.0763806
vn 0.00713956 -0.0172364 -0.0172364
v -0.13671 0.0360239 -0.105688
vn 0.00713956 -0.0172364 -0.0172364
v -0.0215739 0.046316 -0.00150573
vn -0.00713956 0.0172364 0.0172364
v -0.0215739 0.046316 -0.00150573
vn 0.00713956 -0.0172364 -0.0172364
v -0.172013 0.0599233 -0.0595968
vn -0.00713956 0.0172364 0.0172364
v -0.172013 0.0599233 -0.0595968
vn 0.00713956 -0.0172364 -0.0172364
v -0.0141547 0.0323631 -0.0369466
vn -0.00713956 0.0172364 0.0172364
v -0.0141547 0.0323631 -0.0369466
vn 0.00713956 -0.0172364 -0.0172364
v -0.152538 0.0657908 -0.0300746
vn -0.00713956 0.0172364 0.0172364
v -0.152538 0.0657908 -0.0300746
vn 0.00713956 -0.0172364 -0.0172364
v -0.000419924 0.0705819 -0.0278746
vn -0.00836696 -0.0129278 0.0201997
v -0.0215739 0.046316 -0.00150573
vn -0.00836696 -0.0129278 0.0201997
v -0.0178639 0.039339 -0.0192262
vn -0.00836696 -0.0129278 0.0201997
v -0.0178639 0.039339 -0.0192262
vn 0.00836696 0.0129278 -0.0201997
v -0.0215739 0.046316 -0.00150573
vn 0.00836696 0.0129278 -0.0201997
v -0.000419924 0.0705819 -0.0278746
vn 0.00836696 0.0129278 -0.0201997
v -0.216536 0.0658689 -0.0712578
vn -0.00713956 0.0172364 0.0172364
v -0.216536 0.0658689 -0.0712578
vn 0.00713956 -0.0172364 -0.0172364
v 0.000656806 0.0628571 -0.0396648
vn -0.00836696 -0.0129278 0.0201997
v -0.0141547 0.0323631 -0.0369466
vn -0.00836696 -0.0129278 0.0201997
v -0.0141547 0.0323631 -0.0369466
vn 0.00836696 0.0129278 -0.0201997
v 0.000656806 0.0628571 -0.0396648
vn 0.00836696 0.0129278 -0.0201997
v -0.158673 0.0773294 -0.000767031
vn -0.00713956 0.0172364 0.0172364
v -0.158673 0.0773294 -0.000767031
vn 0.00713956 -0.0172364 -0.0172364
v -0.00460114 0.0727456 -0.0145443
vn -0.00836696 -0.0129278 0.0201997
v -0.00460114 0.0727456 -0.0145443
vn 0.00836696 0.0129278 -0.0201997
v -0.231373 0.093773 -0.000375243
vn -0.00713956 0.0172364 0.0172364
v -0.231373 0.093773 -0.000375243
vn 0.00713956 -0.0172364 -0.0172364
v -0.201698 0.0379648 -0.14214
vn -0.00713956 0.0172364 0.0172364
v -0.201698 0.0379648 -0.14214
vn 0.00713956 -0.0172364 -0.0172364
v -0.00160384 0.0512297 -0.0473813
vn -0.00836696 -0.0129278 0.0201997
v -0.00160384 0.0512297 -0.0473813
vn 0.00836696 0.0129278 -0.0201997
v -0.01099 0.0688819 -0.0025398
vn -0.00836696 -0.0129278 0.0201997
v -0.01099 0.0688819 -0.0025398
vn 0.00836696 0.0129278 -0.0201997
v -0.270916 0.050454 -0.0335229
vn -0.00972015 0 0.0234666
v -0.242089 0.0870156 4.18841e-05
vn -0.00972015 0 0.0234666
v -0.270217 0.0692777 0.00113685
vn -0.00972015 0 0.0234666
v -0.227251 0.0591116 -0.0708407
vn -0.00972015 0 0.0234666
v -0.270217 0.0692777 0.00113685
vn 0.00972015 0 -0.0234666
v -0.242089 0.0870156 4.18841e-05
vn 0.00972015 0 -0.0234666
v -0.270916 0.050454 -0.0335229
vn 0.00972015 0 -0.0234666
v -0.227251 0.0591116 -0.0708407
vn 0.00972015 0 -0.0234666
v -0.266096 0.0346158 -0.0693286
vn -0.00972015 0 0.0234666
v -0.266096 0.0346158 -0.0693286
vn 0.00972015 0 -0.0234666
v -0.255882 0.0221794 -0.105344
vn -0.00972015 0 0.0234666
v -0.255882 0.0221794 -0.105344
vn 0.00972015 0 -0.0234666
v -0.212414 0.0312075 -0.141723
vn -0.00972015 0 0.0234666
v -0.212414 0.0312075 -0.141723
vn 0.00972015 0 -0.0234666
v -0.240542 0.0134695 -0.140628
vn -0.00972015 0 0.0234666
v -0.240542 0.0134695 -0.140628
vn 0.00972015 0 -0.0234666
v -0.22521 0.0647201 0.0724378
vn -0.0234665 0 0.00972018
v -0.197617 0.0491818 0.144416
vn -0.0234665 0 0.00972018
v -0.208332 0.0424245 0.144834
vn -0.0234665 0 0.00972018
v -0.214495 0.0714774 0.0720206
vn -0.0234665 0 0.00972018
v -0.208332 0.0424245 0.144834
vn 0.0234665 0 -0.00972018
v -0.197617 0.0491818 0.144416
vn 0.0234665 0 -0.00972018
v -0.22521 0.0647201 0.0724378
vn 0.0234665 0 -0.00972018
v -0.214495 0.0714774 0.0720206
vn 0.0234665 0 -0.00972018
v -0.242089 0.0870156 4.18841e-05
vn -0.0234665 0 0.00972018
v -0.242089 0.0870156 4.18841e-05
vn 0.0234665 0 -0.00972018
v -0.231373 0.093773 -0.000375243
vn -0.0234665 0 0.00972018
v -0.231373 0.093773 -0.000375243
vn 0.0234665 0 -0.00972018
v -0.140668 0.0535441 0.0764609
vn -0.0172364 0.0172364 0.00713954
v -0.151694 0.0681097 0.0291663
vn -0.0172364 0.0172364 0.00713954
v -0.122048 0.0570649 0.0460287
vn -0.0172364 0.0172364 0.00713954
v -0.170315 0.0645891 0.0595986
vn -0.0172364 0.0172364 0.00713954
v -0.122048 0.0570649 0.0460287
vn 0.0172364 -0.0172364 -0.00713954
v -0.151694 0.0681097 0.0291663
vn 0.0172364 -0.0172364 -0.00713954
v -0.140668 0.0535441 0.0764609
vn 0.0172364 -0.0172364 -0.00713954
v -0.170315 0.0645891 0.0595986
vn 0.0172364 -0.0172364 -0.00713954
v -0.151694 0.0681097 0.0291663
vn -0.0172364 0.0172364 0.00713954
v -0.0173538 0.0407411 0.0165931
vn -0.0172364 0.0172364 0.00713954
v -0.122048 0.0570649 0.0460287
vn -0.0172364 0.0172364 0.00713954
v -0.158673 0.0773294 -0.000767031
vn -0.0172364 0.0172364 0.00713954
v -0.122048 0.0570649 0.0460287
vn 0.0172364 -0.0172364 -0.00713954
v -0.0173538 0.0407411 0.0165931
vn 0.0172364 -0.0172364 -0.00713954
v -0.151694 0.0681097 0.0291663
vn 0.0172364 -0.0172364 -0.00713954
v -0.158673 0.0773294 -0.000767031
vn 0.0172364 -0.0172364 -0.00713954
v -0.0131343 0.0351673 0.0346919
vn -0.0172364 0.0172364 0.00713954
v -0.0131343 0.0351673 0.0346919
vn 0.0172364 -0.0172364 -0.00713954
v -0.170315 0.0645891 0.0595986
vn -0.0172364 0.0172364 0.00713954
v -0.170315 0.0645891 0.0595986
vn 0.0172364 -0.0172364 -0.00713954
v -0.0215739 0.046316 -0.00150573
vn -0.0172364 0.0172364 0.00713954
v -0.0215739 0.046316 -0.00150573
vn 0.0172364 -0.0172364 -0.00713954
v -0.140668 0.0535441 0.0764609
vn -0.0172364 0.0172364 0.00713954
v -0.140668 0.0535441 0.0764609
vn 0.0172364 -0.0172364 -0.00713954
v 0.000293946 0.0725455 0.0222731
vn -0.0201997 -0.0129278 0.00836698
v -0.0131343 0.0351673 0.0346919
vn -0.0201997 -0.0129278 0.00836698
v -0.0173538 0.0407411 0.0165931
vn -0.0201997 -0.0129278 0.00836698
v -0.0173538 0.0407411 0.0165931
vn 0.0201997 0.0129278 -0.00836698
v -0.0131343 0.0351673 0.0346919
vn 0.0201997 0.0129278 -0.00836698
v 0.000293946 0.0725455 0.0222731
vn 0.0201997 0.0129278 -0.00836698
v -0.214495 0.0714774 0.0720206
vn -0.0172364 0.0172364 0.00713954
v -0.214495 0.0714774 0.0720206
vn 0.0172364 -0.0172364 -0.00713954
v -0.00426666 0.0736648 0.00893953
vn -0.0201997 -0.0129278 0.00836698
v -0.0215739 0.046316 -0.00150573
vn -0.0201997 -0.0129278 0.00836698
v -0.0215739 0.046316 -0.00150573
vn 0.0201997 0.0129278 -0.00836698
v -0.00426666 0.0736648 0.00893953
vn 0.0201997 0.0129278 -0.00836698
v -0.133689 0.0443257 0.106394
vn -0.0172364 0.0172364 0.00713954
v -0.133689 0.0443257 0.106394
vn 0.0172364 -0.0172364 -0.00713954
v 0.00171487 0.0657633 0.0345955
vn -0.0201997 -0.0129278 0.00836698
v 0.00171487 0.0657633 0.0345955
vn 0.0201997 0.0129278 -0.00836698
v -0.197617 0.0491818 0.144416
vn -0.0172364 0.0172364 0.00713954
v -0.197617 0.0491818 0.144416
vn 0.0172364 -0.0172364 -0.00713954
v -0.231373 0.093773 -0.000375243
vn -0.0172364 0.0172364 0.00713954
v -0.231373 0.093773 -0.000375243
vn 0.0172364 -0.0172364 -0.00713954
v -0.01099 0.0688819 -0.0025398
vn -0.0201997 -0.0129278 0.00836698
v -0.01099 0.0688819 -0.0025398
vn 0.0201997 0.0129278 -0.00836698
v -0.00031286 0.0547777 0.0432591
vn -0.0201997 -0.0129278 0.00836698
v -0.00031286 0.0547777 0.0432591
vn 0.0201997 0.0129278 -0.00836698
v -0.252807 0.0306292 0.110522
vn -0.0234665 0 0.00972018
v -0.208332 0.0424245 0.144834
vn -0.0234665 0 0.00972018
v -0.23646 0.0246865 0.145929
vn -0.0234665 0 0.00972018
v -0.22521 0.0647201 0.0724378
vn -0.0234665 0 0.00972018
v -0.23646 0.0246865 0.145929
vn 0.0234665 0 -0.00972018
v -0.208332 0.0424245 0.144834
vn 0.0234665 0 -0.00972018
v -0.252807 0.0306292 0.110522
vn 0.0234665 0 -0.00972018
v -0.22521 0.0647201 0.0724378
vn 0.0234665 0 -0.00972018
v -0.264055 0.0402243 0.0739499
vn -0.0234665 0 0.00972018
v -0.264055 0.0402243 0.0739499
vn 0.0234665 0 -0.00972018
v -0.269909 0.0532212 0.0371675
vn -0.0234665 0 0.00972018
v -0.269909 0.0532212 0.0371675
vn 0.0234665 0 -0.00972018
v -0.242089 0.0870156 4.18841e-05
vn -0.0234665 0 0.00972018
v -0.242089 0.0870156 4.18841e-05
vn 0.0234665 0 -0.00972018
v -0.270217 0.0692777 0.00113685
vn -0.0234665 0 0.00972018
v -0.270217 0.0692777 0.00113685
vn 0.0234665 0 -0.00972018
v -0.169625 -0.0170112 0.176334
vn -0.0234666 0 -0.00972015
v -0.120202 -0.0696897 0.207417
vn -0.0234666 0 -0.00972015
v -0.130918 -0.076447 0.207834
vn -0.0234666 0 -0.00972015
v -0.15891 -0.0102539 0.175917
vn -0.0234666 0 -0.00972015
v -0.130918 -0.076447 0.207834
vn 0.0234666 0 0.00972015
v -0.120202 -0.0696897 0.207417
vn 0.0234666 0 0.00972015
v -0.169625 -0.0170112 0.176334
vn 0.0234666 0 0.00972015
v -0.15891 -0.0102539 0.175917
vn 0.0234666 0 0.00972015
v -0.208332 0.0424245 0.144834
vn -0.0234666 0 -0.00972015
v -0.208332 0.0424245 0.144834
vn 0.0234666 0 0.00972015
v -0.197617 0.0491818 0.144416
vn -0.0234666 0 -0.00972015
v -0.197617 0.0491818 0.144416
vn 0.0234666 0 0.00972015
v -0.0923982 -0.0190771 0.139997
vn -0.0172364 0.0172364 -0.00713956
v -0.117685 0.0197509 0.119419
vn -0.0172364 0.0172364 -0.00713956
v -0.0860127 0.00407874 0.113384
vn -0.0172364 0.0172364 -0.00713956
v -0.124072 -0.00340539 0.146033
vn -0.0172364 0.0172364 -0.00713956
v -0.0860127 0.00407874 0.113384
vn 0.0172364 -0.0172364 0.00713956
v -0.117685 0.0197509 0.119419
vn 0.0172364 -0.0172364 0.00713956
v -0.0923982 -0.0190771 0.139997
vn 0.0172364 -0.0172364 0.00713956
v -0.124072 -0.00340539 0.146033
vn 0.0172364 -0.0172364 0.00713956
v -0.117685 0.0197509 0.119419
vn -0.0172364 0.0172364 -0.00713956
v -0.00345761 0.0203085 0.0425667
vn -0.0172364 0.0172364 -0.00713956
v -0.0860127 0.00407874 0.113384
vn -0.0172364 0.0172364 -0.00713956
v -0.133689 0.0443257 0.106394
vn -0.0172364 0.0172364 -0.00713956
v -0.0860127 0.00407874 0.113384
vn 0.0172364 -0.0172364 0.00713956
v -0.00345761 0.0203085 0.0425667
vn 0.0172364 -0.0172364 0.00713956
v -0.117685 0.0197509 0.119419
vn 0.0172364 -0.0172364 0.00713956
v -0.133689 0.0443257 0.106394
vn 0.0172364 -0.0172364 0.00713956
v 0.00621913 0.00544981 0.050443
vn -0.0172364 0.0172364 -0.00713956
v 0.00621913 0.00544981 0.050443
vn 0.0172364 -0.0172364 0.00713956
v -0.124072 -0.00340539 0.146033
vn -0.0172364 0.0172364 -0.00713956
v -0.124072 -0.00340539 0.146033
vn 0.0172364 -0.0172364 0.00713956
v -0.0131343 0.0351673 0.0346919
vn -0.0172364 0.0172364 -0.00713956
v -0.0131343 0.0351673 0.0346919
vn 0.0172364 -0.0172364 0.00713956
v -0.0923982 -0.0190771 0.139997
vn -0.0172364 0.0172364 -0.00713956
v -0.0923982 -0.0190771 0.139997
vn 0.0172364 -0.0172364 0.00713956
v 0.0197489 0.0439394 0.0586369
vn -0.0201997 -0.0129278 -0.00836696
v 0.00621913 0.00544981 0.050443
vn -0.0201997 -0.0129278 -0.00836696
v -0.00345761 0.0203085 0.0425667
vn -0.0201997 -0.0129278 -0.00836696
v -0.00345761 0.0203085 0.0425667
vn 0.0201997 0.0129278 0.00836696
v 0.00621913 0.00544981 0.050443
vn 0.0201997 0.0129278 0.00836696
v 0.0197489 0.0439394 0.0586369
vn 0.0201997 0.0129278 0.00836696
v -0.15891 -0.0102539 0.175917
vn -0.0172364 0.0172364 -0.00713956
v -0.15891 -0.0102539 0.175917
vn 0.0172364 -0.0172364 0.00713956
v 0.0108251 0.052368 0.0516251
vn -0.0201997 -0.0129278 -0.00836696
v -0.0131343 0.0351673 0.0346919
vn -0.0201997 -0.0129278 -0.00836696
v -0.0131343 0.0351673 0.0346919
vn 0.0201997 0.0129278 0.00836696
v 0.0108251 0.052368 0.0516251
vn 0.0201997 0.0129278 0.00836696
v -0.076394 -0.0436518 0.153023
vn -0.0172364 0.0172364 -0.00713956
v -0.076394 -0.0436518 0.153023
vn 0.0172364 -0.0172364 0.00713956
v 0.0245427 0.0313042 0.0627879
vn -0.0201997 -0.0129278 -0.00836696
v 0.0245427 0.0313042 0.0627879
vn 0.0201997 0.0129278 0.00836696
v -0.120202 -0.0696897 0.207417
vn -0.0172364 0.0172364 -0.00713956
v -0.120202 -0.0696897 0.207417
vn 0.0172364 -0.0172364 0.00713956
v -0.197617 0.0491818 0.144416
vn -0.0172364 0.0172364 -0.00713956
v -0.197617 0.0491818 0.144416
vn 0.0172364 -0.0172364 0.00713956
v -0.00031286 0.0547777 0.0432591
vn -0.0201997 -0.0129278 -0.00836696
v -0.00031286 0.0547777 0.0432591
vn 0.0201997 0.0129278 0.00836696
v 0.024174 0.0171776 0.0631862
vn -0.0201997 -0.0129278 -0.00836696
v 0.024174 0.0171776 0.0631862
vn 0.0201997 0.0129278 0.00836696
v -0.186163 -0.0699178 0.193701
vn -0.0234666 0 -0.00972015
v -0.130918 -0.076447 0.207834
vn -0.0234666 0 -0.00972015
v -0.159046 -0.094185 0.208929
vn -0.0234666 0 -0.00972015
v -0.169625 -0.0170112 0.176334
vn -0.0234666 0 -0.00972015
v -0.159046 -0.094185 0.208929
vn 0.0234666 0 0.00972015
v -0.130918 -0.076447 0.207834
vn 0.0234666 0 0.00972015
v -0.186163 -0.0699178 0.193701
vn 0.0234666 0 0.00972015
v -0.169625 -0.0170112 0.176334
vn 0.0234666 0 0.00972015
v -0.20847 -0.041507 0.177846
vn -0.0234666 0 -0.00972015
v -0.20847 -0.041507 0.177846
vn 0.0234666 0 0.00972015
v -0.225382 -0.00969553 0.161782
vn -0.0234666 0 -0.00972015
v -0.225382 -0.00969553 0.161782
vn 0.0234666 0 0.00972015
v -0.208332 0.0424245 0.144834
vn -0.0234666 0 -0.00972015
v -0.208332 0.0424245 0.144834
vn 0.0234666 0 0.00972015
v -0.23646 0.0246865 0.145929
vn -0.0234666 0 -0.00972015
v -0.23646 0.0246865 0.145929
vn 0.0234666 0 0.00972015
v -0.0930559 -0.138206 0.179987
vn -0.00972018 0 -0.0234665
v -0.0444785 -0.193207 0.151723
vn -0.00972018 0 -0.0234665
v -0.0551939 -0.199965 0.152141
vn -0.00972018 0 -0.0234665
v -0.0823404 -0.131449 0.17957
vn -0.00972018 0 -0.0234665
v -0.0551939 -0.199965 0.152141
vn 0.00972018 0 0.0234665
v -0.0444785 -0.193207 0.151723
vn 0.00972018 0 0.0234665
v -0.0930559 -0.138206 0.179987
vn 0.00972018 0 0.0234665
v -0.0823404 -0.131449 0.17957
vn 0.00972018 0 0.0234665
v -0.130918 -0.076447 0.207834
vn -0.00972018 0 -0.0234665
v -0.130918 -0.076447 0.207834
vn 0.00972018 0 0.0234665
v -0.120202 -0.0696897 0.207417
vn -0.00972018 0 -0.0234665
v -0.120202 -0.0696897 0.207417
vn 0.00972018 0 0.0234665
v -0.036005 -0.109533 0.123316
vn -0.00713954 0.0172364 -0.0172364
v -0.0607393 -0.0691871 0.141508
vn -0.00713954 0.0172364 -0.0172364
v -0.0363727 -0.074492 0.115753
vn -0.00713954 0.0172364 -0.0172364
v -0.0603733 -0.104229 0.149072
vn -0.00713954 0.0172364 -0.0172364
v -0.0363727 -0.074492 0.115753
vn 0.00713954 -0.0172364 0.0172364
v -0.0607393 -0.0691871 0.141508
vn 0.00713954 -0.0172364 0.0172364
v -0.036005 -0.109533 0.123316
vn 0.00713954 -0.0172364 0.0172364
v -0.0603733 -0.104229 0.149072
vn 0.00713954 -0.0172364 0.0172364
v -0.0607393 -0.0691871 0.141508
vn -0.00713954 0.0172364 -0.0172364
v 0.0156845 -0.0099898 0.0434801
vn -0.00713954 0.0172364 -0.0172364
v -0.0363727 -0.074492 0.115753
vn -0.00713954 0.0172364 -0.0172364
v -0.076394 -0.0436518 0.153023
vn -0.00713954 0.0172364 -0.0172364
v -0.0363727 -0.074492 0.115753
vn 0.00713954 -0.0172364 0.0172364
v 0.0156845 -0.0099898 0.0434801
vn 0.00713954 -0.0172364 0.0172364
v -0.0607393 -0.0691871 0.141508
vn 0.00713954 -0.0172364 0.0172364
v -0.076394 -0.0436518 0.153023
vn 0.00713954 -0.0172364 0.0172364
v 0.0251499 -0.0254294 0.0365186
vn -0.00713954 0.0172364 -0.0172364
v 0.0251499 -0.0254294 0.0365186
vn 0.00713954 -0.0172364 0.0172364
v -0.0603733 -0.104229 0.149072
vn -0.00713954 0.0172364 -0.0172364
v -0.0603733 -0.104229 0.149072
vn 0.00713954 -0.0172364 0.0172364
v 0.00621913 0.00544981 0.050443
vn -0.00713954 0.0172364 -0.0172364
v 0.00621913 0.00544981 0.050443
vn 0.00713954 -0.0172364 0.0172364
v -0.036005 -0.109533 0.123316
vn -0.00713954 0.0172364 -0.0172364
v -0.036005 -0.109533 0.123316
vn 0.00713954 -0.0172364 0.0172364
v 0.0465483 0.00152111 0.0599163
vn -0.00836698 -0.0129278 -0.0201997
v 0.0251499 -0.0254294 0.0365186
vn -0.00836698 -0.0129278 -0.0201997
v 0.0156845 -0.0099898 0.0434801
vn -0.00836698 -0.0129278 -0.0201997
v 0.0156845 -0.0099898 0.0434801
vn 0.00836698 0.0129278 0.0201997
v 0.0251499 -0.0254294 0.0365186
vn 0.00836698 0.0129278 0.0201997
v 0.0465483 0.00152111 0.0599163
vn 0.00836698 0.0129278 0.0201997
v -0.0823404 -0.131449 0.17957
vn -0.00713954 0.0172364 -0.0172364
v -0.0823404 -0.131449 0.17957
vn 0.00713954 -0.0172364 0.0172364
v 0.0370927 0.01144 0.0633868
vn -0.00836698 -0.0129278 -0.0201997
v 0.00621913 0.00544981 0.050443
vn -0.00836698 -0.0129278 -0.0201997
v 0.00621913 0.00544981 0.050443
vn 0.00836698 0.0129278 0.0201997
v 0.0370927 0.01144 0.0633868
vn 0.00836698 0.0129278 0.0201997
v -0.0203503 -0.135068 0.111802
vn -0.00713954 0.0172364 -0.0172364
v -0.0203503 -0.135068 0.111802
vn 0.00713954 -0.0172364 0.0172364
v 0.0505104 -0.0104465 0.053518
vn -0.00836698 -0.0129278 -0.0201997
v 0.0505104 -0.0104465 0.053518
vn 0.00836698 0.0129278 0.0201997
v -0.0444785 -0.193207 0.151723
vn -0.00713954 0.0172364 -0.0172364
v -0.0444785 -0.193207 0.151723
vn 0.00713954 -0.0172364 0.0172364
v -0.120202 -0.0696897 0.207417
vn -0.00713954 0.0172364 -0.0172364
v -0.120202 -0.0696897 0.207417
vn 0.00713954 -0.0172364 0.0172364
v 0.024174 0.0171776 0.0631862
vn -0.00836698 -0.0129278 -0.0201997
v 0.024174 0.0171776 0.0631862
vn 0.00836698 0.0129278 0.0201997
v 0.0481261 -0.0218921 0.0455703
vn -0.00836698 -0.0129278 -0.0201997
v 0.0481261 -0.0218921 0.0455703
vn 0.00836698 0.0129278 0.0201997
v -0.110022 -0.192289 0.167286
vn -0.00972018 0 -0.0234665
v -0.0551939 -0.199965 0.152141
vn -0.00972018 0 -0.0234665
v -0.083322 -0.217703 0.153236
vn -0.00972018 0 -0.0234665
v -0.0930559 -0.138206 0.179987
vn -0.00972018 0 -0.0234665
v -0.083322 -0.217703 0.153236
vn 0.00972018 0 0.0234665
v -0.0551939 -0.199965 0.152141
vn 0.00972018 0 0.0234665
v -0.110022 -0.192289 0.167286
vn 0.00972018 0 0.0234665
v -0.0930559 -0.138206 0.179987
vn 0.00972018 0 0.0234665
v -0.1319 -0.162702 0.181499
vn -0.00972018 0 -0.0234665
v -0.1319 -0.162702 0.181499
vn 0.00972018 0 0.0234665
v -0.148385 -0.129713 0.195503
vn -0.00972018 0 -0.0234665
v -0.148385 -0.129713 0.195503
vn 0.00972018 0 0.0234665
v -0.130918 -0.076447 0.207834
vn -0.00972018 0 -0.0234665
v -0.130918 -0.076447 0.207834
vn 0.00972018 0 0.0234665
v -0.159046 -0.094185 0.208929
vn -0.00972018 0 -0.0234665
v -0.159046 -0.094185 0.208929
vn 0.00972018 0 0.0234665
v 0.51209 0.32444 0.0301158
vn -0.00426936 -0.024672 -0.00426936
v 0.49955 0.322865 -0.0132777
vn -0.00603781 -0.024672 0
v 0.492978 0.353787 0.0145633
vn -0.00603781 -0.024672 0
v 0.503043 0.317502 -0.0104352
vn -0.00426936 -0.024672 -0.00426936
v 0.498027 0.324877 -0.0198104
vn -0.00426936 -0.024672 0.00426936
v 0.501443 0.359125 0.0142338
vn -0.0254 0 0
v 0.51209 0.32444 0.0301158
vn -0.0179605 0 -0.0179605
v 0.492978 0.353787 0.0145633
vn -0.0254 0 0
v 0.506459 0.311929 -0.012948
vn 0 -0.024672 -0.00603781
v 0.503153 0.316857 -0.0180379
vn 0 -0.0254 0
v 0.49955 0.322865 -0.0132777
vn 0 -0.0254 0
v 0.503043 0.317502 -0.0104352
vn 0 -0.0254 0
v 0.484645 0.364794 -0.0211823
vn -0.00426936 -0.024672 0.00426936
v 0.502782 0.316786 -0.0287193
vn 0 -0.0254 0
v 0.498027 0.324877 -0.0198104
vn 0 -0.0254 0
v 0.520555 0.329778 0.0297863
vn -0.0179605 0 -0.0179605
v 0.49311 0.370133 -0.0215118
vn -0.0179605 0 0.0179605
v 0.530785 0.293946 0.0163672
vn 0 -0.024672 -0.00603781
v 0.507798 0.309411 -0.0193441
vn 0 -0.0254 0
v 0.506459 0.311929 -0.012948
vn 0 -0.0254 0
v 0.50209 0.318421 -0.020026
vn 0 -0.0254 0
v 0.499366 0.322359 -0.0262065
vn -0 -0.024672 0.00603781
v 0.484645 0.364794 -0.0211823
vn -0.0179605 0 0.0179605
v 0.499366 0.322359 -0.0262065
vn 0 -0.0254 0
v 0.53925 0.299285 0.0160377
vn 0 0 -0.0254
v 0.530785 0.293946 0.0163672
vn 0 0 -0.0254
v 0.53811 0.280169 -0.0186312
vn 0.00426936 -0.024672 -0.00426936
v 0.507798 0.309411 -0.0193441
vn 0.00426936 -0.024672 -0.00426936
v 0.00573839 0.00318012 0.00132529
vn -0.0127 0 -0.021997
v 0.50209 0.318421 -0.020026
vn -0.0127 0 0.021997
v 0.503153 0.316857 -0.0180379
vn -0.0127 0 -0.021997
v 0.51902 0.329097 -0.020685
vn -0.0127 0 0.021997
v 0.506275 0.311423 -0.0258768
vn 0 -0.0254 0
v 0.491971 0.351017 -0.0561808
vn -0 -0.024672 0.00603781
v 0.491971 0.351017 -0.0561808
vn 0 0 0.0254
v 0.510665 0.320524 -0.0699294
vn 0.00426936 -0.024672 0.00426936
v 0.502782 0.316786 -0.0287193
vn 0.00426936 -0.024672 0.00426936
v 0.546575 0.285508 -0.0189608
vn 0.0179605 0 -0.0179605
v 0.53811 0.280169 -0.0186312
vn 0.0179605 0 -0.0179605
v 0.506275 0.311423 -0.0258768
vn 0.00603781 -0.024672 0
v 0.00467476 0.00474405 -0.000662761
vn -0.0127 0 0.021997
v 0.503495 0.316153 -0.0206678
vn 0.0254 0 0
v 0.520083 0.327533 -0.018697
vn -0.0127 0 -0.021997
v 0.503495 0.316153 -0.0206678
vn 0 -0.0254 0
v 0.500436 0.356356 -0.0565103
vn 0 0 0.0254
v 0.529777 0.291177 -0.0543768
vn 0.00603781 -0.024672 0
v 0.529777 0.291177 -0.0543768
vn 0.0254 0 0
v 0.00573839 0.00318012 0.00132529
vn 0 -0.0254 0
v 0.00607974 0.00247648 -0.00130456
vn 0 -0.0254 0
v 0.00467476 0.00474405 -0.000662761
vn 0 -0.0254 0
v 0.00607974 0.00247648 -0.00130456
vn 0.0254 0 0
v 0.520425 0.32683 -0.0213268
vn 0.0254 0 0
v 0.520083 0.327533 -0.018697
vn 0 0.0254 0
v 0.51902 0.329097 -0.020685
vn 0 0.0254 0
v 0.520425 0.32683 -0.0213268
vn 0 0.0254 0
v 0.510665 0.320524 -0.0699294
vn 0.0179605 0 0.0179605
v 0.538242 0.296515 -0.0547064
vn 0.0254 0 0
v 0.51913 0.325862 -0.0702589
vn 0.0179605 0 0.0179605
v 0.492978 0.353787 0.0145633
vn 0.00603781 0.024672 0
v 0.49955 0.322865 -0.0132777
vn 0.00603781 0.024672 0
v 0.51209 0.32444 0.0301158
vn 0.00426936 0.024672 0.00426936
v 0.503043 0.317502 -0.0104352
vn 0.00426936 0.024672 0.00426936
v 0.498027 0.324877 -0.0198104
vn 0.00426936 0.024672 -0.00426936
v 0.492978 0.353787 0.0145633
vn 0.0254 0 0
v 0.51209 0.32444 0.0301158
vn 0.0179605 0 0.0179605
v 0.501443 0.359125 0.0142338
vn 0.0254 0 0
v 0.506459 0.311929 -0.012948
vn 0 0.024672 0.00603781
v 0.503043 0.317502 -0.0104352
vn 0 0.0254 0
v 0.49955 0.322865 -0.0132777
vn 0 0.0254 0
v 0.503153 0.316857 -0.0180379
vn 0 0.0254 0
v 0.484645 0.364794 -0.0211823
vn 0.00426936 0.024672 -0.00426936
v 0.498027 0.324877 -0.0198104
vn 0 0.0254 0
v 0.502782 0.316786 -0.0287193
vn 0 0.0254 0
v 0.520555 0.329778 0.0297863
vn 0.0179605 0 0.0179605
v 0.49311 0.370133 -0.0215118
vn 0.0179605 0 -0.0179605
v 0.530785 0.293946 0.0163672
vn 0 0.024672 0.00603781
v 0.506459 0.311929 -0.012948
vn 0 0.0254 0
v 0.507798 0.309411 -0.0193441
vn 0 0.0254 0
v 0.50209 0.318421 -0.020026
vn 0 0.0254 0
v 0.499366 0.322359 -0.0262065
vn 0 0.024672 -0.00603781
v 0.484645 0.364794 -0.0211823
vn 0.0179605 0 -0.0179605
v 0.499366 0.322359 -0.0262065
vn 0 0.0254 0
v 0.53925 0.299285 0.0160377
vn 0 0 0.0254
v 0.530785 0.293946 0.0163672
vn 0 0 0.0254
v 0.53811 0.280169 -0.0186312
vn -0.00426936 0.024672 0.00426936
v 0.507798 0.309411 -0.0193441
vn -0.00426936 0.024672 0.00426936
v 0.503153 0.316857 -0.0180379
vn 0.0127 -0 0.021997
v 0.50209 0.318421 -0.020026
vn 0.0127 0 -0.021997
v 0.00573839 0.00318012 0.00132529
vn 0.0127 -0 0.021997
v 0.51902 0.329097 -0.020685
vn 0.0127 0 -0.021997
v 0.506275 0.311423 -0.0258768
vn 0 0.0254 0
v 0.491971 0.351017 -0.0561808
vn 0 0.024672 -0.00603781
v 0.491971 0.351017 -0.0561808
vn 0 0 -0.0254
v 0.502782 0.316786 -0.0287193
vn -0.00426936 0.024672 -0.00426936
v 0.510665 0.320524 -0.0699294
vn -0.00426936 0.024672 -0.00426936
v 0.546575 0.285508 -0.0189608
vn -0.0179605 0 0.0179605
v 0.53811 0.280169 -0.0186312
vn -0.0179605 0 0.0179605
v 0.506275 0.311423 -0.0258768
vn -0.00603781 0.024672 0
v 0.00467476 0.00474405 -0.000662761
vn 0.0127 0 -0.021997
v 0.503495 0.316153 -0.0206678
vn -0.0254 0 0
v 0.520083 0.327533 -0.018697
vn 0.0127 -0 0.021997
v 0.503495 0.316153 -0.0206678
vn 0 0.0254 0
v 0.500436 0.356356 -0.0565103
vn 0 0 -0.0254
v 0.529777 0.291177 -0.0543768
vn -0.00603781 0.024672 0
v 0.529777 0.291177 -0.0543768
vn -0.0254 0 0
v 0.00467476 0.00474405 -0.000662761
vn 0 0.0254 0
v 0.00607974 0.00247648 -0.00130456
vn 0 0.0254 0
v 0.00573839 0.00318012 0.00132529
vn 0 0.0254 0
v 0.00607974 0.00247648 -0.00130456
vn -0.0254 0 0
v 0.520425 0.32683 -0.0213268
vn -0.0254 0 0
v 0.520425 0.32683 -0.0213268
vn 0 -0.0254 0
v 0.51902 0.329097 -0.020685
vn 0 -0.0254 0
v 0.520083 0.327533 -0.018697
vn 0 -0.0254 0
v 0.510665 0.320524 -0.0699294
vn -0.0179605 0 -0.0179605
v 0.538242 0.296515 -0.0547064
vn -0.0254 0 0
v 0.51913 0.325862 -0.0702589
vn -0.0179605 0 -0.0179605
f 1//1 2//2 3//3
f 2//2 1//1 4//4
f 5//5 6//6 7//7
f 8//8 7//7 6//6
f 4//4 1//1 9//9
f 10//10 7//7 8//8
f 4//4 9//9 11//11
f 12//12 10//10 8//8
f 77//77 78//78 79//79
f 78//78 77//77 80//80
f 81//81 82//82 83//83
f 84//84 83//83 82//82
f 80//80 77//77 85//85
f 86//86 83//83 84//84
f 80//80 85//85 87//87
f 88//88 86//86 84//84
f 153//153 154//154 155//155
f 154//154 153//153 156//156
f 157//157 158//158 159//159
f 160//160 159//159 158//158
f 156//156 153//153 161//161
f 162//162 159//159 160//160
f 156//156 161//161 163//163
f 164//164 162//162 160//160
f 229//229 230//230 231//231
f 230//230 229//229 232//232
f 233//233 234//234 235//235
f 236//236 235//235 234//234
f 232//232 229//229 237//237
f 238//238 235//235 236//236
f 232//232 237//237 239//239
f 240//240 238//238 236//236
f 305//305 306//306 307//307
f 306//306 305//305 308//308
f 309//309 310//310 311//311
f 312//312 311//311 310//310
f 308//308 305//305 313//313
f 314//314 311//311 312//312
f 308//308 313//313 315//315
f 316//316 314//314 312//312
f 381//381 382//382 383//383
f 382//382 381//381 384//384
f 385//385 386//386 387//387
f 388//388 387//387 386//386
f 384//384 381//381 389//389
f 390//390 387//387 388//388
f 384//384 389//389 391//391
f 392//392 390//390 388//388
f 457//457 458//458 459//459
f 458//458 457//457 460//460
f 461//461 462//462 463//463
f 464//464 463//463 462//462
f 460//460 457//457 465//465
f 466//466 463//463 464//464
f 460//460 465//465 467//467
f 468//468 466//466 464//464
f 533//533 534//534 535//535
f 534//534 533//533 536//536
f 537//537 538//538 539//539
f 540//540 539//539 538//538
f 536//536 533//533 541//541
f 542//542 539//539 540//540
f 536//536 541//541 543//543
f 544//544 542//542 540//540
f 13//13 14//14 15//15
f 14//14 13//13 16//16
f 17//17 18//18 19//19
f 20//20 19//19 18//18
f 89//89 90//90 91//91
f 90//90 89//89 92//92
f 93//93 94//94 95//95
f 96//96 95//95 94//94
f 165//165 166//166 167//167
f 166//166 165//165 168//168
f 169//169 170//170 171//171
f 172//172 171//171 170//170
f 241//241 242//242 243//243
f 242//242 241//241 244//244
f 245//245 246//246 247//247
f 248//248 247//247 246//246
f 317//317 318//318 319//319
f 318//318 317//317 320//320
f 321//321 322//322 323//323
f 324//324 323//323 322//322
f 393//393 394//394 395//395
f 394//394 393//393 396//396
f 397//397 398//398 399//399
f 400//400 399//399 398//398
f 469//469 470//470 471//471
f 470//470 469//469 472//472
f 473//473 474//474 475//475
f 476//476 475//475 474//474
f 545//545 546//546 547//547
f 546//546 545//545 548//548
f 549//549 550//550 551//551
f 552//552 551//551 550//550
f 609//609 610//610 611//611
f 610//610 609//609 612//612
f 613//613 611//611 610//610
f 614//614 615//615 616//616
f 609//609 617//617 612//612
f 618//618 619//619 620//620
f 611//611 613//613 621//621
f 622//622 623//623 619//619
f 615//615 614//614 624//624
f 616//616 625//625 614//614
f 617//617 609//609 626//626
f 627//627 620//620 628//628
f 629//629 619//619 618//618
f 618//618 620//620 627//627
f 630//630 621//621 613//613
f 625//625 616//616 631//631
f 623//623 622//622 632//632
f 622//622 619//619 629//629
f 633//633 615//615 624//624
f 615//615 633//633 634//634
f 635//635 617//617 626//626
f 617//617 635//635 636//636
f 637//637 638//638 639//639
f 640//640 639//639 638//638
f 641//641 618//618 627//627
f 621//621 630//630 642//642
f 643//643 625//625 631//631
f 644//644 630//630 645//645
f 629//629 641//641 622//622
f 646//646 634//634 633//633
f 634//634 646//646 647//647
f 635//635 648//648 636//636
f 638//638 637//637 649//649
f 650//650 637//637 639//639
f 639//639 640//640 651//651
f 650//650 640//640 638//638
f 641//641 652//652 618//618
f 630//630 644//644 642//642
f 625//625 643//643 653//653
f 645//645 654//654 644//644
f 641//641 629//629 652//652
f 654//654 645//645 648//648
f 646//646 655//655 647//647
f 648//648 635//635 654//654
f 656//656 657//657 658//658
f 659//659 638//638 649//649
f 637//637 650//650 659//659
f 639//639 660//660 650//650
f 661//661 662//662 663//663
f 660//660 639//639 651//651
f 640//640 650//650 660//660
f 638//638 659//659 650//650
f 664//664 653//653 643//643
f 665//665 664//664 655//655
f 655//655 646//646 665//665
f 653//653 664//664 666//666
f 664//664 665//665 666//666
f 21//21 22//22 23//23
f 22//22 21//21 24//24
f 25//25 26//26 27//27
f 28//28 27//27 26//26
f 29//29 23//23 22//22
f 26//26 25//25 30//30
f 31//31 24//24 21//21
f 27//27 28//28 32//32
f 22//22 24//24 33//33
f 34//34 28//28 26//26
f 29//29 35//35 23//23
f 25//25 36//36 30//30
f 37//37 38//38 39//39
f 40//40 41//41 42//42
f 24//24 31//31 43//43
f 44//44 32//32 28//28
f 45//45 39//39 46//46
f 47//47 40//40 48//48
f 35//35 29//29 49//49
f 50//50 30//30 36//36
f 51//51 38//38 37//37
f 42//42 41//41 52//52
f 37//37 39//39 45//45
f 48//48 40//40 42//42
f 31//31 53//53 43//43
f 44//44 54//54 32//32
f 24//24 43//43 55//55
f 56//56 44//44 28//28
f 45//45 46//46 57//57
f 58//58 47//47 48//48
f 53//53 35//35 49//49
f 50//50 36//36 54//54
f 38//38 51//51 59//59
f 60//60 52//52 41//41
f 35//35 53//53 31//31
f 32//32 54//54 36//36
f 61//61 62//62 63//63
f 62//62 61//61 64//64
f 65//65 66//66 67//67
f 68//68 67//67 66//66
f 64//64 61//61 69//69
f 70//70 67//67 68//68
f 64//64 69//69 71//71
f 72//72 70//70 68//68
f 64//64 71//71 73//73
f 74//74 72//72 68//68
f 73//73 71//71 75//75
f 76//76 72//72 74//74
f 97//97 98//98 99//99
f 98//98 97//97 100//100
f 101//101 102//102 103//103
f 104//104 103//103 102//102
f 105//105 99//99 98//98
f 102//102 101//101 106//106
f 107//107 100//100 97//97
f 103//103 104//104 108//108
f 98//98 100//100 109//109
f 110//110 104//104 102//102
f 105//105 111//111 99//99
f 101//101 112//112 106//106
f 113//113 114//114 115//115
f 116//116 117//117 118//118
f 100//100 107//107 119//119
f 120//120 108//108 104//104
f 121//121 115//115 122//122
f 123//123 116//116 124//124
f 111//111 105//105 125//125
f 126//126 106//106 112//112
f 127//127 114//114 113//113
f 118//118 117//117 128//128
f 113//113 115//115 121//121
f 124//124 116//116 118//118
f 107//107 129//129 119//119
f 120//120 130//130 108//108
f 100//100 119//119 131//131
f 132//132 120//120 104//104
f 121//121 122//122 133//133
f 134//134 123//123 124//124
f 129//129 111//111 125//125
f 126//126 112//112 130//130
f 114//114 127//127 135//135
f 136//136 128//128 117//117
f 111//111 129//129 107//107
f 108//108 130//130 112//112
f 137//137 138//138 139//139
f 138//138 137//137 140//140
f 141//141 142//142 143//143
f 144//144 143//143 142//142
f 140//140 137//137 145//145
f 146//146 143//143 144//144
f 140//140 145//145 147//147
f 148//148 146//146 144//144
f 140//140 147//147 149//149
f 150//150 148//148 144//144
f 149//149 147//147 151//151
f 152//152 148//148 150//150
f 173//173 174//174 175//175
f 174//174 173//173 176//176
f 177//177 178//178 179//179
f 180//180 179//179 178//178
f 181//181 175//175 174//174
f 178//178 177//177 182//182
f 183//183 176//176 173//173
f 179//179 180//180 184//184
f 174//174 176//176 185//185
f 186//186 180//180 178//178
f 181//181 187//187 175//175
f 177//177 188//188 182//182
f 189//189 190//190 191//191
f 192//192 193//193 194//194
f 176//176 183//183 195//195
f 196//196 184//184 180//180
f 197//197 191//191 198//198
f 199//199 192//192 200//200
f 187//187 181//181 201//201
f 202//202 182//182 188//188
f 203//203 190//190 189//189
f 194//194 193//193 204//204
f 189//189 191//191 197//197
f 200//200 192//192 194//194
f 183//183 205//205 195//195
f 196//196 206//206 184//184
f 176//176 195//195 207//207
f 208//208 196//196 180//180
f 197//197 198//198 209//209
f 210//210 199//199 200//200
f 205//205 187//187 201//201
f 202//202 188//188 206//206
f 190//190 203//203 211//211
f 212//212 204//204 193//193
f 187//187 205//205 183//183
f 184//184 206//206 188//188
f 213//213 214//214 215//215
f 214//214 213//213 216//216
f 217//217 218//218 219//219
f 220//220 219//219 218//218
f 216//216 213//213 221//221
f 222//222 219//219 220//220
f 216//216 221//221 223//223
f 224//224 222//222 220//220
f 216//216 223//223 225//225
f 226//226 224//224 220//220
f 225//225 223//223 227//227
f 228//228 224//224 226//226
f 249//249 250//250 251//251
f 250//250 249//249 252//252
f 253//253 254//254 255//255
f 256//256 255//255 254//254
f 257//257 251//251 250//250
f 254//254 253//253 258//258
f 259//259 252//252 249//249
f 255//255 256//256 260//260
f 250//250 252//252 261//261
f 262//262 256//256 254//254
f 257//257 263//263 251//251
f 253//253 264//264 258//258
f 265//265 266//266 267//267
f 268//268 269//269 270//270
f 252//252 259//259 271//271
f 272//272 260//260 256//256
f 273//273 267//267 274//274
f 275//275 268//268 276//276
f 263//263 257//257 277//277
f 278//278 258//258 264//264
f 279//279 266//266 265//265
f 270//270 269//269 280//280
f 265//265 267//267 273//273
f 276//276 268//268 270//270
f 259//259 281//281 271//271
f 272//272 282//282 260//260
f 252//252 271//271 283//283
f 284//284 272//272 256//256
f 273//273 274//274 285//285
f 286//286 275//275 276//276
f 281//281 263//263 277//277
f 278//278 264//264 282//282
f 266//266 279//279 287//287
f 288//288 280//280 269//269
f 263//263 281//281 259//259
f 260//260 282//282 264//264
f 289//289 290//290 291//291
f 290//290 289//289 292//292
f 293//293 294//294 295//295
f 296//296 295//295 294//294
f 292//292 289//289 297//297
f 298//298 295//295 296//296
f 292//292 297//297 299//299
f 300//300 298//298 296//296
f 292//292 299//299 301//301
f 302//302 300//300 296//296
f 301//301 299//299 303//303
f 304//304 300//300 302//302
f 325//325 326//326 327//327
f 326//326 325//325 328//328
f 329//329 330//330 331//331
f 332//332 331//331 330//330
f 333//333 327//327 326//326
f 330//330 329//329 334//334
f 335//335 328//328 325//325
f 331//331 332//332 336//336
f 326//326 328//328 337//337
f 338//338 332//332 330//330
f 333//333 339//339 327//327
f 329//329 340//340 334//334
f 341//341 342//342 343//343
f 344//344 345//345 346//346
f 328//328 335//335 347//347
f 348//348 336//336 332//332
f 349//349 343//343 350//350
f 351//351 344//344 352//352
f 339//339 333//333 353//353
f 354//354 334//334 340//340
f 355//355 342//342 341//341
f 346//346 345//345 356//356
f 341//341 343//343 349//349
f 352//352 344//344 346//346
f 335//335 357//357 347//347
f 348//348 358//358 336//336
f 328//328 347//347 359//359
f 360//360 348//348 332//332
f 349//349 350//350 361//361
f 362//362 351//351 352//352
f 357//357 339//339 353//353
f 354//354 340//340 358//358
f 342//342 355//355 363//363
f 364//364 356//356 345//345
f 339//339 357//357 335//335
f 336//336 358//358 340//340
f 365//365 366//366 367//367
f 366//366 365//365 368//368
f 369//369 370//370 371//371
f 372//372 371//371 370//370
f 368//368 365//365 373//373
f 374//374 371//371 372//372
f 368//368 373//373 375//375
f 376//376 374//374 372//372
f 368//368 375//375 377//377
f 378//378 376//376 372//372
f 377//377 375//375 379//379
f 380//380 376//376 378//378
f 401//401 402//402 403//403
f 402//402 401//401 404//404
f 405//405 406//406 407//407
f 408//408 407//407 406//406
f 409//409 403//403 402//402
f 406//406 405//405 410//410
f 411//411 404//404 401//401
f 407//407 408//408 412//412
f 402//402 404//404 413//413
f 414//414 408//408 406//406
f 409//409 415//415 403//403
f 405//405 416//416 410//410
f 417//417 418//418 419//419
f 420//420 421//421 422//422
f 404//404 411//411 423//423
f 424//424 412//412 408//408
f 425//425 419//419 426//426
f 427//427 420//420 428//428
f 415//415 409//409 429//429
f 430//430 410//410 416//416
f 431//431 418//418 417//417
f 422//422 421//421 432//432
f 417//417 419//419 425//425
f 428//428 420//420 422//422
f 411//411 433//433 423//423
f 424//424 434//434 412//412
f 404//404 423//423 435//435
f 436//436 424//424 408//408
f 425//425 426//426 437//437
f 438//438 427//427 428//428
f 433//433 415//415 429//429
f 430//430 416//416 434//434
f 418//418 431//431 439//439
f 440//440 432//432 421//421
f 415//415 433//433 411//411
f 412//412 434//434 416//416
f 441//441 442//442 443//443
f 442//442 441//441 444//444
f 445//445 446//446 447//447
f 448//448 447//447 446//446
f 444//444 441//441 449//449
f 450//450 447//447 448//448
f 444//444 449//449 451//451
f 452//452 450//450 448//448
f 444//444 451//451 453//453
f 454//454 452//452 448//448
f 453//453 451//451 455//455
f 456//456 452//452 454//454
f 477//477 478//478 479//479
f 478//478 477//477 480//480
f 481//481 482//482 483//483
f 484//484 483//483 482//482
f 485//485 479//479 478//478
f 482//482 481//481 486//486
f 487//487 480//480 477//477
f 483//483 484//484 488//488
f 478//478 480//480 489//489
f 490//490 484//484 482//482
f 485//485 491//491 479//479
f 481//481 492//492 486//486
f 493//493 494//494 495//495
f 496//496 497//497 498//498
f 480//480 487//487 499//499
f 500//500 488//488 484//484
f 501//501 495//495 502//502
f 503//503 496//496 504//504
f 491//491 485//485 505//505
f 506//506 486//486 492//492
f 507//507 494//494 493//493
f 498//498 497//497 508//508
f 493//493 495//495 501//501
f 504//504 496//496 498//498
f 487//487 509//509 499//499
f 500//500 510//510 488//488
f 480//480 499//499 511//511
f 512//512 500//500 484//484
f 501//501 502//502 513//513
f 514//514 503//503 504//504
f 509//509 491//491 505//505
f 506//506 492//492 510//510
f 494//494 507//507 515//515
f 516//516 508//508 497//497
f 491//491 509//509 487//487
f 488//488 510//510 492//492
f 517//517 518//518 519//519
f 518//518 517//517 520//520
f 521//521 522//522 523//523
f 524//524 523//523 522//522
f 520//520 517//517 525//525
f 526//526 523//523 524//524
f 520//520 525//525 527//527
f 528//528 526//526 524//524
f 520//520 527//527 529//529
f 530//530 528//528 524//524
f 529//529 527//527 531//531
f 532//532 528//528 530//530
f 553//553 554//554 555//555
f 554//554 553//553 556//556
f 557//557 558//558 559//559
f 560//560 559//559 558//558
f 561//561 555//555 554//554
f 558//558 557//557 562//562
f 563//563 556//556 553//553
f 559//559 560//560 564//564
f 554//554 556//556 565//565
f 566//566 560//560 558//558
f 561//561 567//567 555//555
f 557//557 568//568 562//562
f 569//569 570//570 571//571
f 572//572 573//573 574//574
f 556//556 563//563 575//575
f 576//576 564//564 560//560
f 577//577 571//571 578//578
f 579//579 572//572 580//580
f 567//567 561//561 581//581
f 582//582 562//562 568//568
f 583//583 570//570 569//569
f 574//574 573//573 584//584
f 569//569 571//571 577//577
f 580//580 572//572 574//574
f 563//563 585//585 575//575
f 576//576 586//586 564//564
f 556//556 575//575 587//587
f 588//588 576//576 560//560
f 577//577 578//578 589//589
f 590//590 579//579 580//580
f 585//585 567//567 581//581
f 582//582 568//568 586//586
f 570//570 583//583 591//591
f 592//592 584//584 573//573
f 567//567 585//585 563//563
f 564//564 586//586 568//568
f 593//593 594//594 595//595
f 594//594 593//593 596//596
f 597//597 598//598 599//599
f 600//600 599//599 598//598
f 596//596 593//593 601//601
f 602//602 599//599 600//600
f 596//596 601//601 603//603
f 604//604 602//602 600//600
f 596//596 603//603 605//605
f 606//606 604//604 600//600
f 605//605 603//603 607//607
f 608//608 604//604 606//606
f 667//667 668//668 669//669
f 670//670 669//669 668//668
f 668//668 667//667 671//671
f 672//672 673//673 674//674
f 670//670 675//675 669//669
f 676//676 677//677 678//678
f 679//679 671//671 667//667
f 677//677 680//680 681//681
f 682//682 674//674 673//673
f 674//674 683//683 672//672
f 684//684 669//669 675//675
f 685//685 676//676 686//686
f 678//678 677//677 687//687
f 686//686 676//676 678//678
f 671//671 679//679 688//688
f 689//689 672//672 683//683
f 690//690 681//681 680//680
f 687//687 677//677 681//681
f 682//682 673//673 691//691
f 692//692 691//691 673//673
f 684//684 675//675 693//693
f 694//694 693//693 675//675
f 695//695 696//696 697//697
f 696//696 695//695 698//698
f 686//686 678//678 699//699
f 700//700 688//688 679//679
f 689//689 683//683 701//701
f 702//702 688//688 703//703
f 681//681 699//699 687//687
f 691//691 692//692 704//704
f 705//705 704//704 692//692
f 694//694 706//706 693//693
f 707//707 697//697 696//696
f 695//695 697//697 708//708
f 709//709 698//698 695//695
f 696//696 698//698 708//708
f 678//678 710//710 699//699
f 700//700 703//703 688//688
f 711//711 701//701 683//683
f 703//703 712//712 702//702
f 710//710 687//687 699//699
f 706//706 702//702 712//712
f 705//705 713//713 704//704
f 712//712 693//693 706//706
f 714//714 715//715 716//716
f 707//707 696//696 717//717
f 717//717 708//708 697//697
f 708//708 718//718 695//695
f 719//719 720//720 721//721
f 709//709 695//695 718//718
f 718//718 708//708 698//698
f 708//708 717//717 696//696
f 701//701 711//711 722//722
f 713//713 722//722 723//723
f 723//723 704//704 713//713
f 724//724 722//722 711//711
f 724//724 723//723 722//722
