# Created by Open3D 
# object name: 618d55a791b8280cf256a8c3e3396495
# number of vertices: 776
# number of triangles: 880
v -0.529925 -0.153882 -0.454711
vn 0 -0.0254 0
v -0.542439 -0.227135 -0.406734
vn 0 -0.0254 0
v -0.533542 -0.193661 -0.434846
vn 0 -0.0254 0
v -0.531834 -0.11051 -0.464976
vn 0 -0.0254 0
v -0.533542 -0.193661 -0.434846
vn 0 0.0254 0
v -0.542439 -0.227135 -0.406734
vn 0 0.0254 0
v -0.529925 -0.153882 -0.454711
vn 0 0.0254 0
v -0.531834 -0.11051 -0.464976
vn 0 0.0254 0
v -0.542439 -0.227135 -0.406734
vn -0.0239975 0 0.00832343
v 0.0119016 -0.10335 -0.154695
vn -0.0253341 0 0.0018288
v -0.533542 -0.193661 -0.434846
vn -0.0253341 0 0.0018288
v -0.533542 -0.193661 -0.434846
vn 0.0253341 0 -0.0018288
v 0.0119016 -0.10335 -0.154695
vn 0.0253341 0 -0.0018288
v -0.542439 -0.227135 -0.406734
vn 0.0239975 0 -0.00832343
v 0.0155182 -0.0635709 -0.174559
vn -0.0249442 0 -0.00479047
v -0.529925 -0.153882 -0.454711
vn -0.0249442 0 -0.00479047
v -0.529925 -0.153882 -0.454711
vn 0.0249442 0 0.00479047
v 0.0155182 -0.0635709 -0.174559
vn 0.0249442 0 0.00479047
v 0.0136091 -0.0201992 -0.184824
vn -0.0228544 0 -0.0110833
v -0.531834 -0.11051 -0.464976
vn -0.0228544 0 -0.0110833
v -0.531834 -0.11051 -0.464976
vn 0.0228544 0 0.0110833
v 0.0136091 -0.0201992 -0.184824
vn 0.0228544 0 0.0110833
v -0.556008 -0.252026 -0.372291
vn 0 -0.0254 0
v -0.556008 -0.252026 -0.372291
vn 0 0.0254 0
v 0.00300477 -0.136825 -0.126582
vn -0.0239975 0 0.00832343
v 0.00300477 -0.136825 -0.126582
vn 0.0239975 0 -0.00832343
v 0.00630424 0.0238086 -0.184788
vn -0.019207 0 -0.0166207
v 0.00630424 0.0238086 -0.184788
vn 0.019207 0 0.0166207
v -0.539139 -0.0665021 -0.46494
vn 0 -0.0254 0
v -0.539139 -0.0665021 -0.46494
vn 0 0.0254 0
v -0.556008 -0.252026 -0.372291
vn -0.0210256 0 0.0142508
v -0.556008 -0.252026 -0.372291
vn 0.0210256 0 -0.0142508
v 0.0832647 -0.034496 -0.0022817
vn -0.0189055 0.0156443 0.00655729
v 0.0119016 -0.10335 -0.154695
vn -0.0199585 0.0156443 0.00144074
v 0.00300477 -0.136825 -0.126582
vn -0.0189055 0.0156443 0.00655729
v 0.00300477 -0.136825 -0.126582
vn 0.0189055 -0.0156443 -0.00655729
v 0.0119016 -0.10335 -0.154695
vn 0.0199585 -0.0156443 -0.00144074
v 0.0832647 -0.034496 -0.0022817
vn 0.0189055 -0.0156443 -0.00655729
v 0.0863924 -0.0227257 -0.0121656
vn -0.0199585 0.0156443 0.00144074
v 0.0155182 -0.0635709 -0.174559
vn -0.0196513 0.0156443 -0.00377398
v 0.0155182 -0.0635709 -0.174559
vn 0.0196513 -0.0156443 0.00377398
v 0.0863924 -0.0227257 -0.0121656
vn 0.0199585 -0.0156443 -0.00144074
v 0.0869932 0.00650923 -0.0227596
vn -0.0180049 0.0156443 -0.0087315
v 0.0136091 -0.0201992 -0.184824
vn -0.0180049 0.0156443 -0.0087315
v 0.0136091 -0.0201992 -0.184824
vn 0.0180049 -0.0156443 0.0087315
v 0.0869932 0.00650923 -0.0227596
vn 0.0180049 -0.0156443 0.0087315
v -0.539139 -0.0665021 -0.46494
vn -0.019207 0 -0.0166207
v -0.539139 -0.0665021 -0.46494
vn 0.019207 0 0.0166207
v 0.0844246 0.0219827 -0.0227467
vn -0.0151315 0.0156443 -0.013094
v 0.00630424 0.0238086 -0.184788
vn -0.0151315 0.0156443 -0.013094
v 0.00630424 0.0238086 -0.184788
vn 0.0151315 -0.0156443 0.013094
v 0.0844246 0.0219827 -0.0227467
vn 0.0151315 -0.0156443 0.013094
v -0.573326 -0.266636 -0.333864
vn 0 -0.0254 0
v -0.573326 -0.266636 -0.333864
vn 0 0.0254 0
v -0.0105647 -0.161716 -0.0921387
vn -0.0210256 0 0.0142508
v -0.0105647 -0.161716 -0.0921387
vn 0.0210256 0 -0.0142508
v 0.0784936 -0.0432475 0.0098285
vn -0.0165642 0.0156443 0.011227
v 0.0784936 -0.0432475 0.0098285
vn 0.0165642 -0.0156443 -0.011227
v 0.0876643 -0.00873941 -0.0191505
vn -0.0196513 0.0156443 -0.00377398
v 0.0876643 -0.00873941 -0.0191505
vn 0.0196513 -0.0156443 0.00377398
v -0.551342 -0.0248572 -0.454606
vn -0.0142508 0 -0.0210256
v -0.551342 -0.0248572 -0.454606
vn 0.0142508 0 0.0210256
v -0.00589874 0.0654534 -0.174454
vn -0.011227 0.0156443 -0.0165642
v -0.00589874 0.0654534 -0.174454
vn 0.011227 -0.0156443 0.0165642
v -0.551342 -0.0248572 -0.454606
vn 0 -0.0254 0
v -0.551342 -0.0248572 -0.454606
vn 0 0.0254 0
v -0.573326 -0.266636 -0.333864
vn -0.0166207 0 0.019207
v -0.573326 -0.266636 -0.333864
vn 0.0166207 0 -0.019207
v -0.0105647 -0.161716 -0.0921387
vn -0.0165642 0.0156443 0.011227
v -0.0105647 -0.161716 -0.0921387
vn 0.0165642 -0.0156443 -0.011227
v 0.0832647 -0.034496 -0.0022817
vn -0.0239975 0 0.00832343
v 0.100715 -0.0203542 -0.00480917
vn -0.0253341 0 0.0018288
v 0.0863924 -0.0227257 -0.0121656
vn -0.0253341 0 0.0018288
v 0.0863924 -0.0227257 -0.0121656
vn 0.0253341 0 -0.0018288
v 0.100715 -0.0203542 -0.00480917
vn 0.0253341 0 -0.0018288
v 0.0832647 -0.034496 -0.0022817
vn 0.0239975 0 -0.00832343
v 0.0784936 -0.0432475 0.0098285
vn -0.0210256 0 0.0142508
v 0.0975872 -0.0321246 0.00507468
vn -0.0239975 0 0.00832343
v 0.0975872 -0.0321246 0.00507468
vn 0.0239975 0 -0.00832343
v 0.0784936 -0.0432475 0.0098285
vn 0.0210256 0 -0.0142508
v 0.101987 -0.00636798 -0.0117942
vn -0.0249442 0 -0.00479047
v 0.0876643 -0.00873941 -0.0191505
vn -0.0249442 0 -0.00479047
v 0.0876643 -0.00873941 -0.0191505
vn 0.0249442 0 0.00479047
v 0.101987 -0.00636798 -0.0117942
vn 0.0249442 0 0.00479047
v 0.101316 0.00888066 -0.0154032
vn -0.0228544 0 -0.0110833
v 0.0869932 0.00650923 -0.0227596
vn -0.0228544 0 -0.0110833
v 0.0869932 0.00650923 -0.0227596
vn 0.0228544 0 0.0110833
v 0.101316 0.00888066 -0.0154032
vn 0.0228544 0 0.0110833
v 0.0987472 0.0243541 -0.0153903
vn -0.019207 0 -0.0166207
v 0.0844246 0.0219827 -0.0227467
vn -0.019207 0 -0.0166207
v 0.0844246 0.0219827 -0.0227467
vn 0.019207 0 0.0166207
v 0.0987472 0.0243541 -0.0153903
vn 0.019207 0 0.0166207
v -0.00589874 0.0654534 -0.174454
vn -0.0142508 0 -0.0210256
v -0.00589874 0.0654534 -0.174454
vn 0.0142508 0 0.0210256
v 0.0801343 0.0366244 -0.0191137
vn -0.011227 0.0156443 -0.0165642
v 0.0801343 0.0366244 -0.0191137
vn 0.011227 -0.0156443 0.0165642
v -0.593213 -0.26997 -0.294071
vn 0 -0.0254 0
v -0.593213 -0.26997 -0.294071
vn 0 0.0254 0
v -0.0278826 -0.176326 -0.0537117
vn -0.0166207 0 0.019207
v -0.0278826 -0.176326 -0.0537117
vn 0.0166207 0 -0.019207
v -0.0278826 -0.176326 -0.0537117
vn -0.013094 0.0156443 0.0151315
v -0.0278826 -0.176326 -0.0537117
vn 0.013094 -0.0156443 -0.0151315
v 0.0928162 -0.0408761 0.0171849
vn -0.0210256 0 0.0142508
v 0.0928162 -0.0408761 0.0171849
vn 0.0210256 0 -0.0142508
v 0.0801343 0.0366244 -0.0191137
vn -0.0142508 0 -0.0210256
v 0.0801343 0.0366244 -0.0191137
vn 0.0142508 0 0.0210256
v -0.567612 0.0115873 -0.434678
vn -0.00832343 0 -0.0239975
v -0.567612 0.0115873 -0.434678
vn 0.00832343 0 0.0239975
v -0.0221683 0.101898 -0.154526
vn -0.00655729 0.0156443 -0.0189055
v -0.0221683 0.101898 -0.154526
vn 0.00655729 -0.0156443 0.0189055
v -0.567612 0.0115873 -0.434678
vn 0 -0.0254 0
v -0.567612 0.0115873 -0.434678
vn 0 0.0254 0
v -0.0477691 -0.179659 -0.013919
vn -0.0110833 0 0.0228544
v -0.593213 -0.26997 -0.294071
vn -0.0110833 0 0.0228544
v -0.593213 -0.26997 -0.294071
vn 0.0110833 0 -0.0228544
v -0.0477691 -0.179659 -0.013919
vn 0.0110833 0 -0.0228544
v 0.0724048 -0.0483839 0.0233388
vn -0.013094 0.0156443 0.0151315
v 0.0724048 -0.0483839 0.0233388
vn 0.013094 -0.0156443 -0.0151315
v 0.0910335 -0.0649203 0.0284066
vn 0 -0.0254 0
v 0.100715 -0.0203542 -0.00480917
vn 0 -0.0254 0
v 0.0975872 -0.0321246 0.00507468
vn 0 -0.0254 0
v 0.0975872 -0.0321246 0.00507468
vn 0 0.0254 0
v 0.100715 -0.0203542 -0.00480917
vn 0 0.0254 0
v 0.0910335 -0.0649203 0.0284066
vn 0 0.0254 0
v 0.179344 -0.0185878 0.0470668
vn 0.0239975 0 -0.00832343
v 0.179344 -0.0185878 0.0470668
vn -0.0239975 0 0.00832343
v 0.10696 0.0283146 -0.0326573
vn 0 -0.0254 0
v 0.101987 -0.00636798 -0.0117942
vn 0 -0.0254 0
v 0.101987 -0.00636798 -0.0117942
vn 0 0.0254 0
v 0.10696 0.0283146 -0.0326573
vn 0 0.0254 0
v 0.101987 -0.00636798 -0.0117942
vn 0.0253561 0 0.00149362
v 0.182472 -0.00681751 0.037183
vn 0.0253341 0 -0.0018288
v 0.182472 -0.00681751 0.037183
vn -0.0253341 0 0.0018288
v 0.101987 -0.00636798 -0.0117942
vn -0.0253561 0 -0.00149362
v 0.0724048 -0.0483839 0.0233388
vn -0.0166207 0 0.019207
v 0.0724048 -0.0483839 0.0233388
vn 0.0166207 0 -0.019207
v 0.0928162 -0.0408761 0.0171849
vn 0 -0.0254 0
v 0.0928162 -0.0408761 0.0171849
vn 0 0.0254 0
v 0.174573 -0.0273394 0.0591771
vn 0.0210256 0 -0.0142508
v 0.174573 -0.0273394 0.0591771
vn -0.0210256 0 0.0142508
v 0.101316 0.00888066 -0.0154032
vn 0 0 0
v 0.183744 0.00716875 0.030198
vn 0.0253561 0 0.00149362
v 0.183744 0.00716875 0.030198
vn -0.0253561 0 -0.00149362
v 0.101275 0.0477152 -0.0278427
vn 0 -0.0254 0
v 0.101316 0.00888066 -0.0154032
vn 0 -0.0254 0
v 0.101316 0.00888066 -0.0154032
vn 0 0.0254 0
v 0.101275 0.0477152 -0.0278427
vn 0 0.0254 0
v 0.187847 0.0232079 0.0290411
vn -0.0228544 0 -0.0110833
v 0.187847 0.0232079 0.0290411
vn 0.0228544 0 0.0110833
v 0.0987472 0.0243541 -0.0153903
vn 0 0 0
v 0.183073 0.0224174 0.026589
vn 0 0 0
v 0.0987472 0.0243541 -0.0153903
vn 0 -0.0254 0
v 0.0987472 0.0243541 -0.0153903
vn 0 0.0254 0
v 0.185278 0.0386813 0.029054
vn -0.019207 0 -0.0166207
v 0.185278 0.0386813 0.029054
vn 0.019207 0 0.0166207
v 0.0944569 0.0389958 -0.0117573
vn -0.0142508 0 -0.0210256
v 0.0944569 0.0389958 -0.0117573
vn 0.0142508 0 0.0210256
v -0.0221683 0.101898 -0.154526
vn -0.00832343 0 -0.0239975
v -0.0221683 0.101898 -0.154526
vn 0.00832343 0 0.0239975
v 0.074414 0.0494383 -0.0121072
vn -0.00655729 0.0156443 -0.0189055
v 0.074414 0.0494383 -0.0121072
vn 0.00655729 -0.0156443 0.0189055
v -0.614312 -0.2618 -0.255624
vn 0 -0.0254 0
v -0.614312 -0.2618 -0.255624
vn 0 0.0254 0
v -0.0688689 -0.171489 0.0245277
vn -0.00479047 0 0.0249442
v -0.0688689 -0.171489 0.0245277
vn 0.00479047 0 -0.0249442
v 0.0654126 -0.0495562 0.0373303
vn -0.0087315 0.0156443 0.0180049
v -0.0477691 -0.179659 -0.013919
vn -0.0087315 0.0156443 0.0180049
v -0.0477691 -0.179659 -0.013919
vn 0.0087315 -0.0156443 -0.0180049
v 0.0654126 -0.0495562 0.0373303
vn 0.0087315 -0.0156443 -0.0180049
v 0.0991012 -0.0581136 0.010505
vn 0 -0.0254 0
v 0.0991012 -0.0581136 0.010505
vn 0 0.0254 0
v 0.0867274 -0.0460125 0.0306952
vn -0.0166207 0 0.019207
v 0.0867274 -0.0460125 0.0306952
vn 0.0166207 0 -0.019207
v 0.081769 -0.0664728 0.0469446
vn 0 -0.0254 0
v 0.081769 -0.0664728 0.0469446
vn 0 0.0254 0
v 0.168484 -0.0324757 0.0726874
vn 0.0166207 0 -0.019207
v 0.168484 -0.0324757 0.0726874
vn -0.0166207 0 0.019207
v 0.180504 0.0378909 0.0266018
vn 0 0 0
v 0.0944569 0.0389958 -0.0117573
vn 0 -0.0254 0
v 0.0944569 0.0389958 -0.0117573
vn 0 0.0254 0
v 0.176214 0.0525326 0.0302348
vn 0 0 0
v 0.0944569 0.0389958 -0.0117573
vn 0 0 0
v 0.074414 0.0494383 -0.0121072
vn -0.00832343 0 -0.0239975
v 0.074414 0.0494383 -0.0121072
vn 0.00832343 0 0.0239975
v -0.586839 0.0403489 -0.406516
vn -0.0018288 0 -0.0253341
v -0.586839 0.0403489 -0.406516
vn 0.0018288 0 0.0253341
v -0.0413953 0.13066 -0.126364
vn -0.00144074 0.0156443 -0.0199585
v -0.0413953 0.13066 -0.126364
vn 0.00144074 -0.0156443 0.0199585
v -0.586839 0.0403489 -0.406516
vn 0 -0.0254 0
v -0.586839 0.0403489 -0.406516
vn 0 0.0254 0
v -0.614312 -0.2618 -0.255624
vn -0.00479047 0 0.0249442
v -0.614312 -0.2618 -0.255624
vn 0.00479047 0 -0.0249442
v 0.0579943 -0.0466835 0.0508474
vn -0.00377398 0.0156443 0.0196513
v -0.0688689 -0.171489 0.0245277
vn -0.00377398 0.0156443 0.0196513
v -0.0688689 -0.171489 0.0245277
vn 0.00377398 -0.0156443 -0.0196513
v 0.0579943 -0.0466835 0.0508474
vn 0.00377398 -0.0156443 -0.0196513
v 0.0797352 -0.0471848 0.0446867
vn -0.0110833 0 0.0228544
v 0.0654126 -0.0495562 0.0373303
vn -0.0110833 0 0.0228544
v 0.0654126 -0.0495562 0.0373303
vn 0.0110833 0 -0.0228544
v 0.0797352 -0.0471848 0.0446867
vn 0.0110833 0 -0.0228544
v 0.0910335 -0.0649203 0.0284066
vn -0.0166207 0 0.019207
v 0.180858 -0.0445769 0.0524972
vn -0.0210256 0 0.0142508
v 0.0991012 -0.0581136 0.010505
vn -0.0210256 0 0.0142508
v 0.0991012 -0.0581136 0.010505
vn 0.0210256 0 -0.0142508
v 0.180858 -0.0445769 0.0524972
vn 0.0210256 0 -0.0142508
v 0.0910335 -0.0649203 0.0284066
vn 0.0166207 0 -0.019207
v 0.182472 -0.00681751 0.037183
vn 0 0.0254 0
v 0.17279 -0.0513836 0.0703987
vn 0 0.0254 0
v 0.179344 -0.0185878 0.0470668
vn 0 0.0254 0
v 0.179344 -0.0185878 0.0470668
vn 0 -0.0254 0
v 0.17279 -0.0513836 0.0703987
vn 0 -0.0254 0
v 0.182472 -0.00681751 0.037183
vn 0 -0.0254 0
v 0.184118 -0.0177973 0.049519
vn 0.0239975 0 -0.00832343
v 0.184118 -0.0177973 0.049519
vn -0.0239975 0 0.00832343
v 0.174573 -0.0273394 0.0591771
vn 0 0.0254 0
v 0.174573 -0.0273394 0.0591771
vn 0 -0.0254 0
v 0.179347 -0.0265489 0.0616292
vn 0.0210256 0 -0.0142508
v 0.179347 -0.0265489 0.0616292
vn -0.0210256 0 0.0142508
v 0.188717 0.0418513 0.00933486
vn -0.019207 0 -0.0166207
v 0.101275 0.0477152 -0.0278427
vn -0.0142508 0 -0.0210256
v 0.10696 0.0283146 -0.0326573
vn -0.019207 0 -0.0166207
v 0.10696 0.0283146 -0.0326573
vn 0.019207 0 0.0166207
v 0.101275 0.0477152 -0.0278427
vn 0.0142508 0 0.0210256
v 0.188717 0.0418513 0.00933486
vn 0.019207 0 0.0166207
v 0.110363 0.00781294 -0.0326736
vn 0 -0.0254 0
v 0.110363 0.00781294 -0.0326736
vn 0 0.0254 0
v 0.183744 0.00716875 0.030198
vn 0 0.0254 0
v 0.188717 0.0418513 0.00933486
vn 0 0.0254 0
v 0.188717 0.0418513 0.00933486
vn 0 -0.0254 0
v 0.183744 0.00716875 0.030198
vn 0 -0.0254 0
v 0.187246 -0.00602703 0.0396351
vn 0.0253341 0 -0.0018288
v 0.187246 -0.00602703 0.0396351
vn -0.0253341 0 0.0018288
v 0.0867274 -0.0460125 0.0306952
vn 0 -0.0254 0
v 0.0867274 -0.0460125 0.0306952
vn 0 0.0254 0
v 0.163526 -0.052936 0.0889367
vn -0.0110833 0 0.0228544
v 0.081769 -0.0664728 0.0469446
vn -0.0110833 0 0.0228544
v 0.081769 -0.0664728 0.0469446
vn 0.0110833 0 -0.0228544
v 0.163526 -0.052936 0.0889367
vn 0.0110833 0 -0.0228544
v 0.163526 -0.052936 0.0889367
vn 0 0.0254 0
v 0.168484 -0.0324757 0.0726874
vn 0 0.0254 0
v 0.168484 -0.0324757 0.0726874
vn 0 -0.0254 0
v 0.163526 -0.052936 0.0889367
vn 0 -0.0254 0
v 0.173259 -0.0316853 0.0751395
vn 0.0166207 0 -0.019207
v 0.173259 -0.0316853 0.0751395
vn -0.0166207 0 0.019207
v 0.183032 0.0612519 0.0141494
vn 0 0.0254 0
v 0.183073 0.0224174 0.026589
vn 0 0.0254 0
v 0.183073 0.0224174 0.026589
vn 0 -0.0254 0
v 0.183032 0.0612519 0.0141494
vn 0 -0.0254 0
v 0.188518 0.00795922 0.0326501
vn 0.00479047 0 -0.0249442
v 0.188518 0.00795922 0.0326501
vn -0.00479047 0 0.0249442
v 0.180504 0.0378909 0.0266018
vn 0 0.0254 0
v 0.180504 0.0378909 0.0266018
vn 0 -0.0254 0
v 0.0936956 0.064694 -0.0185592
vn 0 -0.0254 0
v 0.0936956 0.064694 -0.0185592
vn 0 0.0254 0
v 0.170494 0.0653465 0.0372413
vn 0.0051199 0 0.0248786
v 0.170494 0.0653465 0.0372413
vn -0.0051199 0 -0.0248786
v 0.0887366 0.0518098 -0.00475087
vn 0.0051199 0 0.0248786
v 0.0887366 0.0518098 -0.00475087
vn -0.0051199 0 -0.0248786
v 0.0887366 0.0518098 -0.00475087
vn -0.00832343 0 -0.0239975
v 0.0887366 0.0518098 -0.00475087
vn 0.00832343 0 0.0239975
v -0.0413953 0.13066 -0.126364
vn -0.0018288 0 -0.0253341
v -0.0413953 0.13066 -0.126364
vn 0.0018288 0 0.0253341
v 0.0676536 0.0595502 -0.00220471
vn -0.00144074 0.0156443 -0.0199585
v 0.0676536 0.0595502 -0.00220471
vn 0.00144074 -0.0156443 0.0199585
v -0.635187 -0.242683 -0.221144
vn 0 -0.0254 0
v -0.635187 -0.242683 -0.221144
vn 0 0.0254 0
v -0.0897438 -0.152373 0.0590078
vn 0.0018288 0 0.0253341
v -0.0897438 -0.152373 0.0590078
vn -0.0018288 0 -0.0253341
v 0.0506547 -0.0399616 0.0629704
vn 0.00144074 0.0156443 0.0199585
v 0.0506547 -0.0399616 0.0629704
vn -0.00144074 -0.0156443 -0.0199585
v 0.0723169 -0.0443121 0.0582038
vn -0.00479047 0 0.0249442
v 0.0579943 -0.0466835 0.0508474
vn -0.00479047 0 0.0249442
v 0.0579943 -0.0466835 0.0508474
vn 0.00479047 0 -0.0249442
v 0.0723169 -0.0443121 0.0582038
vn 0.00479047 0 -0.0249442
v 0.17279 -0.0513836 0.0703987
vn -0.0166207 0 0.019207
v 0.17279 -0.0513836 0.0703987
vn 0.0166207 0 -0.019207
v 0.18718 -0.0329811 0.0364509
vn -0.0239975 0 0.00832343
v 0.18718 -0.0329811 0.0364509
vn 0.0239975 0 -0.00832343
v 0.180858 -0.0445769 0.0524972
vn 0 0.0254 0
v 0.180858 -0.0445769 0.0524972
vn 0 -0.0254 0
v 0.183032 0.0612519 0.0141494
vn -0.0142508 0 -0.0210256
v 0.183032 0.0612519 0.0141494
vn 0.0142508 0 0.0210256
v 0.110363 0.00781294 -0.0326736
vn -0.0228544 0 -0.0110833
v 0.110363 0.00781294 -0.0326736
vn 0.0228544 0 0.0110833
v 0.105423 -0.0465178 -0.00554129
vn 0 -0.0254 0
v 0.105423 -0.0465178 -0.00554129
vn 0 0.0254 0
v 0.0797352 -0.0471848 0.0446867
vn 0 -0.0254 0
v 0.0797352 -0.0471848 0.0446867
vn 0 0.0254 0
v 0.153696 -0.0491299 0.106847
vn -0.00479047 0 0.0249442
v 0.153696 -0.0491299 0.106847
vn 0.00479047 0 -0.0249442
v 0.161492 -0.0336481 0.0866788
vn 0 0.0254 0
v 0.161492 -0.0336481 0.0866788
vn 0 -0.0254 0
v 0.161492 -0.0336481 0.0866788
vn 0.0110833 0 -0.0228544
v 0.161492 -0.0336481 0.0866788
vn -0.0110833 0 0.0228544
v 0.188518 0.00795922 0.0326501
vn 0 0.0254 0
v 0.184118 -0.0177973 0.049519
vn 0 0.0254 0
v 0.187847 0.0232079 0.0290411
vn 0 0.0254 0
v 0.187847 0.0232079 0.0290411
vn 0 -0.0254 0
v 0.184118 -0.0177973 0.049519
vn 0 -0.0254 0
v 0.188518 0.00795922 0.0326501
vn 0 -0.0254 0
v 0.179347 -0.0265489 0.0616292
vn 0 0.0254 0
v 0.185278 0.0386813 0.029054
vn 0 0.0254 0
v 0.185278 0.0386813 0.029054
vn 0 -0.0254 0
v 0.179347 -0.0265489 0.0616292
vn 0 -0.0254 0
v 0.176214 0.0525326 0.0302348
vn 0 0.0254 0
v 0.176214 0.0525326 0.0302348
vn 0 -0.0254 0
v 0.0936956 0.064694 -0.0185592
vn -0.00832343 0 -0.0239975
v 0.0936956 0.064694 -0.0185592
vn 0.00832343 0 0.0239975
v 0.0887366 0.0518098 -0.00475087
vn 0 -0.0254 0
v 0.0887366 0.0518098 -0.00475087
vn 0 0.0254 0
v 0.180988 0.053323 0.032687
vn -0.0142508 0 -0.0210256
v 0.180988 0.053323 0.032687
vn 0.0142508 0 0.0210256
v 0.175452 0.0782307 0.023433
vn 0 0.0254 0
v 0.170494 0.0653465 0.0372413
vn 0 0.0254 0
v 0.170494 0.0653465 0.0372413
vn 0 -0.0254 0
v 0.175452 0.0782307 0.023433
vn 0 -0.0254 0
v 0.0676536 0.0595502 -0.00220471
vn -0.0018288 0 -0.0253341
v 0.0676536 0.0595502 -0.00220471
vn 0.0018288 0 0.0253341
v -0.607714 0.0594653 -0.372035
vn 0.00479047 0 -0.0249442
v -0.607714 0.0594653 -0.372035
vn -0.00479047 0 0.0249442
v -0.0622702 0.149776 -0.0918837
vn 0.00377398 0.0156443 -0.0196513
v -0.0622702 0.149776 -0.0918837
vn -0.00377398 -0.0156443 0.0196513
v -0.607714 0.0594653 -0.372035
vn 0 -0.0254 0
v -0.607714 0.0594653 -0.372035
vn 0 0.0254 0
v -0.635187 -0.242683 -0.221144
vn 0.0018288 0 0.0253341
v -0.635187 -0.242683 -0.221144
vn -0.0018288 0 -0.0253341
v -0.0897438 -0.152373 0.0590078
vn 0.00144074 0.0156443 0.0199585
v -0.0897438 -0.152373 0.0590078
vn -0.00144074 -0.0156443 -0.0199585
v 0.0649772 -0.0375901 0.0703268
vn 0.0018288 0 0.0253341
v 0.0506547 -0.0399616 0.0629704
vn 0.0018288 0 0.0253341
v 0.0506547 -0.0399616 0.0629704
vn -0.0018288 0 -0.0253341
v 0.0649772 -0.0375901 0.0703268
vn -0.0018288 0 -0.0253341
v 0.0719395 -0.0626667 0.0648553
vn 0 -0.0254 0
v 0.0723169 -0.0443121 0.0582038
vn 0 -0.0254 0
v 0.0723169 -0.0443121 0.0582038
vn 0 0.0254 0
v 0.0719395 -0.0626667 0.0648553
vn 0 0.0254 0
v 0.0723169 -0.0443121 0.0582038
vn 0.00800534 0 -0.0241055
v 0.0723169 -0.0443121 0.0582038
vn -0.00800534 0 0.0241055
v 0.105423 -0.0465178 -0.00554129
vn -0.0239975 0 0.00832343
v 0.105423 -0.0465178 -0.00554129
vn 0.0239975 0 -0.00832343
v 0.19212 0.0213497 0.00931856
vn 0 0.0254 0
v 0.18718 -0.0329811 0.0364509
vn 0 0.0254 0
v 0.18718 -0.0329811 0.0364509
vn 0 -0.0254 0
v 0.19212 0.0213497 0.00931856
vn 0 -0.0254 0
v 0.187246 -0.00602703 0.0396351
vn 0 0.0254 0
v 0.187246 -0.00602703 0.0396351
vn 0 -0.0254 0
v 0.173259 -0.0316853 0.0751395
vn 0 0.0254 0
v 0.173259 -0.0316853 0.0751395
vn 0 -0.0254 0
v 0.19212 0.0213497 0.00931856
vn -0.0228544 0 -0.0110833
v 0.19212 0.0213497 0.00931856
vn 0.0228544 0 0.0110833
v 0.111252 -0.0123921 -0.0278919
vn 0 -0.0254 0
v 0.111252 -0.0123921 -0.0278919
vn 0 0.0254 0
v 0.0719395 -0.0626667 0.0648553
vn -0.00479047 0 0.0249442
v 0.0719395 -0.0626667 0.0648553
vn 0.00479047 0 -0.0249442
v 0.153696 -0.0491299 0.106847
vn 0 0.0254 0
v 0.153696 -0.0491299 0.106847
vn 0 -0.0254 0
v 0.166266 -0.0328576 0.089131
vn 0.0110833 0 -0.0228544
v 0.166266 -0.0328576 0.089131
vn -0.0110833 0 0.0228544
v 0.175452 0.0782307 0.023433
vn -0.00832343 0 -0.0239975
v 0.175452 0.0782307 0.023433
vn 0.00832343 0 0.0239975
v 0.0847385 0.0780923 -0.00543935
vn 0 -0.0254 0
v 0.0847385 0.0780923 -0.00543935
vn 0 0.0254 0
v 0.180988 0.053323 0.032687
vn 0 0.0254 0
v 0.180988 0.053323 0.032687
vn 0 -0.0254 0
v 0.163733 0.0754584 0.0471438
vn 0.0018288 0 0.0253341
v 0.163733 0.0754584 0.0471438
vn -0.0018288 0 -0.0253341
v 0.166495 0.0916291 0.0365528
vn 0 0.0254 0
v 0.166495 0.0916291 0.0365528
vn 0 -0.0254 0
v 0.175268 0.066137 0.0396934
vn -0.0239975 0 0.00832343
v 0.175268 0.066137 0.0396934
vn 0.0239975 0 -0.00832343
v 0.0819762 0.0619216 0.00515168
vn -0.0018288 0 -0.0253341
v 0.0819762 0.0619216 0.00515168
vn 0.0018288 0 0.0253341
v -0.0622702 0.149776 -0.0918837
vn 0.00479047 0 -0.0249442
v -0.0622702 0.149776 -0.0918837
vn -0.00479047 0 0.0249442
v 0.060314 0.0662721 0.00991835
vn 0.00377398 0.0156443 -0.0196513
v 0.060314 0.0662721 0.00991835
vn -0.00377398 -0.0156443 0.0196513
v -0.654414 -0.213922 -0.192981
vn 0 -0.0254 0
v -0.654414 -0.213922 -0.192981
vn 0 0.0254 0
v -0.108971 -0.123611 0.0871703
vn 0.00832343 0 0.0239975
v -0.108971 -0.123611 0.0871703
vn -0.00832343 0 -0.0239975
v 0.0438942 -0.0298497 0.072873
vn 0.00655729 0.0156443 0.0189055
v 0.0438942 -0.0298497 0.072873
vn -0.00655729 -0.0156443 -0.0189055
v 0.0582168 -0.0274783 0.0802294
vn 0.00832343 0 0.0239975
v 0.0582168 -0.0274783 0.0802294
vn -0.00832343 0 -0.0239975
v 0.154074 -0.0307753 0.100196
vn 0.00800534 0 -0.0241055
v 0.0649772 -0.0375901 0.0703268
vn 0 0 0
v 0.154074 -0.0307753 0.100196
vn -0.00800534 0 0.0241055
v 0.0622149 -0.0537608 0.0809179
vn 0 -0.0254 0
v 0.0649772 -0.0375901 0.0703268
vn 0 -0.0254 0
v 0.0649772 -0.0375901 0.0703268
vn 0 0.0254 0
v 0.0622149 -0.0537608 0.0809179
vn 0 0.0254 0
v 0.146734 -0.0240534 0.112319
vn 0 0 0
v 0.191324 -0.0173866 0.0233547
vn -0.0253341 0 0.0018288
v 0.191324 -0.0173866 0.0233547
vn 0.0253341 0 -0.0018288
v 0.193009 0.00114465 0.0141003
vn 0 0.0254 0
v 0.193009 0.00114465 0.0141003
vn 0 -0.0254 0
v 0.111252 -0.0123921 -0.0278919
vn -0.0249442 0 -0.00479047
v 0.111252 -0.0123921 -0.0278919
vn 0.0249442 0 0.00479047
v 0.109567 -0.0309233 -0.0186374
vn 0 -0.0254 0
v 0.109567 -0.0309233 -0.0186374
vn 0 0.0254 0
v 0.143972 -0.0402241 0.12291
vn 0.0018288 0 0.0253341
v 0.143972 -0.0402241 0.12291
vn -0.0018288 0 -0.0253341
v 0.154074 -0.0307753 0.100196
vn 0 0.0254 0
v 0.154074 -0.0307753 0.100196
vn 0 -0.0254 0
v 0.166266 -0.0328576 0.089131
vn 0 0.0254 0
v 0.166266 -0.0328576 0.089131
vn 0 -0.0254 0
v 0.0847385 0.0780923 -0.00543935
vn -0.0018288 0 -0.0253341
v 0.0847385 0.0780923 -0.00543935
vn 0.0018288 0 0.0253341
v 0.0819762 0.0619216 0.00515168
vn 0 -0.0254 0
v 0.0819762 0.0619216 0.00515168
vn 0 0.0254 0
v 0.163733 0.0754584 0.0471438
vn 0 0.0254 0
v 0.163733 0.0754584 0.0471438
vn 0 -0.0254 0
v 0.168507 0.0762488 0.049596
vn 0.0018288 0 0.0253341
v 0.168507 0.0762488 0.049596
vn -0.0018288 0 -0.0253341
v 0.166495 0.0916291 0.0365528
vn -0.0018288 0 -0.0253341
v 0.166495 0.0916291 0.0365528
vn 0.0018288 0 0.0253341
v 0.175268 0.066137 0.0396934
vn 0 0.0254 0
v 0.175268 0.066137 0.0396934
vn 0 -0.0254 0
v 0.060314 0.0662721 0.00991835
vn 0.00479047 0 -0.0249442
v 0.060314 0.0662721 0.00991835
vn -0.00479047 0 0.0249442
v -0.628814 0.0676355 -0.333589
vn 0.0110833 0 -0.0228544
v -0.628814 0.0676355 -0.333589
vn -0.0110833 0 0.0228544
v -0.0833701 0.157946 -0.053437
vn 0.0087315 0.0156443 -0.0180049
v -0.0833701 0.157946 -0.053437
vn -0.0087315 -0.0156443 0.0180049
v -0.628814 0.0676355 -0.333589
vn 0 -0.0254 0
v -0.628814 0.0676355 -0.333589
vn 0 0.0254 0
v -0.654414 -0.213922 -0.192981
vn 0.00832343 0 0.0239975
v -0.654414 -0.213922 -0.192981
vn -0.00832343 0 -0.0239975
v -0.108971 -0.123611 0.0871703
vn 0.00655729 0.0156443 0.0189055
v -0.108971 -0.123611 0.0871703
vn -0.00655729 -0.0156443 -0.0189055
v 0.0438942 -0.0298497 0.072873
vn 0.00832343 0 0.0239975
v 0.0438942 -0.0298497 0.072873
vn -0.00832343 0 -0.0239975
v 0.0582168 -0.0274783 0.0802294
vn -0.0113845 0 -0.0227058
v 0.0582168 -0.0274783 0.0802294
vn 0.0113845 0 0.0227058
v 0.0582168 -0.0274783 0.0802294
vn 0 -0.0254 0
v 0.0582168 -0.0274783 0.0802294
vn 0 0.0254 0
v 0.139974 -0.0139415 0.122222
vn -0.0113845 0 -0.0227058
v 0.139974 -0.0139415 0.122222
vn 0.0113845 0 0.0227058
v 0.0622149 -0.0537608 0.0809179
vn 0.0018288 0 0.0253341
v 0.0622149 -0.0537608 0.0809179
vn -0.0018288 0 -0.0253341
v 0.109567 -0.0309233 -0.0186374
vn -0.0253341 0 0.0018288
v 0.109567 -0.0309233 -0.0186374
vn 0.0253341 0 -0.0018288
v 0.191324 -0.0173866 0.0233547
vn 0 0.0254 0
v 0.191324 -0.0173866 0.0233547
vn 0 -0.0254 0
v 0.193009 0.00114465 0.0141003
vn -0.0249442 0 -0.00479047
v 0.193009 0.00114465 0.0141003
vn 0.0249442 0 0.00479047
v 0.143972 -0.0402241 0.12291
vn 0 0.0254 0
v 0.143972 -0.0402241 0.12291
vn 0 -0.0254 0
v 0.158848 -0.0299849 0.102648
vn 0.0249442 0 0.00479047
v 0.158848 -0.0299849 0.102648
vn -0.0249442 0 -0.00479047
v 0.0750139 0.0869982 0.0106232
vn 0 -0.0254 0
v 0.0750139 0.0869982 0.0106232
vn 0 0.0254 0
v 0.156393 0.0821803 0.0592669
vn -0.00479047 0 0.0249442
v 0.156393 0.0821803 0.0592669
vn 0.00479047 0 -0.0249442
v 0.156771 0.100535 0.0526154
vn 0 0.0254 0
v 0.156771 0.100535 0.0526154
vn 0 -0.0254 0
v 0.161168 0.0829708 0.061719
vn -0.00479047 0 0.0249442
v 0.161168 0.0829708 0.061719
vn 0.00479047 0 -0.0249442
v 0.0750139 0.0869982 0.0106232
vn 0.00479047 0 -0.0249442
v 0.0750139 0.0869982 0.0106232
vn -0.00479047 0 0.0249442
v 0.158848 -0.0299849 0.102648
vn 0 0.0254 0
v 0.158848 -0.0299849 0.102648
vn 0 -0.0254 0
v 0.168507 0.0762488 0.049596
vn 0 0.0254 0
v 0.168507 0.0762488 0.049596
vn 0 -0.0254 0
v 0.0746365 0.0686436 0.0172747
vn 0.00479047 0 -0.0249442
v 0.0746365 0.0686436 0.0172747
vn -0.00479047 0 0.0249442
v -0.0833701 0.157946 -0.053437
vn 0.0110833 0 -0.0228544
v -0.0833701 0.157946 -0.053437
vn -0.0110833 0 0.0228544
v 0.0528956 0.0691449 0.0234355
vn 0.0087315 0.0156443 -0.0180049
v 0.0528956 0.0691449 0.0234355
vn -0.0087315 -0.0156443 0.0180049
v -0.670684 -0.177477 -0.173054
vn 0 -0.0254 0
v -0.670684 -0.177477 -0.173054
vn 0 0.0254 0
v -0.12524 -0.0871665 0.107098
vn 0.0142508 0 0.0210256
v -0.12524 -0.0871665 0.107098
vn -0.0142508 0 -0.0210256
v 0.0381739 -0.0170358 0.0798795
vn 0.011227 0.0156443 0.0165642
v 0.0381739 -0.0170358 0.0798795
vn -0.011227 -0.0156443 -0.0165642
v 0.0524965 -0.0146643 0.0872358
vn 0.0142508 0 0.0210256
v 0.0524965 -0.0146643 0.0872358
vn -0.0142508 0 -0.0210256
v 0.0532578 -0.0403625 0.0940377
vn 0 -0.0254 0
v 0.0532578 -0.0403625 0.0940377
vn 0 0.0254 0
v 0.146734 -0.0240534 0.112319
vn 0 0.0254 0
v 0.146734 -0.0240534 0.112319
vn 0 -0.0254 0
v 0.151508 -0.0232629 0.114771
vn 0.0018288 0 0.0253341
v 0.151508 -0.0232629 0.114771
vn -0.0018288 0 -0.0253341
v 0.139974 -0.0139415 0.122222
vn 0 0.0254 0
v 0.139974 -0.0139415 0.122222
vn 0 -0.0254 0
v 0.144748 -0.0131511 0.124674
vn -0.0239975 0 0.00832343
v 0.144748 -0.0131511 0.124674
vn 0.0239975 0 -0.00832343
v 0.135015 -0.0268257 0.13603
vn 0.00832343 0 0.0239975
v 0.135015 -0.0268257 0.13603
vn -0.00832343 0 -0.0239975
v 0.0746365 0.0686436 0.0172747
vn 0 -0.0254 0
v 0.0746365 0.0686436 0.0172747
vn 0 0.0254 0
v 0.156393 0.0821803 0.0592669
vn 0 0.0254 0
v 0.156393 0.0821803 0.0592669
vn 0 -0.0254 0
v 0.156771 0.100535 0.0526154
vn 0.00479047 0 -0.0249442
v 0.156771 0.100535 0.0526154
vn -0.00479047 0 0.0249442
v 0.151508 -0.0232629 0.114771
vn 0 0.0254 0
v 0.161168 0.0829708 0.061719
vn 0 0.0254 0
v 0.161168 0.0829708 0.061719
vn 0 -0.0254 0
v 0.151508 -0.0232629 0.114771
vn 0 -0.0254 0
v 0.0528956 0.0691449 0.0234355
vn 0.0110833 0 -0.0228544
v 0.0528956 0.0691449 0.0234355
vn -0.0110833 0 0.0228544
v -0.6487 0.0643021 -0.293796
vn 0.0166207 0 -0.019207
v -0.6487 0.0643021 -0.293796
vn -0.0166207 0 0.019207
v -0.103257 0.154613 -0.0136442
vn 0.013094 0.0156443 -0.0151315
v -0.103257 0.154613 -0.0136442
vn -0.013094 -0.0156443 0.0151315
v -0.6487 0.0643021 -0.293796
vn 0 -0.0254 0
v -0.6487 0.0643021 -0.293796
vn 0 0.0254 0
v -0.670684 -0.177477 -0.173054
vn 0.0142508 0 0.0210256
v -0.670684 -0.177477 -0.173054
vn -0.0142508 0 -0.0210256
v -0.12524 -0.0871665 0.107098
vn 0.011227 0.0156443 0.0165642
v -0.12524 -0.0871665 0.107098
vn -0.011227 -0.0156443 -0.0165642
v 0.0381739 -0.0170358 0.0798795
vn 0.0142508 0 0.0210256
v 0.0381739 -0.0170358 0.0798795
vn -0.0142508 0 -0.0210256
v 0.0524965 -0.0146643 0.0872358
vn 0 -0.0254 0
v 0.0524965 -0.0146643 0.0872358
vn 0 0.0254 0
v 0.0532578 -0.0403625 0.0940377
vn 0.00832343 0 0.0239975
v 0.0532578 -0.0403625 0.0940377
vn -0.00832343 0 -0.0239975
v 0.134253 -0.0011276 0.129228
vn -0.0142508 0 -0.0210256
v 0.134253 -0.0011276 0.129228
vn 0.0142508 0 0.0210256
v 0.135015 -0.0268257 0.13603
vn 0 0.0254 0
v 0.135015 -0.0268257 0.13603
vn 0 -0.0254 0
v 0.0672182 0.0715163 0.0307918
vn 0 -0.0254 0
v 0.0672182 0.0715163 0.0307918
vn 0 0.0254 0
v 0.148975 0.085053 0.072784
vn -0.0110833 0 0.0228544
v 0.148975 0.085053 0.072784
vn 0.0110833 0 -0.0228544
v 0.148975 0.085053 0.072784
vn 0 0.0254 0
v 0.148975 0.085053 0.072784
vn 0 -0.0254 0
v 0.153749 0.0858435 0.0752361
vn -0.0110833 0 0.0228544
v 0.153749 0.0858435 0.0752361
vn 0.0110833 0 -0.0228544
v 0.0651843 0.0908043 0.0285339
vn 0.0110833 0 -0.0228544
v 0.0651843 0.0908043 0.0285339
vn -0.0110833 0 0.0228544
v 0.144748 -0.0131511 0.124674
vn 0 0.0254 0
v 0.144748 -0.0131511 0.124674
vn 0 -0.0254 0
v 0.0672182 0.0715163 0.0307918
vn 0.0110833 0 -0.0228544
v 0.0672182 0.0715163 0.0307918
vn -0.0110833 0 0.0228544
v -0.103257 0.154613 -0.0136442
vn 0.0166207 0 -0.019207
v -0.103257 0.154613 -0.0136442
vn -0.0166207 0 0.019207
v 0.0459034 0.0679725 0.0374269
vn 0.013094 0.0156443 -0.0151315
v 0.0459034 0.0679725 0.0374269
vn -0.013094 -0.0156443 0.0151315
v -0.682887 -0.135832 -0.16272
vn 0 -0.0254 0
v -0.682887 -0.135832 -0.16272
vn 0 0.0254 0
v -0.137443 -0.0455217 0.117432
vn 0.019207 0 0.0166207
v -0.137443 -0.0455217 0.117432
vn -0.019207 0 -0.0166207
v 0.0338837 -0.00239406 0.0835125
vn 0.0151315 0.0156443 0.013094
v 0.0338837 -0.00239406 0.0835125
vn -0.0151315 -0.0156443 -0.013094
v 0.0482062 -2.26344e-05 0.0908688
vn 0.019207 0 0.0166207
v 0.0482062 -2.26344e-05 0.0908688
vn -0.019207 0 -0.0166207
v 0.0456784 -0.0233837 0.103321
vn 0 -0.0254 0
v 0.0456784 -0.0233837 0.103321
vn 0 0.0254 0
v 0.127435 -0.00984698 0.145313
vn 0.0142508 0 0.0210256
v 0.127435 -0.00984698 0.145313
vn -0.0142508 0 -0.0210256
v 0.134253 -0.0011276 0.129228
vn 0 0.0254 0
v 0.134253 -0.0011276 0.129228
vn 0 -0.0254 0
v 0.139028 -0.000337126 0.13168
vn -0.0142508 0 -0.0210256
v 0.139028 -0.000337126 0.13168
vn 0.0142508 0 0.0210256
v 0.0651843 0.0908043 0.0285339
vn 0 -0.0254 0
v 0.0651843 0.0908043 0.0285339
vn 0 0.0254 0
v 0.146941 0.104341 0.0705261
vn 0 0.0254 0
v 0.146941 0.104341 0.0705261
vn 0 -0.0254 0
v 0.153749 0.0858435 0.0752361
vn 0 0.0254 0
v 0.153749 0.0858435 0.0752361
vn 0 -0.0254 0
v 0.146941 0.104341 0.0705261
vn 0.0110833 0 -0.0228544
v 0.146941 0.104341 0.0705261
vn -0.0110833 0 0.0228544
v 0.0459034 0.0679725 0.0374269
vn 0.0166207 0 -0.019207
v 0.0459034 0.0679725 0.0374269
vn -0.0166207 0 0.019207
v -0.120575 0.140003 0.0247828
vn 0.0210256 0 -0.0142508
v -0.120575 0.140003 0.0247828
vn -0.0210256 0 0.0142508
v 0.0398147 0.0628362 0.0509372
vn 0.0165642 0.0156443 -0.011227
v 0.0398147 0.0628362 0.0509372
vn -0.0165642 -0.0156443 0.011227
v -0.666018 0.0496921 -0.255369
vn 0 -0.0254 0
v -0.666018 0.0496921 -0.255369
vn 0 0.0254 0
v -0.682887 -0.135832 -0.16272
vn 0.019207 0 0.0166207
v -0.682887 -0.135832 -0.16272
vn -0.019207 0 -0.0166207
v -0.137443 -0.0455217 0.117432
vn 0.0151315 0.0156443 0.013094
v -0.137443 -0.0455217 0.117432
vn -0.0151315 -0.0156443 -0.013094
v 0.0338837 -0.00239406 0.0835125
vn 0.019207 0 0.0166207
v 0.0338837 -0.00239406 0.0835125
vn -0.019207 0 -0.0166207
v 0.0482062 -2.26344e-05 0.0908688
vn 0 -0.0254 0
v 0.0482062 -2.26344e-05 0.0908688
vn 0 0.0254 0
v 0.0456784 -0.0233837 0.103321
vn 0.0142508 0 0.0210256
v 0.0456784 -0.0233837 0.103321
vn -0.0142508 0 -0.0210256
v 0.127435 -0.00984698 0.145313
vn 0 0.0254 0
v 0.127435 -0.00984698 0.145313
vn 0 -0.0254 0
v 0.129963 0.0135141 0.132861
vn -0.019207 0 -0.0166207
v 0.129963 0.0135141 0.132861
vn 0.019207 0 0.0166207
v 0.139028 -0.000337126 0.13168
vn 0 0.0254 0
v 0.139028 -0.000337126 0.13168
vn 0 -0.0254 0
v 0.060226 0.070344 0.0447833
vn 0 -0.0254 0
v 0.060226 0.070344 0.0447833
vn 0 0.0254 0
v 0.141983 0.0838807 0.0867755
vn -0.0166207 0 0.019207
v 0.141983 0.0838807 0.0867755
vn 0.0166207 0 -0.019207
v 0.146757 0.0846712 0.0892276
vn -0.0166207 0 0.019207
v 0.146757 0.0846712 0.0892276
vn 0.0166207 0 -0.019207
v 0.141983 0.0838807 0.0867755
vn 0 0.0254 0
v 0.141983 0.0838807 0.0867755
vn 0 -0.0254 0
v 0.0559199 0.0892518 0.0470719
vn 0.0166207 0 -0.019207
v 0.0559199 0.0892518 0.0470719
vn -0.0166207 0 0.019207
v 0.060226 0.070344 0.0447833
vn 0.0166207 0 -0.019207
v 0.060226 0.070344 0.0447833
vn -0.0166207 0 0.019207
v -0.666018 0.0496921 -0.255369
vn 0.0210256 0 -0.0142508
v -0.666018 0.0496921 -0.255369
vn -0.0210256 0 0.0142508
v -0.120575 0.140003 0.0247828
vn 0.0165642 0.0156443 -0.011227
v -0.120575 0.140003 0.0247828
vn -0.0165642 -0.0156443 0.011227
v 0.0541372 0.0652076 0.0582936
vn 0.0210256 0 -0.0142508
v 0.0398147 0.0628362 0.0509372
vn 0.0210256 0 -0.0142508
v 0.0398147 0.0628362 0.0509372
vn -0.0210256 0 0.0142508
v 0.0541372 0.0652076 0.0582936
vn -0.0210256 0 0.0142508
v -0.690192 -0.0918245 -0.162684
vn 0 -0.0254 0
v -0.690192 -0.0918245 -0.162684
vn 0 0.0254 0
v -0.690192 -0.0918245 -0.162684
vn 0.0228544 0 0.0110833
v -0.690192 -0.0918245 -0.162684
vn -0.0228544 0 -0.0110833
v -0.144748 -0.00151385 0.117468
vn 0.0180049 0.0156443 0.0087315
v -0.144748 -0.00151385 0.117468
vn -0.0180049 -0.0156443 -0.0087315
v 0.0313151 0.0130794 0.0835253
vn 0.0228544 0 0.0110833
v 0.0313151 0.0130794 0.0835253
vn -0.0228544 0 -0.0110833
v 0.0399933 -0.00398312 0.108136
vn 0 -0.0254 0
v 0.0399933 -0.00398312 0.108136
vn 0 0.0254 0
v 0.12175 0.00955361 0.150128
vn 0.019207 0 0.0166207
v 0.12175 0.00955361 0.150128
vn -0.019207 0 -0.0166207
v 0.129963 0.0135141 0.132861
vn 0 0.0254 0
v 0.129963 0.0135141 0.132861
vn 0 -0.0254 0
v 0.127395 0.0289876 0.132874
vn -0.0228544 0 -0.0110833
v 0.127395 0.0289876 0.132874
vn 0.0228544 0 0.0110833
v 0.146757 0.0846712 0.0892276
vn 0 0.0254 0
v 0.146757 0.0846712 0.0892276
vn 0 -0.0254 0
v 0.134737 0.0143046 0.135313
vn -0.019207 0 -0.0166207
v 0.134737 0.0143046 0.135313
vn 0.019207 0 0.0166207
v 0.0559199 0.0892518 0.0470719
vn 0 -0.0254 0
v 0.0559199 0.0892518 0.0470719
vn 0 0.0254 0
v 0.137677 0.102789 0.0890641
vn 0 0.0254 0
v 0.137677 0.102789 0.0890641
vn 0 -0.0254 0
v 0.137677 0.102789 0.0890641
vn 0.0166207 0 -0.019207
v 0.137677 0.102789 0.0890641
vn -0.0166207 0 0.019207
v -0.134144 0.115112 0.0592258
vn 0.0239975 0 -0.00832343
v -0.134144 0.115112 0.0592258
vn -0.0239975 0 0.00832343
v -0.134144 0.115112 0.0592258
vn 0.0189055 0.0156443 -0.00655729
v -0.134144 0.115112 0.0592258
vn -0.0189055 -0.0156443 0.00655729
v 0.0493662 0.0564561 0.0704038
vn 0.0239975 0 -0.00832343
v 0.0493662 0.0564561 0.0704038
vn -0.0239975 0 0.00832343
v -0.679587 0.0248011 -0.220926
vn 0 -0.0254 0
v -0.679587 0.0248011 -0.220926
vn 0 0.0254 0
v -0.144748 -0.00151385 0.117468
vn 0.0228544 0 0.0110833
v -0.144748 -0.00151385 0.117468
vn -0.0228544 0 -0.0110833
v 0.0313151 0.0130794 0.0835253
vn 0.0180049 0.0156443 0.0087315
v 0.0313151 0.0130794 0.0835253
vn -0.0180049 -0.0156443 -0.0087315
v 0.0456376 0.0154508 0.0908817
vn 0.0228544 0 0.0110833
v 0.0456376 0.0154508 0.0908817
vn -0.0228544 0 -0.0110833
v 0.0456376 0.0154508 0.0908817
vn 0 -0.0254 0
v 0.0456376 0.0154508 0.0908817
vn 0 0.0254 0
v 0.0399933 -0.00398312 0.108136
vn 0.019207 0 0.0166207
v 0.0399933 -0.00398312 0.108136
vn -0.019207 0 -0.0166207
v 0.12175 0.00955361 0.150128
vn 0 0.0254 0
v 0.12175 0.00955361 0.150128
vn 0 -0.0254 0
v 0.127395 0.0289876 0.132874
vn 0 0.0254 0
v 0.127395 0.0289876 0.132874
vn 0 -0.0254 0
v 0.132169 0.029778 0.135326
vn -0.0228544 0 -0.0110833
v 0.132169 0.029778 0.135326
vn 0.0228544 0 0.0110833
v 0.134737 0.0143046 0.135313
vn 0 0.0254 0
v 0.134737 0.0143046 0.135313
vn 0 -0.0254 0
v 0.0541372 0.0652076 0.0582936
vn 0 -0.0254 0
v 0.0541372 0.0652076 0.0582936
vn 0 0.0254 0
v 0.135894 0.0787443 0.100286
vn -0.0210256 0 0.0142508
v 0.135894 0.0787443 0.100286
vn 0.0210256 0 -0.0142508
v 0.135894 0.0787443 0.100286
vn 0 0.0254 0
v 0.135894 0.0787443 0.100286
vn 0 -0.0254 0
v 0.129609 0.0959819 0.106966
vn 0.0210256 0 -0.0142508
v 0.129609 0.0959819 0.106966
vn -0.0210256 0 0.0142508
v -0.679587 0.0248011 -0.220926
vn 0.0239975 0 -0.00832343
v -0.679587 0.0248011 -0.220926
vn -0.0239975 0 0.00832343
v 0.0350436 0.0540846 0.0630474
vn 0.0189055 0.0156443 -0.00655729
v 0.0350436 0.0540846 0.0630474
vn -0.0189055 -0.0156443 0.00655729
v 0.0350436 0.0540846 0.0630474
vn 0.0239975 0 -0.00832343
v 0.0350436 0.0540846 0.0630474
vn -0.0239975 0 0.00832343
v 0.0493662 0.0564561 0.0704038
vn 0 -0.0254 0
v 0.0493662 0.0564561 0.0704038
vn 0 0.0254 0
v -0.692101 -0.0484528 -0.172948
vn 0 -0.0254 0
v -0.692101 -0.0484528 -0.172948
vn 0 0.0254 0
v -0.692101 -0.0484528 -0.172948
vn 0.0249442 0 0.00479047
v -0.692101 -0.0484528 -0.172948
vn -0.0249442 0 -0.00479047
v -0.146657 0.0418578 0.107203
vn 0.0196513 0.0156443 0.00377398
v -0.146657 0.0418578 0.107203
vn -0.0196513 -0.0156443 -0.00377398
v 0.030644 0.0283281 0.0799163
vn 0.0249442 0 0.00479047
v 0.030644 0.0283281 0.0799163
vn -0.0249442 0 -0.00479047
v 0.0449666 0.0306995 0.0872727
vn 0 -0.0254 0
v 0.0449666 0.0306995 0.0872727
vn 0 0.0254 0
v 0.0365904 0.0165186 0.108152
vn 0.0228544 0 0.0110833
v 0.0365904 0.0165186 0.108152
vn -0.0228544 0 -0.0110833
v 0.126723 0.0442362 0.129265
vn -0.0249442 0 -0.00479047
v 0.126723 0.0442362 0.129265
vn 0.0249442 0 0.00479047
v 0.126723 0.0442362 0.129265
vn 0 0.0254 0
v 0.126723 0.0442362 0.129265
vn 0 -0.0254 0
v 0.131498 0.0450267 0.131717
vn -0.0249442 0 -0.00479047
v 0.131498 0.0450267 0.131717
vn 0.0249442 0 0.00479047
v 0.140668 0.0795348 0.102738
vn 0 0.0254 0
v 0.140668 0.0795348 0.102738
vn 0 -0.0254 0
v 0.132169 0.029778 0.135326
vn 0 0.0254 0
v 0.132169 0.029778 0.135326
vn 0 -0.0254 0
v 0.140668 0.0795348 0.102738
vn -0.0210256 0 0.0142508
v 0.140668 0.0795348 0.102738
vn 0.0210256 0 -0.0142508
v 0.131123 0.0699928 0.112396
vn 0 0.0254 0
v 0.131123 0.0699928 0.112396
vn 0 -0.0254 0
v 0.0478522 0.0824451 0.0649735
vn 0.0210256 0 -0.0142508
v 0.0478522 0.0824451 0.0649735
vn -0.0210256 0 0.0142508
v 0.129609 0.0959819 0.106966
vn 0 0.0254 0
v 0.129609 0.0959819 0.106966
vn 0 -0.0254 0
v -0.143041 0.081637 0.0873386
vn 0.0253341 0 -0.0018288
v -0.143041 0.081637 0.0873386
vn -0.0253341 0 0.0018288
v -0.143041 0.081637 0.0873386
vn 0.0199585 0.0156443 -0.00144074
v -0.143041 0.081637 0.0873386
vn -0.0199585 -0.0156443 0.00144074
v 0.0462385 0.0446857 0.0802877
vn 0.0253341 0 -0.0018288
v 0.0462385 0.0446857 0.0802877
vn -0.0253341 0 0.0018288
v 0.0478522 0.0824451 0.0649735
vn 0 -0.0254 0
v 0.0478522 0.0824451 0.0649735
vn 0 0.0254 0
v 0.131123 0.0699928 0.112396
vn -0.0239975 0 0.00832343
v 0.131123 0.0699928 0.112396
vn 0.0239975 0 -0.00832343
v -0.688484 -0.00867363 -0.192813
vn 0 -0.0254 0
v -0.688484 -0.00867363 -0.192813
vn 0 0.0254 0
v -0.146657 0.0418578 0.107203
vn 0.0249442 0 0.00479047
v -0.146657 0.0418578 0.107203
vn -0.0249442 0 -0.00479047
v 0.030644 0.0283281 0.0799163
vn 0.0196513 0.0156443 0.00377398
v 0.030644 0.0283281 0.0799163
vn -0.0196513 -0.0156443 -0.00377398
v 0.0449666 0.0306995 0.0872727
vn 0.0249442 0 0.00479047
v 0.0449666 0.0306995 0.0872727
vn -0.0249442 0 -0.00479047
v 0.0462385 0.0446857 0.0802877
vn 0 -0.0254 0
v 0.0462385 0.0446857 0.0802877
vn 0 0.0254 0
v 0.118347 0.0300553 0.150144
vn 0.0228544 0 0.0110833
v 0.118347 0.0300553 0.150144
vn -0.0228544 0 -0.0110833
v 0.0365904 0.0165186 0.108152
vn 0 -0.0254 0
v 0.0365904 0.0165186 0.108152
vn 0 0.0254 0
v 0.127995 0.0582225 0.12228
vn 0 0.0254 0
v 0.127995 0.0582225 0.12228
vn 0 -0.0254 0
v 0.135897 0.0707833 0.114848
vn 0 0.0254 0
v 0.131498 0.0450267 0.131717
vn 0 0.0254 0
v 0.131498 0.0450267 0.131717
vn 0 -0.0254 0
v 0.135897 0.0707833 0.114848
vn 0 -0.0254 0
v 0.123287 0.084386 0.123012
vn 0.0239975 0 -0.00832343
v 0.123287 0.084386 0.123012
vn -0.0239975 0 0.00832343
v -0.688484 -0.00867363 -0.192813
vn 0.0253341 0 -0.0018288
v -0.688484 -0.00867363 -0.192813
vn -0.0253341 0 0.0018288
v 0.0319159 0.0423143 0.0729313
vn 0.0199585 0.0156443 -0.00144074
v 0.0319159 0.0423143 0.0729313
vn -0.0199585 -0.0156443 0.00144074
v 0.0319159 0.0423143 0.0729313
vn 0.0253341 0 -0.0018288
v 0.0319159 0.0423143 0.0729313
vn -0.0253341 0 0.0018288
v 0.127995 0.0582225 0.12228
vn -0.0253341 0 0.0018288
v 0.127995 0.0582225 0.12228
vn 0.0253341 0 -0.0018288
v 0.035701 0.0367236 0.10337
vn 0.0249442 0 0.00479047
v 0.035701 0.0367236 0.10337
vn -0.0249442 0 -0.00479047
v 0.118347 0.0300553 0.150144
vn 0 0.0254 0
v 0.118347 0.0300553 0.150144
vn 0 -0.0254 0
v 0.0415304 0.0708493 0.0810198
vn 0 -0.0254 0
v 0.0415304 0.0708493 0.0810198
vn 0 0.0254 0
v 0.13277 0.0590129 0.124732
vn -0.0253341 0 0.0018288
v 0.13277 0.0590129 0.124732
vn 0.0253341 0 -0.0018288
v 0.13277 0.0590129 0.124732
vn 0 0.0254 0
v 0.13277 0.0590129 0.124732
vn 0 -0.0254 0
v 0.135897 0.0707833 0.114848
vn -0.0239975 0 0.00832343
v 0.135897 0.0707833 0.114848
vn 0.0239975 0 -0.00832343
v 0.0415304 0.0708493 0.0810198
vn 0.0239975 0 -0.00832343
v 0.0415304 0.0708493 0.0810198
vn -0.0239975 0 0.00832343
v 0.123287 0.084386 0.123012
vn 0 0.0254 0
v 0.123287 0.084386 0.123012
vn 0 -0.0254 0
v 0.117458 0.0502603 0.145363
vn 0.0249442 0 0.00479047
v 0.117458 0.0502603 0.145363
vn -0.0249442 0 -0.00479047
v 0.035701 0.0367236 0.10337
vn 0 -0.0254 0
v 0.035701 0.0367236 0.10337
vn 0 0.0254 0
v 0.119143 0.0687915 0.136108
vn 0.0253341 0 -0.0018288
v 0.119143 0.0687915 0.136108
vn -0.0253341 0 0.0018288
v 0.117458 0.0502603 0.145363
vn 0 0.0254 0
v 0.117458 0.0502603 0.145363
vn 0 -0.0254 0
v 0.037386 0.0552548 0.0941159
vn 0.0253341 0 -0.0018288
v 0.037386 0.0552548 0.0941159
vn -0.0253341 0 0.0018288
v 0.037386 0.0552548 0.0941159
vn 0 -0.0254 0
v 0.037386 0.0552548 0.0941159
vn 0 0.0254 0
v 0.119143 0.0687915 0.136108
vn 0 0.0254 0
v 0.119143 0.0687915 0.136108
vn 0 -0.0254 0
f 1//1 2//2 3//3
f 2//2 1//1 4//4
f 5//5 6//6 7//7
f 8//8 7//7 6//6
f 9//9 10//10 11//11
f 12//12 13//13 14//14
f 11//11 15//15 16//16
f 17//17 18//18 12//12
f 16//16 19//19 20//20
f 21//21 22//22 17//17
f 2//2 4//4 23//23
f 24//24 8//8 6//6
f 10//10 9//9 25//25
f 26//26 14//14 13//13
f 15//15 11//11 10//10
f 13//13 12//12 18//18
f 19//19 16//16 15//15
f 18//18 17//17 22//22
f 27//27 20//20 19//19
f 22//22 21//21 28//28
f 23//23 4//4 29//29
f 30//30 8//8 24//24
f 31//31 25//25 9//9
f 14//14 26//26 32//32
f 33//33 34//34 35//35
f 36//36 37//37 38//38
f 39//39 40//40 34//34
f 37//37 41//41 42//42
f 40//40 43//43 44//44
f 45//45 46//46 41//41
f 20//20 27//27 47//47
f 48//48 28//28 21//21
f 44//44 49//49 50//50
f 51//51 52//52 45//45
f 23//23 29//29 53//53
f 54//54 30//30 24//24
f 25//25 31//31 55//55
f 56//56 32//32 26//26
f 34//34 33//33 39//39
f 42//42 38//38 37//37
f 35//35 57//57 33//33
f 38//38 58//58 36//36
f 40//40 39//39 59//59
f 60//60 42//42 41//41
f 43//43 40//40 59//59
f 60//60 41//41 46//46
f 49//49 44//44 43//43
f 46//46 45//45 52//52
f 27//27 61//61 47//47
f 48//48 62//62 28//28
f 49//49 63//63 50//50
f 51//51 64//64 52//52
f 53//53 29//29 65//65
f 66//66 30//30 54//54
f 67//67 55//55 31//31
f 32//32 56//56 68//68
f 57//57 35//35 69//69
f 70//70 36//36 58//58
f 71//71 72//72 73//73
f 74//74 75//75 76//76
f 77//77 78//78 71//71
f 76//76 79//79 80//80
f 73//73 81//81 82//82
f 83//83 84//84 74//74
f 82//82 85//85 86//86
f 87//87 88//88 83//83
f 86//86 89//89 90//90
f 91//91 92//92 87//87
f 61//61 27//27 93//93
f 94//94 28//28 62//62
f 63//63 49//49 95//95
f 96//96 52//52 64//64
f 53//53 65//65 97//97
f 98//98 66//66 54//54
f 55//55 67//67 99//99
f 100//100 68//68 56//56
f 101//101 57//57 69//69
f 70//70 58//58 102//102
f 72//72 71//71 78//78
f 79//79 76//76 75//75
f 81//81 73//73 72//72
f 75//75 74//74 84//84
f 78//78 77//77 103//103
f 104//104 80//80 79//79
f 85//85 82//82 81//81
f 84//84 83//83 88//88
f 89//89 86//86 85//85
f 88//88 87//87 92//92
f 89//89 105//105 90//90
f 91//91 106//106 92//92
f 93//93 107//107 61//61
f 62//62 108//108 94//94
f 95//95 109//109 63//63
f 64//64 110//110 96//96
f 97//97 65//65 111//111
f 112//112 66//66 98//98
f 113//113 67//67 114//114
f 115//115 68//68 116//116
f 67//67 113//113 99//99
f 100//100 116//116 68//68
f 57//57 101//101 117//117
f 118//118 102//102 58//58
f 119//119 120//120 121//121
f 122//122 123//123 124//124
f 75//75 125//125 79//79
f 78//78 126//126 72//72
f 127//127 128//128 120//120
f 123//123 129//129 130//130
f 131//131 132//132 75//75
f 72//72 133//133 134//134
f 135//135 103//103 77//77
f 80//80 104//104 136//136
f 119//119 121//121 137//137
f 138//138 122//122 124//124
f 79//79 139//139 104//104
f 103//103 140//140 78//78
f 141//141 142//142 131//131
f 134//134 143//143 141//141
f 128//128 144//144 145//145
f 146//146 147//147 129//129
f 131//131 148//148 141//141
f 141//141 149//149 134//134
f 150//150 151//151 141//141
f 141//141 151//151 150//150
f 145//145 144//144 152//152
f 153//153 147//147 146//146
f 141//141 154//154 150//150
f 150//150 155//155 141//141
f 105//105 89//89 156//156
f 157//157 92//92 106//106
f 107//107 93//93 158//158
f 159//159 94//94 108//108
f 109//109 95//95 160//160
f 161//161 96//96 110//110
f 97//97 111//111 162//162
f 163//163 112//112 98//98
f 114//114 164//164 113//113
f 116//116 165//165 115//115
f 166//166 101//101 167//167
f 168//168 102//102 169//169
f 101//101 166//166 117//117
f 118//118 169//169 102//102
f 170//170 120//120 119//119
f 124//124 123//123 171//171
f 125//125 75//75 132//132
f 133//133 72//72 126//126
f 139//139 79//79 125//125
f 126//126 78//78 140//140
f 128//128 127//127 144//144
f 147//147 130//130 129//129
f 170//170 127//127 120//120
f 123//123 130//130 171//171
f 132//132 131//131 142//142
f 143//143 134//134 133//133
f 103//103 135//135 172//172
f 173//173 136//136 104//104
f 119//119 137//137 174//174
f 175//175 138//138 124//124
f 176//176 104//104 139//139
f 140//140 103//103 177//177
f 142//142 141//141 151//151
f 151//151 141//141 143//143
f 142//142 148//148 131//131
f 134//134 149//149 143//143
f 141//141 148//148 151//151
f 151//151 149//149 141//141
f 151//151 150//150 178//178
f 178//178 150//150 151//151
f 151//151 154//154 141//141
f 141//141 155//155 151//151
f 152//152 144//144 179//179
f 180//180 147//147 153//153
f 150//150 154//154 178//178
f 178//178 155//155 150//150
f 181//181 150//150 182//182
f 182//182 150//150 181//181
f 178//178 182//182 150//150
f 150//150 182//182 178//178
f 156//156 183//183 105//105
f 106//106 184//184 157//157
f 158//158 185//185 107//107
f 108//108 186//186 159//159
f 160//160 187//187 109//109
f 110//110 188//188 161//161
f 162//162 111//111 189//189
f 190//190 112//112 163//163
f 164//164 114//114 191//191
f 192//192 115//115 165//165
f 193//193 167//167 194//194
f 195//195 168//168 196//196
f 167//167 193//193 166//166
f 169//169 196//196 168//168
f 197//197 135//135 198//198
f 199//199 136//136 200//200
f 201//201 202//202 203//203
f 204//204 205//205 206//206
f 207//207 208//208 209//209
f 210//210 211//211 212//212
f 132//132 213//213 125//125
f 126//126 214//214 133//133
f 209//209 208//208 215//215
f 216//216 211//211 210//210
f 125//125 217//217 139//139
f 140//140 218//218 126//126
f 219//219 220//220 221//221
f 222//222 223//223 224//224
f 170//170 225//225 127//127
f 130//130 226//226 171//171
f 227//227 228//228 207//207
f 212//212 229//229 230//230
f 142//142 231//231 132//132
f 133//133 232//232 143//143
f 135//135 197//197 172//172
f 173//173 200//200 136//136
f 174//174 137//137 233//233
f 234//234 138//138 175//175
f 104//104 176//176 173//173
f 172//172 177//177 103//103
f 235//235 201//201 236//236
f 237//237 206//206 238//238
f 215//215 239//239 240//240
f 241//241 242//242 216//216
f 139//139 243//243 176//176
f 177//177 244//244 140//140
f 245//245 227//227 246//246
f 247//247 230//230 248//248
f 148//148 142//142 249//249
f 250//250 143//143 149//149
f 154//154 151//151 148//148
f 149//149 151//151 155//155
f 150//150 181//181 178//178
f 178//178 181//181 150//150
f 245//245 246//246 251//251
f 252//252 247//247 248//248
f 179//179 144//144 253//253
f 254//254 147//147 180//180
f 181//181 178//178 154//154
f 155//155 178//178 181//181
f 182//182 255//255 181//181
f 181//181 256//256 182//182
f 182//182 178//178 181//181
f 181//181 178//178 182//182
f 181//181 257//257 182//182
f 182//182 258//258 181//181
f 183//183 156//156 259//259
f 260//260 157//157 184//184
f 185//185 158//158 261//261
f 262//262 159//159 186//186
f 187//187 160//160 263//263
f 264//264 161//161 188//188
f 162//162 189//189 265//265
f 266//266 190//190 163//163
f 191//191 267//267 164//164
f 165//165 268//268 192//192
f 194//194 269//269 193//193
f 196//196 270//270 195//195
f 271//271 198//198 272//272
f 273//273 199//199 274//274
f 198//198 271//271 197//197
f 200//200 274//274 199//199
f 202//202 201//201 275//275
f 276//276 206//206 205//205
f 277//277 203//203 202//202
f 205//205 204//204 278//278
f 207//207 279//279 208//208
f 211//211 280//280 212//212
f 213//213 132//132 231//231
f 232//232 133//133 214//214
f 217//217 125//125 213//213
f 214//214 126//126 218//218
f 215//215 208//208 239//239
f 242//242 211//211 216//216
f 243//243 139//139 217//217
f 218//218 140//140 244//244
f 220//220 219//219 281//281
f 282//282 224//224 223//223
f 283//283 219//219 221//221
f 222//222 224//224 284//284
f 285//285 225//225 170//170
f 171//171 226//226 286//286
f 228//228 227//227 245//245
f 248//248 230//230 229//229
f 228//228 279//279 207//207
f 212//212 280//280 229//229
f 231//231 142//142 249//249
f 250//250 143//143 232//232
f 174//174 233//233 287//287
f 288//288 234//234 175//175
f 176//176 200//200 173//173
f 172//172 197//197 177//177
f 201//201 235//235 275//275
f 276//276 238//238 206//206
f 236//236 289//289 235//235
f 238//238 290//290 237//237
f 240//240 239//239 291//291
f 292//292 242//242 241//241
f 243//243 293//293 176//176
f 177//177 294//294 244//244
f 295//295 296//296 297//297
f 298//298 299//299 300//300
f 297//297 301//301 302//302
f 303//303 304//304 298//298
f 245//245 251//251 305//305
f 306//306 252//252 248//248
f 281//281 307//307 220//220
f 223//223 308//308 282//282
f 179//179 253//253 309//309
f 310//310 254//254 180//180
f 181//181 154//154 311//311
f 312//312 155//155 181//181
f 255//255 182//182 257//257
f 258//258 182//182 256//256
f 313//313 305//305 314//314
f 315//315 306//306 316//316
f 257//257 181//181 255//255
f 255//255 181//181 311//311
f 256//256 181//181 258//258
f 312//312 181//181 256//256
f 259//259 317//317 183//183
f 184//184 318//318 260//260
f 261//261 319//319 185//185
f 186//186 320//320 262//262
f 263//263 321//321 187//187
f 188//188 322//322 264//264
f 265//265 189//189 323//323
f 324//324 190//190 266//266
f 267//267 191//191 325//325
f 326//326 192//192 268//268
f 269//269 194//194 327//327
f 328//328 195//195 270//270
f 329//329 272//272 330//330
f 331//331 273//273 332//332
f 272//272 329//329 271//271
f 274//274 332//332 273//273
f 333//333 287//287 334//334
f 335//335 288//288 336//336
f 293//293 337//337 200//200
f 197//197 338//338 294//294
f 203//203 277//277 339//339
f 340//340 278//278 204//204
f 341//341 342//342 279//279
f 280//280 343//343 344//344
f 296//296 295//295 345//345
f 346//346 300//300 299//299
f 297//297 296//296 301//301
f 304//304 299//299 298//298
f 302//302 301//301 347//347
f 348//348 304//304 303//303
f 219//219 283//283 349//349
f 350//350 284//284 224//224
f 285//285 351//351 225//225
f 226//226 352//352 286//286
f 341//341 279//279 228//228
f 229//229 280//280 344//344
f 174//174 287//287 333//333
f 336//336 288//288 175//175
f 200//200 176//176 293//293
f 294//294 177//177 197//197
f 289//289 236//236 353//353
f 354//354 237//237 290//290
f 291//291 239//239 355//355
f 356//356 242//242 292//292
f 293//293 243//243 357//357
f 358//358 244//244 294//294
f 245//245 305//305 313//313
f 316//316 306//306 248//248
f 307//307 281//281 359//359
f 360//360 282//282 308//308
f 309//309 253//253 361//361
f 362//362 254//254 310//310
f 302//302 347//347 363//363
f 364//364 348//348 303//303
f 257//257 365//365 255//255
f 256//256 366//366 258//258
f 313//313 314//314 367//367
f 368//368 315//315 316//316
f 255//255 311//311 369//369
f 370//370 312//312 256//256
f 317//317 259//259 371//371
f 372//372 260//260 318//318
f 319//319 261//261 373//373
f 374//374 262//262 320//320
f 321//321 263//263 375//375
f 376//376 264//264 322//322
f 265//265 323//323 377//377
f 378//378 324//324 266//266
f 325//325 379//379 267//267
f 268//268 380//380 326//326
f 327//327 381//381 269//269
f 270//270 382//382 328//328
f 330//330 383//383 329//329
f 332//332 384//384 331//331
f 385//385 386//386 337//337
f 338//338 386//386 387//387
f 388//388 334//334 389//389
f 390//390 335//335 391//391
f 392//392 337//337 386//386
f 386//386 338//338 392//392
f 333//333 334//334 388//388
f 391//391 335//335 336//336
f 337//337 293//293 385//385
f 387//387 294//294 338//338
f 393//393 339//339 277//277
f 278//278 340//340 394//394
f 395//395 342//342 341//341
f 344//344 343//343 396//396
f 397//397 349//349 283//283
f 284//284 350//350 398//398
f 351//351 285//285 399//399
f 400//400 286//286 352//352
f 353//353 401//401 289//289
f 290//290 402//402 354//354
f 291//291 355//355 403//403
f 404//404 356//356 292//292
f 363//363 347//347 405//405
f 406//406 348//348 364//364
f 357//357 385//385 293//293
f 294//294 387//387 358//358
f 359//359 407//407 307//307
f 308//308 408//408 360//360
f 309//309 361//361 409//409
f 410//410 362//362 310//310
f 365//365 257//257 372//372
f 371//371 258//258 366//366
f 367//367 314//314 411//411
f 412//412 315//315 368//368
f 413//413 255//255 365//365
f 366//366 256//256 414//414
f 407//407 359//359 415//415
f 416//416 360//360 408//408
f 363//363 405//405 417//417
f 418//418 406//406 364//364
f 255//255 413//413 369//369
f 370//370 414//414 256//256
f 371//371 419//419 317//317
f 318//318 420//420 372//372
f 373//373 421//421 319//319
f 320//320 422//422 374//374
f 375//375 423//423 321//321
f 322//322 424//424 376//376
f 377//377 323//323 425//425
f 426//426 324//324 378//378
f 379//379 325//325 427//427
f 428//428 326//326 380//380
f 381//381 327//327 429//429
f 430//430 328//328 382//382
f 383//383 330//330 431//431
f 432//432 331//331 384//384
f 392//392 433//433 386//386
f 386//386 434//434 392//392
f 388//388 389//389 435//435
f 436//436 390//390 391//391
f 437//437 386//386 433//433
f 434//434 386//386 438//438
f 386//386 385//385 392//392
f 392//392 387//387 386//386
f 337//337 392//392 385//385
f 387//387 392//392 338//338
f 386//386 437//437 392//392
f 392//392 438//438 386//386
f 401//401 353//353 439//439
f 440//440 354//354 402//402
f 339//339 393//393 441//441
f 442//442 394//394 340//340
f 342//342 395//395 443//443
f 444//444 396//396 343//343
f 349//349 397//397 445//445
f 446//446 398//398 350//350
f 441//441 445//445 397//397
f 398//398 446//446 442//442
f 403//403 355//355 447//447
f 448//448 356//356 404//404
f 385//385 357//357 449//449
f 450//450 358//358 387//387
f 409//409 361//361 451//451
f 452//452 362//362 410//410
f 372//372 453//453 365//365
f 366//366 454//454 371//371
f 367//367 411//411 455//455
f 456//456 412//412 368//368
f 365//365 457//457 413//413
f 414//414 458//458 366//366
f 415//415 459//459 407//407
f 408//408 460//460 416//416
f 417//417 405//405 461//461
f 462//462 406//406 418//418
f 417//417 461//461 463//463
f 464//464 462//462 418//418
f 419//419 371//371 465//465
f 466//466 372//372 420//420
f 421//421 373//373 467//467
f 468//468 374//374 422//422
f 423//423 375//375 469//469
f 470//470 376//376 424//424
f 377//377 425//425 471//471
f 472//472 426//426 378//378
f 427//427 473//473 379//379
f 380//380 474//474 428//428
f 429//429 475//475 381//381
f 382//382 476//476 430//430
f 431//431 477//477 383//383
f 384//384 478//478 432//432
f 433//433 392//392 437//437
f 438//438 392//392 434//434
f 388//388 435//435 479//479
f 480//480 436//436 391//391
f 437//437 478//478 433//433
f 434//434 477//477 438//438
f 403//403 447//447 481//481
f 482//482 448//448 404//404
f 385//385 392//392 483//483
f 484//484 392//392 387//387
f 481//481 447//447 485//485
f 486//486 448//448 482//482
f 392//392 437//437 487//487
f 488//488 438//438 392//392
f 439//439 489//489 401//401
f 402//402 490//490 440//440
f 445//445 441//441 393//393
f 394//394 442//442 446//446
f 385//385 483//483 449//449
f 450//450 484//484 387//387
f 409//409 451//451 491//491
f 492//492 452//452 410//410
f 453//453 372//372 466//466
f 465//465 371//371 454//454
f 455//455 411//411 493//493
f 494//494 412//412 456//456
f 457//457 365//365 453//453
f 454//454 366//366 458//458
f 459//459 415//415 495//495
f 496//496 416//416 460//460
f 463//463 497//497 498//498
f 499//499 500//500 464//464
f 463//463 461//461 497//497
f 500//500 462//462 464//464
f 465//465 501//501 419//419
f 420//420 502//502 466//466
f 467//467 503//503 421//421
f 422//422 504//504 468//468
f 469//469 505//505 423//423
f 424//424 506//506 470//470
f 471//471 425//425 507//507
f 508//508 426//426 472//472
f 473//473 427//427 509//509
f 510//510 428//428 474//474
f 475//475 429//429 511//511
f 512//512 430//430 476//476
f 477//477 431//431 513//513
f 514//514 432//432 478//478
f 479//479 435//435 515//515
f 516//516 436//436 480//480
f 489//489 439//439 517//517
f 518//518 440//440 490//490
f 478//478 437//437 519//519
f 520//520 438//438 477//477
f 392//392 487//487 483//483
f 484//484 488//488 392//392
f 485//485 447//447 521//521
f 522//522 448//448 486//486
f 487//487 519//519 437//437
f 438//438 520//520 488//488
f 491//491 451//451 523//523
f 524//524 452//452 492//492
f 466//466 525//525 453//453
f 454//454 526//526 465//465
f 455//455 493//493 527//527
f 528//528 494//494 456//456
f 453//453 529//529 457//457
f 458//458 530//530 454//454
f 495//495 531//531 459//459
f 460//460 532//532 496//496
f 498//498 497//497 533//533
f 534//534 500//500 499//499
f 501//501 465//465 535//535
f 536//536 466//466 502//502
f 503//503 467//467 537//537
f 538//538 468//468 504//504
f 505//505 469//469 539//539
f 540//540 470//470 506//506
f 471//471 507//507 541//541
f 542//542 508//508 472//472
f 509//509 543//543 473//473
f 474//474 544//544 510//510
f 511//511 545//545 475//475
f 476//476 546//546 512//512
f 513//513 547//547 477//477
f 478//478 548//548 514//514
f 479//479 515//515 549//549
f 550//550 516//516 480//480
f 517//517 551//551 489//489
f 490//490 552//552 518//518
f 485//485 521//521 553//553
f 554//554 522//522 486//486
f 519//519 548//548 478//478
f 477//477 547//547 520//520
f 519//519 487//487 555//555
f 556//556 488//488 520//520
f 523//523 451//451 557//557
f 558//558 452//452 524//524
f 525//525 466//466 536//536
f 535//535 465//465 526//526
f 529//529 453//453 525//525
f 526//526 454//454 530//530
f 455//455 527//527 559//559
f 560//560 528//528 456//456
f 498//498 533//533 561//561
f 562//562 534//534 499//499
f 531//531 495//495 563//563
f 564//564 496//496 532//532
f 535//535 565//565 501//501
f 502//502 566//566 536//536
f 567//567 503//503 537//537
f 538//538 504//504 568//568
f 569//569 505//505 539//539
f 540//540 506//506 570//570
f 541//541 507//507 571//571
f 572//572 508//508 542//542
f 543//543 509//509 573//573
f 574//574 510//510 544//544
f 545//545 511//511 575//575
f 576//576 512//512 546//546
f 547//547 513//513 577//577
f 578//578 514//514 548//548
f 549//549 515//515 579//579
f 580//580 516//516 550//550
f 551//551 517//517 581//581
f 582//582 518//518 552//552
f 553//553 521//521 583//583
f 584//584 522//522 554//554
f 548//548 519//519 585//585
f 586//586 520//520 547//547
f 561//561 533//533 587//587
f 588//588 534//534 562//562
f 555//555 585//585 519//519
f 520//520 586//586 556//556
f 523//523 557//557 589//589
f 590//590 558//558 524//524
f 536//536 591//591 525//525
f 526//526 592//592 535//535
f 525//525 593//593 529//529
f 530//530 594//594 526//526
f 559//559 527//527 595//595
f 596//596 528//528 560//560
f 563//563 597//597 531//531
f 532//532 598//598 564//564
f 565//565 535//535 599//599
f 600//600 536//536 566//566
f 503//503 567//567 601//601
f 602//602 568//568 504//504
f 505//505 569//569 603//603
f 604//604 570//570 506//506
f 565//565 605//605 606//606
f 607//607 608//608 566//566
f 541//541 571//571 609//609
f 610//610 572//572 542//542
f 611//611 543//543 573//573
f 574//574 544//544 612//612
f 613//613 545//545 575//575
f 576//576 546//546 614//614
f 615//615 547//547 577//577
f 578//578 548//548 616//616
f 549//549 579//579 617//617
f 618//618 580//580 550//550
f 581//581 619//619 551//551
f 552//552 620//620 582//582
f 553//553 583//583 621//621
f 622//622 584//584 554//554
f 623//623 548//548 585//585
f 586//586 547//547 624//624
f 561//561 587//587 625//625
f 626//626 588//588 562//562
f 585//585 555//555 627//627
f 628//628 556//556 586//586
f 589//589 557//557 629//629
f 630//630 558//558 590//590
f 591//591 536//536 600//600
f 599//599 535//535 592//592
f 593//593 525//525 591//591
f 592//592 526//526 594//594
f 559//559 595//595 631//631
f 632//632 596//596 560//560
f 597//597 563//563 633//633
f 634//634 564//564 598//598
f 605//605 565//565 599//599
f 600//600 566//566 608//608
f 635//635 601//601 567//567
f 568//568 602//602 636//636
f 569//569 637//637 603//603
f 604//604 638//638 570//570
f 639//639 606//606 605//605
f 608//608 607//607 640//640
f 609//609 571//571 641//641
f 642//642 572//572 610//610
f 543//543 611//611 643//643
f 644//644 612//612 544//544
f 545//545 613//613 645//645
f 646//646 614//614 546//546
f 547//547 615//615 647//647
f 648//648 616//616 548//548
f 617//617 579//579 649//649
f 650//650 580//580 618//618
f 619//619 581//581 651//651
f 652//652 582//582 620//620
f 621//621 583//583 653//653
f 654//654 584//584 622//622
f 548//548 623//623 648//648
f 647//647 624//624 547//547
f 621//621 653//653 655//655
f 656//656 654//654 622//622
f 585//585 657//657 623//623
f 624//624 658//658 586//586
f 625//625 587//587 659//659
f 660//660 588//588 626//626
f 657//657 585//585 627//627
f 628//628 586//586 658//658
f 589//589 629//629 661//661
f 662//662 630//630 590//590
f 608//608 591//591 600//600
f 599//599 592//592 605//605
f 663//663 593//593 591//591
f 592//592 594//594 664//664
f 631//631 595//595 665//665
f 666//666 596//596 632//632
f 667//667 597//597 633//633
f 634//634 598//598 668//668
f 601//601 635//635 669//669
f 670//670 636//636 602//602
f 637//637 569//569 671//671
f 672//672 570//570 638//638
f 606//606 639//639 673//673
f 674//674 640//640 607//607
f 661//661 629//629 675//675
f 676//676 630//630 662//662
f 640//640 663//663 608//608
f 605//605 664//664 639//639
f 609//609 641//641 677//677
f 678//678 642//642 610//610
f 679//679 643//643 611//611
f 612//612 644//644 680//680
f 681//681 645//645 613//613
f 614//614 646//646 682//682
f 683//683 647//647 615//615
f 616//616 648//648 684//684
f 617//617 649//649 685//685
f 686//686 650//650 618//618
f 687//687 619//619 651//651
f 652//652 620//620 688//688
f 689//689 648//648 623//623
f 624//624 647//647 690//690
f 655//655 653//653 691//691
f 692//692 654//654 656//656
f 693//693 623//623 657//657
f 658//658 624//624 694//694
f 625//625 659//659 695//695
f 696//696 660//660 626//626
f 695//695 659//659 697//697
f 698//698 660//660 696//696
f 591//591 608//608 663//663
f 664//664 605//605 592//592
f 593//593 663//663 699//699
f 700//700 664//664 594//594
f 631//631 665//665 701//701
f 702//702 666//666 632//632
f 597//597 667//667 703//703
f 704//704 668//668 598//598
f 631//631 701//701 705//705
f 706//706 702//702 632//632
f 707//707 669//669 635//635
f 636//636 670//670 708//708
f 671//671 709//709 637//637
f 638//638 710//710 672//672
f 711//711 673//673 639//639
f 640//640 674//674 712//712
f 675//675 629//629 713//713
f 714//714 630//630 676//676
f 663//663 640//640 715//715
f 716//716 639//639 664//664
f 677//677 641//641 717//717
f 718//718 642//642 678//678
f 643//643 679//679 719//719
f 720//720 680//680 644//644
f 645//645 681//681 721//721
f 722//722 682//682 646//646
f 647//647 683//683 723//723
f 724//724 684//684 648//648
f 648//648 689//689 724//724
f 723//723 690//690 647//647
f 617//617 685//685 725//725
f 726//726 686//686 618//618
f 619//619 687//687 727//727
f 728//728 688//688 620//620
f 617//617 713//713 729//729
f 730//730 714//714 618//618
f 623//623 693//693 689//689
f 690//690 694//694 624//624
f 691//691 653//653 731//731
f 732//732 654//654 692//692
f 733//733 697//697 734//734
f 735//735 698//698 736//736
f 695//695 697//697 733//733
f 736//736 698//698 696//696
f 715//715 699//699 663//663
f 664//664 700//700 716//716
f 737//737 703//703 667//667
f 668//668 704//704 738//738
f 705//705 701//701 731//731
f 732//732 702//702 706//706
f 669//669 707//707 739//739
f 740//740 708//708 670//670
f 709//709 671//671 741//741
f 742//742 672//672 710//710
f 673//673 711//711 743//743
f 744//744 712//712 674//674
f 675//675 713//713 725//725
f 726//726 714//714 676//676
f 712//712 715//715 640//640
f 639//639 716//716 711//711
f 739//739 719//719 679//679
f 680//680 720//720 740//740
f 709//709 721//721 681//681
f 682//682 722//722 710//710
f 743//743 723//723 683//683
f 684//684 724//724 744//744
f 745//745 724//724 689//689
f 690//690 723//723 746//746
f 723//723 743//743 711//711
f 712//712 744//744 724//724
f 724//724 745//745 712//712
f 711//711 746//746 723//723
f 725//725 713//713 617//617
f 618//618 714//714 726//726
f 747//747 727//727 687//687
f 688//688 728//728 748//748
f 705//705 653//653 749//749
f 750//750 654//654 706//706
f 729//729 713//713 751//751
f 752//752 714//714 730//730
f 753//753 689//689 693//693
f 694//694 690//690 754//754
f 705//705 731//731 653//653
f 654//654 732//732 706//706
f 689//689 753//753 745//745
f 746//746 754//754 690//690
f 733//733 734//734 755//755
f 756//756 735//735 736//736
f 699//699 715//715 757//757
f 758//758 716//716 700//700
f 703//703 737//737 759//759
f 760//760 738//738 704//704
f 705//705 749//749 761//761
f 762//762 750//750 706//706
f 715//715 712//712 745//745
f 746//746 711//711 716//716
f 745//745 757//757 715//715
f 716//716 758//758 746//746
f 719//719 739//739 707//707
f 708//708 740//740 720//720
f 721//721 709//709 741//741
f 742//742 710//710 722//722
f 727//727 747//747 763//763
f 764//764 748//748 728//728
f 729//729 751//751 765//765
f 766//766 752//752 730//730
f 757//757 745//745 753//753
f 754//754 746//746 758//758
f 767//767 759//759 737//737
f 738//738 760//760 768//768
f 761//761 749//749 769//769
f 770//770 750//750 762//762
f 771//771 763//763 747//747
f 748//748 764//764 772//772
f 765//765 751//751 773//773
f 774//774 752//752 766//766
f 759//759 767//767 771//771
f 772//772 768//768 760//760
f 761//761 769//769 775//775
f 776//776 770//770 762//762
f 763//763 771//771 767//767
f 768//768 772//772 764//764
